<svg width="195" height="245" viewBox="0 0 195 245" fill="none" xmlns="http://www.w3.org/2000/svg">
<rect x="8" y="8" width="179" height="229" rx="20" fill="#C4A3FF" stroke="#36363F" stroke-width="16"/>
<g clip-path="url(#clip0_387_10176)">
<rect x="37" y="46" width="120" height="120" rx="60" fill="#49AEE1"/>
<path d="M105.729 211.021C100.822 214.586 94.1778 214.586 89.271 211.021L40.5816 175.646C35.6748 172.081 33.6216 165.762 35.4958 159.994L54.0935 102.756C55.9678 96.9878 61.3432 93.0823 67.4083 93.0823L127.592 93.0823C133.657 93.0823 139.032 96.9878 140.906 102.756L159.504 159.994C161.378 165.762 159.325 172.081 154.418 175.646L105.729 211.021Z" fill="#3F50B8"/>
<circle cx="14" cy="14" r="14" transform="matrix(1 0 0 -1 66.3848 130.1)" fill="#F2F3E5"/>
<circle cx="14" cy="14" r="14" transform="matrix(1 0 0 -1 66.3848 130.1)" fill="#F2F3E5"/>
<circle cx="38" cy="38" r="38" transform="matrix(1 0 0 -1 59 84)" fill="#F2F3E5"/>
<mask id="mask0_387_10176" style="mask-type:alpha" maskUnits="userSpaceOnUse" x="59" y="8" width="76" height="76">
<circle cx="38" cy="38" r="38" transform="matrix(1 0 0 -1 59 84)" fill="#E0E2C0"/>
</mask>
<g mask="url(#mask0_387_10176)">
<path d="M94.018 56.722C95.4313 55.6952 97.345 55.6952 98.7583 56.722L110.555 65.2929C111.968 66.3197 112.56 68.1398 112.02 69.8012L107.514 83.6691C106.974 85.3305 105.426 86.4554 103.679 86.4554H89.0973C87.3504 86.4554 85.8021 85.3305 85.2623 83.6691L80.7563 69.8012C80.2165 68.1398 80.8079 66.3197 82.2212 65.2929L94.018 56.722Z" fill="#36363F"/>
<path d="M50.5627 36.0284C51.4859 34.5453 53.2591 33.8255 54.9548 34.2452L69.1093 37.7491C70.805 38.1689 72.0376 39.6328 72.1623 41.3752L73.2039 55.9196C73.3287 57.6621 72.3173 59.2867 70.6987 59.9438L57.188 65.4289C55.5694 66.086 53.7118 65.6262 52.5867 64.2899L43.195 53.1354C42.0699 51.7991 41.9332 49.8903 42.8564 48.4073L50.5627 36.0284Z" fill="#36363F"/>
<path d="M144.044 36.0284C143.121 34.5453 141.348 33.8255 139.652 34.2452L125.498 37.7491C123.802 38.1689 122.569 39.6328 122.445 41.3752L121.403 55.9196C121.278 57.6621 122.29 59.2867 123.908 59.9438L137.419 65.4289C139.037 66.086 140.895 65.6262 142.02 64.2899L151.412 53.1354C152.537 51.7991 152.674 49.8903 151.751 48.4073L144.044 36.0284Z" fill="#36363F"/>
</g>
<circle cx="8.90909" cy="8.90909" r="8.90909" transform="matrix(1 0 0 -1 71 119.818)" fill="#36363F"/>
<circle cx="14" cy="14" r="14" transform="matrix(1 0 0 -1 99.6152 130.1)" fill="#F2F3E5"/>
<circle cx="8.90909" cy="8.90909" r="8.90909" transform="matrix(1 0 0 -1 105 119.818)" fill="#36363F"/>
</g>
<rect x="36" y="190" width="124" height="47" rx="12" fill="#36363F"/>
<path d="M79.9141 223.156C78.3451 223.156 77.2122 222.766 76.5156 221.984C75.8255 221.203 75.4805 219.96 75.4805 218.254V216.574H78.8789V218.723C78.8789 219.12 78.9375 219.432 79.0547 219.66C79.1784 219.882 79.39 219.992 79.6895 219.992C80.002 219.992 80.2168 219.901 80.334 219.719C80.4577 219.536 80.5195 219.237 80.5195 218.82C80.5195 218.293 80.4674 217.854 80.3633 217.502C80.2591 217.144 80.0768 216.805 79.8164 216.486C79.5625 216.161 79.2077 215.783 78.752 215.354L77.209 213.889C76.0566 212.801 75.4805 211.558 75.4805 210.158C75.4805 208.693 75.819 207.577 76.4961 206.809C77.1797 206.04 78.166 205.656 79.4551 205.656C81.0306 205.656 82.1471 206.076 82.8047 206.916C83.4688 207.756 83.8008 209.032 83.8008 210.744H80.3047V209.562C80.3047 209.328 80.2363 209.146 80.0996 209.016C79.9694 208.885 79.7904 208.82 79.5625 208.82C79.2891 208.82 79.0872 208.898 78.957 209.055C78.8333 209.204 78.7715 209.4 78.7715 209.641C78.7715 209.882 78.8366 210.142 78.9668 210.422C79.097 210.702 79.3542 211.024 79.7383 211.389L81.7207 213.293C82.1178 213.671 82.4824 214.071 82.8145 214.494C83.1465 214.911 83.4134 215.399 83.6152 215.959C83.8171 216.512 83.918 217.189 83.918 217.99C83.918 219.605 83.6185 220.871 83.0195 221.789C82.4271 222.701 81.3919 223.156 79.9141 223.156ZM85.0703 223V205.812H89.6113C90.5618 205.812 91.3138 206.024 91.8672 206.447C92.4271 206.87 92.8275 207.473 93.0684 208.254C93.3092 209.035 93.4297 209.966 93.4297 211.047C93.4297 212.089 93.3288 212.997 93.127 213.771C92.9251 214.54 92.5638 215.135 92.043 215.559C91.5286 215.982 90.7962 216.193 89.8457 216.193H88.4492V223H85.0703ZM88.4492 213.107H88.6445C89.2826 213.107 89.6732 212.928 89.8164 212.57C89.9596 212.212 90.0312 211.685 90.0312 210.988C90.0312 210.337 89.9596 209.836 89.8164 209.484C89.6797 209.126 89.3509 208.947 88.8301 208.947H88.4492V213.107ZM98.625 223.156C97.2513 223.156 96.1999 222.743 95.4707 221.916C94.748 221.083 94.3867 219.882 94.3867 218.312V210.148C94.3867 208.677 94.7448 207.561 95.4609 206.799C96.1836 206.037 97.2383 205.656 98.625 205.656C100.012 205.656 101.063 206.037 101.779 206.799C102.502 207.561 102.863 208.677 102.863 210.148V218.312C102.863 219.882 102.499 221.083 101.77 221.916C101.047 222.743 99.9987 223.156 98.625 223.156ZM98.6543 219.992C99.1751 219.992 99.4355 219.488 99.4355 218.479V210.09C99.4355 209.243 99.1816 208.82 98.6738 208.82C98.1009 208.82 97.8145 209.253 97.8145 210.119V218.498C97.8145 219.032 97.8796 219.416 98.0098 219.65C98.14 219.878 98.3548 219.992 98.6543 219.992ZM104.25 223V205.812H109.523C110.402 205.812 111.066 206.014 111.516 206.418C111.965 206.815 112.264 207.375 112.414 208.098C112.57 208.814 112.648 209.657 112.648 210.627C112.648 211.564 112.528 212.313 112.287 212.873C112.053 213.433 111.607 213.82 110.949 214.035C111.49 214.146 111.867 214.416 112.082 214.846C112.303 215.269 112.414 215.819 112.414 216.496V223H109.025V216.271C109.025 215.77 108.921 215.461 108.713 215.344C108.511 215.22 108.182 215.158 107.727 215.158V223H104.25ZM107.746 212.18H108.576C109.051 212.18 109.289 211.662 109.289 210.627C109.289 209.956 109.237 209.517 109.133 209.309C109.029 209.1 108.833 208.996 108.547 208.996H107.746V212.18ZM115.256 223V209.113H113.215V205.812H120.734V209.113H118.693V223H115.256Z" fill="#F2F3E5"/>
<defs>
<clipPath id="clip0_387_10176">
<rect x="37" y="46" width="120" height="120" rx="60" fill="white"/>
</clipPath>
</defs>
</svg>
