<svg width="195" height="245" viewBox="0 0 195 245" fill="none" xmlns="http://www.w3.org/2000/svg">
<rect x="8" y="8" width="179" height="229" rx="20" fill="#49AEE1" stroke="#36363F" stroke-width="16"/>
<g clip-path="url(#clip0_387_10344)">
<rect x="41" y="50" width="112.434" height="112.434" rx="56.2171" fill="#CBD1F5"/>
<path d="M136 198C95.1309 198 62 165.079 62 124.47C84.1375 124.47 102.084 106.638 102.084 84.6408C102.084 76.6076 102.084 69 102.084 69L169.916 69C169.916 69 169.916 76.6076 169.916 84.6408C169.916 106.638 187.863 124.47 210 124.47C210 165.079 176.869 198 136 198Z" fill="#E65800"/>
<circle cx="11.9662" cy="11.9662" r="11.9662" transform="matrix(-1 0 0 1 135.942 83.251)" fill="#F2F3E5"/>
<mask id="mask0_387_10344" style="mask-type:alpha" maskUnits="userSpaceOnUse" x="112" y="83" width="24" height="25">
<circle cx="11.9662" cy="11.9662" r="11.9662" transform="matrix(-1 0 0 1 135.942 83.251)" fill="#F2F3E5"/>
</mask>
<g mask="url(#mask0_387_10344)">
<circle cx="7.61484" cy="7.61484" r="7.61484" transform="matrix(-1 0 0 1 129.549 83.7246)" fill="#36363F"/>
</g>
<circle cx="151.634" cy="95.2171" r="11.9662" fill="#F2F3E5"/>
<circle cx="151.634" cy="95.2171" r="11.9662" fill="#F2F3E5"/>
<mask id="mask1_387_10344" style="mask-type:alpha" maskUnits="userSpaceOnUse" x="139" y="83" width="25" height="25">
<circle cx="151.634" cy="95.2171" r="11.9662" fill="#F2F3E5"/>
</mask>
<g mask="url(#mask1_387_10344)">
<circle cx="155.362" cy="97.7066" r="7.61484" fill="#36363F"/>
</g>
<path d="M55.7286 22C40.4083 22 27.9889 34.4195 27.9889 49.7397C27.9889 50.9819 26.9819 51.9889 25.7397 51.9889C10.4195 51.9889 -2 64.4083 -2 79.7286C-2 95.0489 10.4195 107.468 25.7397 107.468C26.9819 107.468 27.9889 108.475 27.9889 109.717C27.9889 125.038 40.4083 137.457 55.7286 137.457C71.0489 137.457 83.4685 125.038 83.4685 109.717C83.4685 108.475 84.4753 107.468 85.7172 107.468C101.038 107.468 113.457 95.0489 113.457 79.7286C113.457 64.4083 101.038 51.9889 85.7172 51.9889C84.4753 51.9889 83.4685 50.9819 83.4685 49.7397C83.4685 34.4195 71.0489 22 55.7286 22Z" fill="#1A5E36"/>
<circle cx="55.7287" cy="75.7287" r="12.0627" fill="#F2F3E5"/>
<circle cx="59.6045" cy="78.102" r="7.67626" fill="#36363F"/>
<circle cx="84.3605" cy="75.7287" r="12.0627" fill="#F2F3E5"/>
<circle cx="88.2368" cy="78.102" r="7.67626" fill="#36363F"/>
<path d="M78.5714 96.5226C77.3823 97.7117 75.9578 98.639 74.3892 99.245C72.8205 99.851 71.1425 100.122 69.4629 100.042C67.7832 99.9607 66.139 99.5296 64.6358 98.7759C63.1326 98.0221 61.8036 96.9624 60.7341 95.6647L64.1673 92.8353C64.8423 93.6544 65.6811 94.3233 66.6299 94.799C67.5787 95.2748 68.6165 95.5469 69.6766 95.5979C70.7368 95.6489 71.7959 95.4776 72.7859 95.0951C73.776 94.7126 74.6752 94.1274 75.4257 93.3768L78.5714 96.5226Z" fill="#F2F3E5"/>
<path d="M106.315 214.761C101.718 218.101 95.4922 218.101 90.8948 214.761L45.2751 181.616C40.6777 178.276 38.7539 172.355 40.51 166.95L57.9351 113.321C59.6912 107.917 64.7277 104.257 70.4105 104.257L126.799 104.257C132.482 104.257 137.519 107.917 139.275 113.321L156.7 166.95C158.456 172.355 156.532 178.276 151.935 181.616L106.315 214.761Z" fill="#3F50B8"/>
<circle cx="81.6496" cy="128.954" r="13.1173" fill="#F2F3E5"/>
<circle cx="81.6496" cy="128.954" r="13.1173" fill="#F2F3E5"/>
<circle cx="82.1203" cy="124.203" r="8.34739" fill="#36363F"/>
<circle cx="112.785" cy="128.954" r="13.1173" fill="#F2F3E5"/>
<circle cx="113.529" cy="124.203" r="8.34739" fill="#36363F"/>
<circle cx="96.4566" cy="152.504" r="3.48981" fill="#F2F3E5"/>
</g>
<rect x="36" y="190" width="124" height="47" rx="12" fill="#36363F"/>
<path d="M69.084 223V205.812H75.959V209.162H72.541V211.896H75.7832V215.207H72.541V223H69.084ZM77.0723 223V205.812H82.3457C83.2246 205.812 83.8887 206.014 84.3379 206.418C84.7871 206.815 85.0866 207.375 85.2363 208.098C85.3926 208.814 85.4707 209.657 85.4707 210.627C85.4707 211.564 85.3503 212.313 85.1094 212.873C84.875 213.433 84.429 213.82 83.7715 214.035C84.3118 214.146 84.6895 214.416 84.9043 214.846C85.1257 215.269 85.2363 215.819 85.2363 216.496V223H81.8477V216.271C81.8477 215.77 81.7435 215.461 81.5352 215.344C81.3333 215.22 81.0046 215.158 80.5488 215.158V223H77.0723ZM80.5684 212.18H81.3984C81.8737 212.18 82.1113 211.662 82.1113 210.627C82.1113 209.956 82.0592 209.517 81.9551 209.309C81.8509 209.1 81.6556 208.996 81.3691 208.996H80.5684V212.18ZM86.4473 223V205.812H89.7676V223H86.4473ZM91.1348 223V205.812H98.0098V209.133H94.6309V212.482H97.873V215.715H94.6309V219.65H98.2344V223H91.1348ZM99.377 223V205.812H102.912L104.494 214.045V205.812H107.814V223H104.455L102.736 214.406V223H99.377ZM109.338 223V205.812H114.064C115.301 205.812 116.232 206.158 116.857 206.848C117.482 207.531 117.795 208.534 117.795 209.855V217.902C117.795 219.53 117.508 220.786 116.936 221.672C116.369 222.557 115.373 223 113.947 223H109.338ZM112.795 219.963H113.391C114.022 219.963 114.338 219.657 114.338 219.045V210.178C114.338 209.605 114.26 209.237 114.104 209.074C113.954 208.905 113.645 208.82 113.176 208.82H112.795V219.963ZM123.283 223.156C121.714 223.156 120.581 222.766 119.885 221.984C119.195 221.203 118.85 219.96 118.85 218.254V216.574H122.248V218.723C122.248 219.12 122.307 219.432 122.424 219.66C122.548 219.882 122.759 219.992 123.059 219.992C123.371 219.992 123.586 219.901 123.703 219.719C123.827 219.536 123.889 219.237 123.889 218.82C123.889 218.293 123.837 217.854 123.732 217.502C123.628 217.144 123.446 216.805 123.186 216.486C122.932 216.161 122.577 215.783 122.121 215.354L120.578 213.889C119.426 212.801 118.85 211.558 118.85 210.158C118.85 208.693 119.188 207.577 119.865 206.809C120.549 206.04 121.535 205.656 122.824 205.656C124.4 205.656 125.516 206.076 126.174 206.916C126.838 207.756 127.17 209.032 127.17 210.744H123.674V209.562C123.674 209.328 123.605 209.146 123.469 209.016C123.339 208.885 123.16 208.82 122.932 208.82C122.658 208.82 122.456 208.898 122.326 209.055C122.202 209.204 122.141 209.4 122.141 209.641C122.141 209.882 122.206 210.142 122.336 210.422C122.466 210.702 122.723 211.024 123.107 211.389L125.09 213.293C125.487 213.671 125.852 214.071 126.184 214.494C126.516 214.911 126.783 215.399 126.984 215.959C127.186 216.512 127.287 217.189 127.287 217.99C127.287 219.605 126.988 220.871 126.389 221.789C125.796 222.701 124.761 223.156 123.283 223.156Z" fill="#F2F3E5"/>
<defs>
<clipPath id="clip0_387_10344">
<rect x="41" y="50" width="112.434" height="112.434" rx="56.2171" fill="white"/>
</clipPath>
</defs>
</svg>
