<svg width="195" height="245" viewBox="0 0 195 245" fill="none" xmlns="http://www.w3.org/2000/svg">
<rect x="8" y="8" width="179" height="229" rx="20" fill="#C4A3FF" stroke="#36363F" stroke-width="16"/>
<g clip-path="url(#clip0_387_10177)">
<rect x="37" y="46" width="120" height="120" rx="60" fill="#CBD1F5"/>
<rect x="40.2319" y="82" width="18" height="33" rx="4" transform="rotate(19.8993 40.2319 82)" fill="#E65800"/>
<rect width="18" height="33" rx="4" transform="matrix(-0.940292 0.340368 0.340368 0.940292 154.925 85)" fill="#E65800"/>
<path d="M45.0195 97.5L58.03 72.9247C59.634 69.8949 62.7813 68 66.2094 68H96.4999" stroke="#E65800" stroke-width="11.5686"/>
<path d="M147.98 97.5L134.97 72.9247C133.366 69.8949 130.219 68 126.791 68H96.5001" stroke="#E65800" stroke-width="11.5686"/>
<path d="M105.729 199.021C100.822 202.586 94.1778 202.586 89.271 199.021L40.5816 163.646C35.6748 160.081 33.6216 153.762 35.4958 147.994L54.0935 90.7561C55.9678 84.9878 61.3432 81.0823 67.4083 81.0823L127.592 81.0823C133.657 81.0823 139.032 84.9878 140.906 90.7561L159.504 147.994C161.378 153.762 159.325 160.081 154.418 163.646L105.729 199.021Z" fill="#3F50B8"/>
<circle cx="96.5" cy="140.5" r="3.5" fill="#F2F3E5"/>
<circle cx="14" cy="14" r="14" transform="matrix(1 0 0 -1 66.3848 129)" fill="#F2F3E5"/>
<circle cx="8.90909" cy="8.90909" r="8.90909" transform="matrix(1 0 0 -1 71 126.719)" fill="#36363F"/>
<circle cx="14" cy="14" r="14" transform="matrix(1 0 0 -1 99.6152 129)" fill="#F2F3E5"/>
<circle cx="8.90909" cy="8.90909" r="8.90909" transform="matrix(1 0 0 -1 105 126.719)" fill="#36363F"/>
</g>
<rect x="36" y="190" width="124" height="47" rx="12" fill="#36363F"/>
<path d="M57.3379 223L58.998 205.812H64.8281L66.459 223H63.207L62.9629 220.227H60.8926L60.6777 223H57.3379ZM61.1367 217.482H62.6992L61.9473 208.742H61.791L61.1367 217.482ZM67.5137 223V205.812H72.7871C73.666 205.812 74.3301 206.014 74.7793 206.418C75.2285 206.815 75.528 207.375 75.6777 208.098C75.834 208.814 75.9121 209.657 75.9121 210.627C75.9121 211.564 75.7917 212.313 75.5508 212.873C75.3164 213.433 74.8704 213.82 74.2129 214.035C74.7533 214.146 75.1309 214.416 75.3457 214.846C75.5671 215.269 75.6777 215.819 75.6777 216.496V223H72.2891V216.271C72.2891 215.77 72.1849 215.461 71.9766 215.344C71.7747 215.22 71.446 215.158 70.9902 215.158V223H67.5137ZM71.0098 212.18H71.8398C72.3151 212.18 72.5527 211.662 72.5527 210.627C72.5527 209.956 72.5007 209.517 72.3965 209.309C72.2923 209.1 72.097 208.996 71.8105 208.996H71.0098V212.18ZM78.5195 223V209.113H76.4785V205.812H83.998V209.113H81.957V223H78.5195ZM84.4766 223L88.4805 205.744H92.0352L88.0215 223H84.4766ZM93.0605 223V205.812H98.2949L99.7402 216.291L101.176 205.812H106.459V223H103.314V210.617L101.342 223H98.2559L96.166 210.617V223H93.0605ZM111.957 223.156C110.525 223.156 109.47 222.756 108.793 221.955C108.116 221.148 107.777 219.963 107.777 218.4V205.812H111.117V218.264C111.117 218.55 111.133 218.827 111.166 219.094C111.199 219.354 111.273 219.569 111.391 219.738C111.508 219.908 111.697 219.992 111.957 219.992C112.224 219.992 112.416 219.911 112.533 219.748C112.65 219.579 112.722 219.361 112.748 219.094C112.781 218.827 112.797 218.55 112.797 218.264V205.812H116.137V218.4C116.137 219.963 115.798 221.148 115.121 221.955C114.444 222.756 113.389 223.156 111.957 223.156ZM121.537 223.156C119.968 223.156 118.835 222.766 118.139 221.984C117.449 221.203 117.104 219.96 117.104 218.254V216.574H120.502V218.723C120.502 219.12 120.561 219.432 120.678 219.66C120.801 219.882 121.013 219.992 121.312 219.992C121.625 219.992 121.84 219.901 121.957 219.719C122.081 219.536 122.143 219.237 122.143 218.82C122.143 218.293 122.09 217.854 121.986 217.502C121.882 217.144 121.7 216.805 121.439 216.486C121.186 216.161 120.831 215.783 120.375 215.354L118.832 213.889C117.68 212.801 117.104 211.558 117.104 210.158C117.104 208.693 117.442 207.577 118.119 206.809C118.803 206.04 119.789 205.656 121.078 205.656C122.654 205.656 123.77 206.076 124.428 206.916C125.092 207.756 125.424 209.032 125.424 210.744H121.928V209.562C121.928 209.328 121.859 209.146 121.723 209.016C121.592 208.885 121.413 208.82 121.186 208.82C120.912 208.82 120.71 208.898 120.58 209.055C120.456 209.204 120.395 209.4 120.395 209.641C120.395 209.882 120.46 210.142 120.59 210.422C120.72 210.702 120.977 211.024 121.361 211.389L123.344 213.293C123.741 213.671 124.105 214.071 124.438 214.494C124.77 214.911 125.036 215.399 125.238 215.959C125.44 216.512 125.541 217.189 125.541 217.99C125.541 219.605 125.242 220.871 124.643 221.789C124.05 222.701 123.015 223.156 121.537 223.156ZM126.537 223V205.812H129.857V223H126.537ZM135.229 223.156C133.985 223.156 132.982 222.769 132.221 221.994C131.465 221.219 131.088 220.135 131.088 218.742V210.812C131.088 209.146 131.417 207.87 132.074 206.984C132.738 206.099 133.816 205.656 135.307 205.656C136.12 205.656 136.843 205.806 137.475 206.105C138.113 206.405 138.614 206.854 138.979 207.453C139.343 208.046 139.525 208.794 139.525 209.699V212.668H136.107V210.129C136.107 209.615 136.042 209.27 135.912 209.094C135.782 208.911 135.58 208.82 135.307 208.82C134.988 208.82 134.773 208.938 134.662 209.172C134.551 209.4 134.496 209.706 134.496 210.09V218.693C134.496 219.169 134.564 219.504 134.701 219.699C134.844 219.895 135.046 219.992 135.307 219.992C135.6 219.992 135.805 219.872 135.922 219.631C136.046 219.39 136.107 219.077 136.107 218.693V215.598H139.564V218.85C139.564 220.36 139.184 221.457 138.422 222.141C137.66 222.818 136.596 223.156 135.229 223.156Z" fill="#F2F3E5"/>
<defs>
<clipPath id="clip0_387_10177">
<rect x="37" y="46" width="120" height="120" rx="60" fill="white"/>
</clipPath>
</defs>
</svg>
