<svg width="195" height="245" viewBox="0 0 195 245" fill="none" xmlns="http://www.w3.org/2000/svg">
<rect x="8" y="8" width="179" height="229" rx="20" fill="#219653" stroke="#36363F" stroke-width="16"/>
<g clip-path="url(#clip0_387_10004)">
<rect x="37" y="46" width="120" height="120" rx="60" fill="#CBD1F5"/>
<path d="M105.729 181.021C100.822 184.586 94.1778 184.586 89.271 181.021L40.5816 145.646C35.6748 142.081 33.6216 135.762 35.4958 129.994L54.0935 72.7561C55.9678 66.9878 61.3432 63.0823 67.4083 63.0823L127.592 63.0823C133.657 63.0823 139.032 66.9878 140.906 72.7561L159.504 129.994C161.378 135.762 159.325 142.081 154.418 145.646L105.729 181.021Z" fill="#3F50B8"/>
<circle cx="80.3848" cy="97.7188" r="14" fill="#F2F3E5"/>
<circle cx="80.3848" cy="97.7188" r="14" fill="#F2F3E5"/>
<circle cx="79.9091" cy="102.909" r="8.90909" fill="#36363F"/>
<circle cx="113.615" cy="97.7188" r="14" fill="#F2F3E5"/>
<circle cx="113.909" cy="102.909" r="8.90909" fill="#36363F"/>
<path d="M101 119C101 119.525 100.897 120.045 100.696 120.531C100.494 121.016 100.2 121.457 99.8284 121.828C99.457 122.2 99.016 122.494 98.5307 122.696C98.0454 122.897 97.5253 123 97 123C96.4747 123 95.9546 122.897 95.4693 122.696C94.984 122.494 94.543 122.2 94.1716 121.828C93.8001 121.457 93.5055 121.016 93.3045 120.531C93.1035 120.045 93 119.525 93 119L97 119H101Z" fill="#F08B31"/>
<circle cx="114" cy="125" r="9" fill="#F2F3E5"/>
<circle cx="114" cy="125" r="5" fill="#FDDA3C"/>
<circle cx="130" cy="127" r="7" fill="#219653"/>
<path d="M47.0366 86.1738L50.3942 83.9998L86 140.5L85 141.5L47.0366 86.1738Z" fill="#FDDA3C"/>
<path d="M41 92.6299L44.0141 90.0002L87.2974 140.859L86.4499 141.991L41 92.6299Z" fill="#FDDA3C"/>
<rect x="40" y="127" width="117" height="57" fill="#E65800"/>
<rect x="91" y="117" width="12" height="2" fill="#384078"/>
<line x1="43.3536" y1="57.3536" x2="37.3536" y2="63.3536" stroke="#1F1F25"/>
</g>
<rect x="36" y="190" width="124" height="47" rx="12" fill="#36363F"/>
<path d="M49.3301 223L50.9902 205.812H56.8203L58.4512 223H55.1992L54.9551 220.227H52.8848L52.6699 223H49.3301ZM53.1289 217.482H54.6914L53.9395 208.742H53.7832L53.1289 217.482ZM67.7383 223.156C65.2839 223.156 64.0566 221.398 64.0566 217.883V210.471C64.0566 207.261 65.4629 205.656 68.2754 205.656C69.4342 205.656 70.3229 205.891 70.9414 206.359C71.5599 206.822 71.9863 207.499 72.2207 208.391C72.4551 209.283 72.5723 210.37 72.5723 211.652H69.2129V210.129C69.2129 209.758 69.1608 209.449 69.0566 209.201C68.959 208.947 68.7507 208.82 68.4316 208.82C68.0345 208.82 67.7708 208.954 67.6406 209.221C67.5169 209.488 67.4551 209.781 67.4551 210.1V218.43C67.4551 218.892 67.5137 219.27 67.6309 219.562C67.7546 219.849 67.9922 219.992 68.3438 219.992C68.7083 219.992 68.9492 219.849 69.0664 219.562C69.1901 219.27 69.252 218.885 69.252 218.41V215.959H68.334V212.99H72.5332V223H71.1562L70.5703 221.555C69.9714 222.622 69.0273 223.156 67.7383 223.156ZM78.002 223.156C76.6283 223.156 75.5768 222.743 74.8477 221.916C74.125 221.083 73.7637 219.882 73.7637 218.312V210.148C73.7637 208.677 74.1217 207.561 74.8379 206.799C75.5605 206.037 76.6152 205.656 78.002 205.656C79.3887 205.656 80.4401 206.037 81.1562 206.799C81.8789 207.561 82.2402 208.677 82.2402 210.148V218.312C82.2402 219.882 81.8757 221.083 81.1465 221.916C80.4238 222.743 79.3757 223.156 78.002 223.156ZM78.0312 219.992C78.5521 219.992 78.8125 219.488 78.8125 218.479V210.09C78.8125 209.243 78.5586 208.82 78.0508 208.82C77.4779 208.82 77.1914 209.253 77.1914 210.119V218.498C77.1914 219.032 77.2565 219.416 77.3867 219.65C77.5169 219.878 77.7318 219.992 78.0312 219.992ZM87.7285 223.156C86.3548 223.156 85.3034 222.743 84.5742 221.916C83.8516 221.083 83.4902 219.882 83.4902 218.312V210.148C83.4902 208.677 83.8483 207.561 84.5645 206.799C85.2871 206.037 86.3418 205.656 87.7285 205.656C89.1152 205.656 90.1667 206.037 90.8828 206.799C91.6055 207.561 91.9668 208.677 91.9668 210.148V218.312C91.9668 219.882 91.6022 221.083 90.873 221.916C90.1504 222.743 89.1022 223.156 87.7285 223.156ZM87.7578 219.992C88.2786 219.992 88.5391 219.488 88.5391 218.479V210.09C88.5391 209.243 88.2852 208.82 87.7773 208.82C87.2044 208.82 86.918 209.253 86.918 210.119V218.498C86.918 219.032 86.9831 219.416 87.1133 219.65C87.2435 219.878 87.4583 219.992 87.7578 219.992ZM93.3535 223V205.812H98.0801C99.3171 205.812 100.248 206.158 100.873 206.848C101.498 207.531 101.811 208.534 101.811 209.855V217.902C101.811 219.53 101.524 220.786 100.951 221.672C100.385 222.557 99.3887 223 97.9629 223H93.3535ZM96.8105 219.963H97.4062C98.0378 219.963 98.3535 219.657 98.3535 219.045V210.178C98.3535 209.605 98.2754 209.237 98.1191 209.074C97.9694 208.905 97.6602 208.82 97.1914 208.82H96.8105V219.963ZM107.904 223V205.812H113.139L114.584 216.291L116.02 205.812H121.303V223H118.158V210.617L116.186 223H113.1L111.01 210.617V223H107.904ZM122.826 223V205.812H129.701V209.133H126.322V212.482H129.564V215.715H126.322V219.65H129.926V223H122.826ZM130.6 223L132.26 205.812H138.09L139.721 223H136.469L136.225 220.227H134.154L133.939 223H130.6ZM134.398 217.482H135.961L135.209 208.742H135.053L134.398 217.482ZM140.775 223V205.812H144.213V220.07H147.748V223H140.775Z" fill="#F2F3E5"/>
<defs>
<clipPath id="clip0_387_10004">
<rect x="37" y="46" width="120" height="120" rx="60" fill="white"/>
</clipPath>
</defs>
</svg>
