<svg width="195" height="245" viewBox="0 0 195 245" fill="none" xmlns="http://www.w3.org/2000/svg">
<rect x="8" y="8" width="179" height="229" rx="20" fill="#C4A3FF" stroke="#36363F" stroke-width="16"/>
<g clip-path="url(#clip0_387_10178)">
<rect x="37" y="46" width="120" height="120" rx="60" fill="#49AEE1"/>
<path d="M39.7286 41C24.4083 41 11.9889 53.4195 11.9889 68.7397C11.9889 69.9819 10.9819 70.9889 9.73969 70.9889C-5.58052 70.9889 -18 83.4083 -18 98.7286C-18 114.049 -5.58052 126.468 9.73969 126.468C10.9819 126.468 11.9889 127.475 11.9889 128.717C11.9889 144.038 24.4083 156.457 39.7286 156.457C55.0489 156.457 67.4685 144.038 67.4685 128.717C67.4685 127.475 68.4753 126.468 69.7172 126.468C85.0376 126.468 97.4572 114.049 97.4572 98.7286C97.4572 83.4083 85.0376 70.9889 69.7172 70.9889C68.4753 70.9889 67.4685 69.9819 67.4685 68.7397C67.4685 53.4195 55.0489 41 39.7286 41Z" fill="#1A5E36"/>
<circle cx="39.7287" cy="94.7287" r="12.0627" fill="#F2F3E5"/>
<circle cx="43.6045" cy="97.102" r="7.67626" fill="#36363F"/>
<circle cx="68.3605" cy="94.7287" r="12.0627" fill="#F2F3E5"/>
<circle cx="72.2368" cy="97.102" r="7.67626" fill="#36363F"/>
<path d="M62.5714 115.523C61.3823 116.712 59.9578 117.639 58.3892 118.245C56.8205 118.851 55.1425 119.122 53.4629 119.042C51.7832 118.961 50.139 118.53 48.6358 117.776C47.1326 117.022 45.8036 115.962 44.7341 114.665L48.1673 111.835C48.8423 112.654 49.6811 113.323 50.6299 113.799C51.5787 114.275 52.6165 114.547 53.6766 114.598C54.7368 114.649 55.7959 114.478 56.7859 114.095C57.776 113.713 58.6752 113.127 59.4257 112.377L62.5714 115.523Z" fill="#F2F3E5"/>
<path d="M177.212 163.339C173.593 166.316 168.66 167.136 164.272 165.491L118.361 148.269C113.973 146.623 110.797 142.762 110.028 138.139L101.987 89.7679C101.218 85.145 102.975 80.4632 106.594 77.4862L144.463 46.3367C148.083 43.3597 153.015 42.5397 157.403 44.1856L203.314 61.4069C207.702 63.0528 210.879 66.9146 211.647 71.5375L219.688 119.908C220.457 124.531 218.701 129.213 215.082 132.19L177.212 163.339Z" fill="#3F50B8"/>
<path d="M152.591 115.592C151.402 116.781 149.977 117.708 148.409 118.314C146.84 118.92 145.162 119.192 143.482 119.111C141.803 119.03 140.159 118.599 138.655 117.845C137.152 117.091 135.823 116.032 134.754 114.734L138.187 111.905C138.862 112.724 139.701 113.393 140.649 113.868C141.598 114.344 142.636 114.616 143.696 114.667C144.756 114.718 145.815 114.547 146.805 114.164C147.796 113.782 148.695 113.197 149.445 112.446L152.591 115.592Z" fill="#F2F3E5"/>
<circle cx="127.226" cy="93.1183" r="13.1173" fill="#F2F3E5"/>
<circle cx="127.226" cy="93.1183" r="13.1173" fill="#F2F3E5"/>
<circle cx="122.347" cy="94.3484" r="8.34739" fill="#36363F"/>
<circle cx="156.226" cy="89.1183" r="13.1173" fill="#F2F3E5"/>
<circle cx="156.226" cy="89.1183" r="13.1173" fill="#F2F3E5"/>
<circle cx="151.347" cy="90.3484" r="8.34739" fill="#36363F"/>
</g>
<rect x="36" y="190" width="124" height="47" rx="12" fill="#36363F"/>
<path d="M52.3574 223L54.0176 205.812H59.8477L61.4785 223H58.2266L57.9824 220.227H55.9121L55.6973 223H52.3574ZM56.1562 217.482H57.7188L56.9668 208.742H56.8105L56.1562 217.482ZM70.7656 223.156C68.3112 223.156 67.084 221.398 67.084 217.883V210.471C67.084 207.261 68.4902 205.656 71.3027 205.656C72.4616 205.656 73.3503 205.891 73.9688 206.359C74.5872 206.822 75.0137 207.499 75.248 208.391C75.4824 209.283 75.5996 210.37 75.5996 211.652H72.2402V210.129C72.2402 209.758 72.1882 209.449 72.084 209.201C71.9863 208.947 71.778 208.82 71.459 208.82C71.0618 208.82 70.7982 208.954 70.668 209.221C70.5443 209.488 70.4824 209.781 70.4824 210.1V218.43C70.4824 218.892 70.541 219.27 70.6582 219.562C70.7819 219.849 71.0195 219.992 71.3711 219.992C71.7357 219.992 71.9766 219.849 72.0938 219.562C72.2174 219.27 72.2793 218.885 72.2793 218.41V215.959H71.3613V212.99H75.5605V223H74.1836L73.5977 221.555C72.9987 222.622 72.0547 223.156 70.7656 223.156ZM81.0293 223.156C79.6556 223.156 78.6042 222.743 77.875 221.916C77.1523 221.083 76.791 219.882 76.791 218.312V210.148C76.791 208.677 77.1491 207.561 77.8652 206.799C78.5879 206.037 79.6426 205.656 81.0293 205.656C82.416 205.656 83.4674 206.037 84.1836 206.799C84.9062 207.561 85.2676 208.677 85.2676 210.148V218.312C85.2676 219.882 84.903 221.083 84.1738 221.916C83.4512 222.743 82.403 223.156 81.0293 223.156ZM81.0586 219.992C81.5794 219.992 81.8398 219.488 81.8398 218.479V210.09C81.8398 209.243 81.5859 208.82 81.0781 208.82C80.5052 208.82 80.2188 209.253 80.2188 210.119V218.498C80.2188 219.032 80.2839 219.416 80.4141 219.65C80.5443 219.878 80.7591 219.992 81.0586 219.992ZM90.7559 223.156C89.3822 223.156 88.3307 222.743 87.6016 221.916C86.8789 221.083 86.5176 219.882 86.5176 218.312V210.148C86.5176 208.677 86.8757 207.561 87.5918 206.799C88.3145 206.037 89.3691 205.656 90.7559 205.656C92.1426 205.656 93.194 206.037 93.9102 206.799C94.6328 207.561 94.9941 208.677 94.9941 210.148V218.312C94.9941 219.882 94.6296 221.083 93.9004 221.916C93.1777 222.743 92.1296 223.156 90.7559 223.156ZM90.7852 219.992C91.306 219.992 91.5664 219.488 91.5664 218.479V210.09C91.5664 209.243 91.3125 208.82 90.8047 208.82C90.2318 208.82 89.9453 209.253 89.9453 210.119V218.498C89.9453 219.032 90.0104 219.416 90.1406 219.65C90.2708 219.878 90.4857 219.992 90.7852 219.992ZM96.3809 223V205.812H101.107C102.344 205.812 103.275 206.158 103.9 206.848C104.525 207.531 104.838 208.534 104.838 209.855V217.902C104.838 219.53 104.551 220.786 103.979 221.672C103.412 222.557 102.416 223 100.99 223H96.3809ZM99.8379 219.963H100.434C101.065 219.963 101.381 219.657 101.381 219.045V210.178C101.381 209.605 101.303 209.237 101.146 209.074C100.997 208.905 100.688 208.82 100.219 208.82H99.8379V219.963ZM112.406 223V209.113H110.365V205.812H117.885V209.113H115.844V223H112.406ZM118.119 223L119.779 205.812H125.609L127.24 223H123.988L123.744 220.227H121.674L121.459 223H118.119ZM121.918 217.482H123.48L122.729 208.742H122.572L121.918 217.482ZM128.295 223V205.812H131.732V220.07H135.268V223H128.295ZM136.244 223V205.812H139.643V212.697L141.244 205.812H144.701L142.777 213.684L145.102 223H141.537L139.662 214.68V223H136.244Z" fill="#F2F3E5"/>
<defs>
<clipPath id="clip0_387_10178">
<rect x="37" y="46" width="120" height="120" rx="60" fill="white"/>
</clipPath>
</defs>
</svg>
