<svg width="195" height="245" viewBox="0 0 195 245" fill="none" xmlns="http://www.w3.org/2000/svg">
<rect x="8" y="8" width="179" height="229" rx="20" fill="#219653" stroke="#36363F" stroke-width="16"/>
<g clip-path="url(#clip0_387_10002)">
<rect x="38" y="46" width="120" height="120" rx="60" fill="#CBD1F5"/>
<path d="M106.729 189.021C101.822 192.586 95.1778 192.586 90.271 189.021L41.5816 153.646C36.6748 150.081 34.6216 143.762 36.4958 137.994L55.0935 80.7561C56.9678 74.9878 62.3432 71.0823 68.4083 71.0823L128.592 71.0823C134.657 71.0823 140.032 74.9878 141.906 80.7561L160.504 137.994C162.378 143.762 160.325 150.081 155.418 153.646L106.729 189.021Z" fill="#3F50B8"/>
<path d="M95.3848 102C95.3848 103.839 95.0226 105.659 94.3191 107.358C93.6155 109.056 92.5843 110.599 91.2843 111.899C89.9842 113.2 88.4409 114.231 86.7423 114.934C85.0438 115.638 83.2233 116 81.3848 116C79.5463 116 77.7258 115.638 76.0272 114.934C74.3286 114.231 72.7853 113.2 71.4853 111.899C70.1852 110.599 69.154 109.056 68.4505 107.358C67.7469 105.659 67.3848 103.839 67.3848 102L81.3848 102H95.3848Z" fill="#384078"/>
<path d="M128.615 102C128.615 103.839 128.253 105.659 127.55 107.358C126.846 109.056 125.815 110.599 124.515 111.899C123.215 113.2 121.671 114.231 119.973 114.934C118.274 115.638 116.454 116 114.615 116C112.777 116 110.956 115.638 109.258 114.934C107.559 114.231 106.016 113.2 104.716 111.899C103.416 110.599 102.384 109.056 101.681 107.358C100.977 105.659 100.615 103.839 100.615 102L114.615 102H128.615Z" fill="#384078"/>
<circle cx="98" cy="134" r="4" fill="#F2F3E5"/>
<path d="M104.711 85V81.875L108.646 70.9766H105.092V67.8125H112.27V70.8203L108.266 81.8359H112.104V85H104.711Z" fill="#F2F3E5"/>
<path d="M113.711 77V73.875L117.646 62.9766H114.092V59.8125H121.27V62.8203L117.266 73.8359H121.104V77H113.711Z" fill="#F2F3E5"/>
<path d="M122.711 81V77.875L126.646 66.9766H123.092V63.8125H130.27V66.8203L126.266 77.8359H130.104V81H122.711Z" fill="#F2F3E5"/>
</g>
<rect x="36" y="190" width="124" height="47" rx="12" fill="#36363F"/>
<path d="M47.6777 223L49.3379 205.812H55.168L56.7988 223H53.5469L53.3027 220.227H51.2324L51.0176 223H47.6777ZM51.4766 217.482H53.0391L52.2871 208.742H52.1309L51.4766 217.482ZM66.0859 223.156C63.6315 223.156 62.4043 221.398 62.4043 217.883V210.471C62.4043 207.261 63.8105 205.656 66.623 205.656C67.7819 205.656 68.6706 205.891 69.2891 206.359C69.9076 206.822 70.334 207.499 70.5684 208.391C70.8027 209.283 70.9199 210.37 70.9199 211.652H67.5605V210.129C67.5605 209.758 67.5085 209.449 67.4043 209.201C67.3066 208.947 67.0983 208.82 66.7793 208.82C66.3822 208.82 66.1185 208.954 65.9883 209.221C65.8646 209.488 65.8027 209.781 65.8027 210.1V218.43C65.8027 218.892 65.8613 219.27 65.9785 219.562C66.1022 219.849 66.3398 219.992 66.6914 219.992C67.056 219.992 67.2969 219.849 67.4141 219.562C67.5378 219.27 67.5996 218.885 67.5996 218.41V215.959H66.6816V212.99H70.8809V223H69.5039L68.918 221.555C68.319 222.622 67.375 223.156 66.0859 223.156ZM76.3496 223.156C74.9759 223.156 73.9245 222.743 73.1953 221.916C72.4727 221.083 72.1113 219.882 72.1113 218.312V210.148C72.1113 208.677 72.4694 207.561 73.1855 206.799C73.9082 206.037 74.9629 205.656 76.3496 205.656C77.7363 205.656 78.7878 206.037 79.5039 206.799C80.2266 207.561 80.5879 208.677 80.5879 210.148V218.312C80.5879 219.882 80.2233 221.083 79.4941 221.916C78.7715 222.743 77.7233 223.156 76.3496 223.156ZM76.3789 219.992C76.8997 219.992 77.1602 219.488 77.1602 218.479V210.09C77.1602 209.243 76.9062 208.82 76.3984 208.82C75.8255 208.82 75.5391 209.253 75.5391 210.119V218.498C75.5391 219.032 75.6042 219.416 75.7344 219.65C75.8646 219.878 76.0794 219.992 76.3789 219.992ZM86.0762 223.156C84.7025 223.156 83.651 222.743 82.9219 221.916C82.1992 221.083 81.8379 219.882 81.8379 218.312V210.148C81.8379 208.677 82.196 207.561 82.9121 206.799C83.6348 206.037 84.6895 205.656 86.0762 205.656C87.4629 205.656 88.5143 206.037 89.2305 206.799C89.9531 207.561 90.3145 208.677 90.3145 210.148V218.312C90.3145 219.882 89.9499 221.083 89.2207 221.916C88.498 222.743 87.4499 223.156 86.0762 223.156ZM86.1055 219.992C86.6263 219.992 86.8867 219.488 86.8867 218.479V210.09C86.8867 209.243 86.6328 208.82 86.125 208.82C85.5521 208.82 85.2656 209.253 85.2656 210.119V218.498C85.2656 219.032 85.3307 219.416 85.4609 219.65C85.5911 219.878 85.806 219.992 86.1055 219.992ZM91.7012 223V205.812H96.4277C97.6647 205.812 98.5957 206.158 99.2207 206.848C99.8457 207.531 100.158 208.534 100.158 209.855V217.902C100.158 219.53 99.8717 220.786 99.2988 221.672C98.7324 222.557 97.7363 223 96.3105 223H91.7012ZM95.1582 219.963H95.7539C96.3854 219.963 96.7012 219.657 96.7012 219.045V210.178C96.7012 209.605 96.623 209.237 96.4668 209.074C96.3171 208.905 96.0078 208.82 95.5391 208.82H95.1582V219.963ZM110.334 223.156C108.765 223.156 107.632 222.766 106.936 221.984C106.245 221.203 105.9 219.96 105.9 218.254V216.574H109.299V218.723C109.299 219.12 109.357 219.432 109.475 219.66C109.598 219.882 109.81 219.992 110.109 219.992C110.422 219.992 110.637 219.901 110.754 219.719C110.878 219.536 110.939 219.237 110.939 218.82C110.939 218.293 110.887 217.854 110.783 217.502C110.679 217.144 110.497 216.805 110.236 216.486C109.982 216.161 109.628 215.783 109.172 215.354L107.629 213.889C106.477 212.801 105.9 211.558 105.9 210.158C105.9 208.693 106.239 207.577 106.916 206.809C107.6 206.04 108.586 205.656 109.875 205.656C111.451 205.656 112.567 206.076 113.225 206.916C113.889 207.756 114.221 209.032 114.221 210.744H110.725V209.562C110.725 209.328 110.656 209.146 110.52 209.016C110.389 208.885 110.21 208.82 109.982 208.82C109.709 208.82 109.507 208.898 109.377 209.055C109.253 209.204 109.191 209.4 109.191 209.641C109.191 209.882 109.257 210.142 109.387 210.422C109.517 210.702 109.774 211.024 110.158 211.389L112.141 213.293C112.538 213.671 112.902 214.071 113.234 214.494C113.566 214.911 113.833 215.399 114.035 215.959C114.237 216.512 114.338 217.189 114.338 217.99C114.338 219.605 114.038 220.871 113.439 221.789C112.847 222.701 111.812 223.156 110.334 223.156ZM115.49 223V205.812H118.928V220.07H122.463V223H115.49ZM123.439 223V205.812H130.314V209.133H126.936V212.482H130.178V215.715H126.936V219.65H130.539V223H123.439ZM131.682 223V205.812H138.557V209.133H135.178V212.482H138.42V215.715H135.178V219.65H138.781V223H131.682ZM139.924 223V205.812H144.465C145.415 205.812 146.167 206.024 146.721 206.447C147.281 206.87 147.681 207.473 147.922 208.254C148.163 209.035 148.283 209.966 148.283 211.047C148.283 212.089 148.182 212.997 147.98 213.771C147.779 214.54 147.417 215.135 146.896 215.559C146.382 215.982 145.65 216.193 144.699 216.193H143.303V223H139.924ZM143.303 213.107H143.498C144.136 213.107 144.527 212.928 144.67 212.57C144.813 212.212 144.885 211.685 144.885 210.988C144.885 210.337 144.813 209.836 144.67 209.484C144.533 209.126 144.204 208.947 143.684 208.947H143.303V213.107Z" fill="#F2F3E5"/>
<defs>
<clipPath id="clip0_387_10002">
<rect x="38" y="46" width="120" height="120" rx="60" fill="white"/>
</clipPath>
</defs>
</svg>
