<svg width="195" height="245" viewBox="0 0 195 245" fill="none" xmlns="http://www.w3.org/2000/svg">
<rect x="8" y="8" width="179" height="229" rx="20" fill="#49AEE1" stroke="none"/>
<g clip-path="url(#clip0_40000220_7193)">
<rect x="41" y="50" width="112.434" height="112.434" rx="56.2171" fill="#CBD1F5"/>
<path d="M136 198C95.1309 198 62 165.079 62 124.47C84.1375 124.47 102.084 106.638 102.084 84.6408C102.084 76.6076 102.084 69 102.084 69L169.916 69C169.916 69 169.916 76.6076 169.916 84.6408C169.916 106.638 187.863 124.47 210 124.47C210 165.079 176.869 198 136 198Z" fill="#E65800"/>
<circle cx="11.9662" cy="11.9662" r="11.9662" transform="matrix(-1 0 0 1 135.942 83.251)" fill="#F2F3E5"/>
<mask id="mask0_40000220_7193" style="mask-type:alpha" maskUnits="userSpaceOnUse" x="112" y="83" width="24" height="25">
<circle cx="11.9662" cy="11.9662" r="11.9662" transform="matrix(-1 0 0 1 135.942 83.251)" fill="#F2F3E5"/>
</mask>
<g mask="url(#mask0_40000220_7193)">
<circle cx="7.61484" cy="7.61484" r="7.61484" transform="matrix(-1 0 0 1 129.55 83.7246)" fill="#36363F"/>
</g>
<circle cx="151.634" cy="95.2171" r="11.9662" fill="#F2F3E5"/>
<circle cx="151.634" cy="95.2171" r="11.9662" fill="#F2F3E5"/>
<mask id="mask1_40000220_7193" style="mask-type:alpha" maskUnits="userSpaceOnUse" x="139" y="83" width="25" height="25">
<circle cx="151.634" cy="95.2171" r="11.9662" fill="#F2F3E5"/>
</mask>
<g mask="url(#mask1_40000220_7193)">
<circle cx="155.363" cy="97.7066" r="7.61484" fill="#36363F"/>
</g>
<path d="M55.7286 22C40.4083 22 27.9889 34.4195 27.9889 49.7397C27.9889 50.9819 26.9819 51.9889 25.7397 51.9889C10.4195 51.9889 -2 64.4083 -2 79.7286C-2 95.0489 10.4195 107.468 25.7397 107.468C26.9819 107.468 27.9889 108.475 27.9889 109.717C27.9889 125.038 40.4083 137.457 55.7286 137.457C71.0489 137.457 83.4685 125.038 83.4685 109.717C83.4685 108.475 84.4753 107.468 85.7172 107.468C101.038 107.468 113.457 95.0489 113.457 79.7286C113.457 64.4083 101.038 51.9889 85.7172 51.9889C84.4753 51.9889 83.4685 50.9819 83.4685 49.7397C83.4685 34.4195 71.0489 22 55.7286 22Z" fill="#1A5E36"/>
<circle cx="55.7287" cy="75.7287" r="12.0627" fill="#F2F3E5"/>
<circle cx="59.604" cy="78.102" r="7.67626" fill="#36363F"/>
<circle cx="84.3605" cy="75.7287" r="12.0627" fill="#F2F3E5"/>
<circle cx="88.2368" cy="78.102" r="7.67626" fill="#36363F"/>
<path d="M78.5714 96.5226C77.3823 97.7117 75.9578 98.639 74.3892 99.245C72.8205 99.851 71.1425 100.122 69.4629 100.042C67.7832 99.9607 66.139 99.5296 64.6358 98.7759C63.1326 98.0221 61.8036 96.9624 60.7341 95.6647L64.1673 92.8353C64.8423 93.6544 65.6811 94.3233 66.6299 94.799C67.5787 95.2748 68.6165 95.5469 69.6766 95.5979C70.7368 95.6489 71.7959 95.4776 72.7859 95.0951C73.776 94.7126 74.6752 94.1274 75.4257 93.3768L78.5714 96.5226Z" fill="#F2F3E5"/>
<path d="M106.315 214.761C101.718 218.101 95.4922 218.101 90.8948 214.761L45.2751 181.616C40.6777 178.276 38.7539 172.355 40.51 166.95L57.9351 113.321C59.6912 107.917 64.7277 104.257 70.4105 104.257L126.799 104.257C132.482 104.257 137.519 107.917 139.275 113.321L156.7 166.95C158.456 172.355 156.532 178.276 151.935 181.616L106.315 214.761Z" fill="#3F50B8"/>
<circle cx="81.6496" cy="128.954" r="13.1173" fill="#F2F3E5"/>
<circle cx="81.6496" cy="128.954" r="13.1173" fill="#F2F3E5"/>
<circle cx="82.1199" cy="124.203" r="8.34739" fill="#36363F"/>
<circle cx="112.785" cy="128.954" r="13.1173" fill="#F2F3E5"/>
<circle cx="113.529" cy="124.203" r="8.34739" fill="#36363F"/>
<circle cx="96.4566" cy="152.504" r="3.48981" fill="#F2F3E5"/>
</g>
<defs>
<clipPath id="clip0_40000220_7193">
<rect x="41" y="50" width="112.434" height="112.434" rx="56.2171" fill="white"/>
</clipPath>
</defs>
</svg>
