<svg width="316" height="485" viewBox="0 0 316 485" fill="none" xmlns="http://www.w3.org/2000/svg">
<g clip-path="url(#clip0_40000718_29769)">
<rect width="315.333" height="485" rx="20" fill="#FEF5CC"/>
<path d="M277.989 552.318C195.245 600.091 89.5041 571.853 41.8117 489.247C86.632 463.37 102.023 406.119 76.1898 361.374C66.7555 345.033 57.821 329.558 57.821 329.558L195.157 250.267C195.157 250.267 204.092 265.742 213.526 282.083C239.36 326.828 296.637 342.124 341.457 316.247C389.149 398.853 360.734 504.546 277.989 552.318Z" fill="#FDDA3C"/>
<path opacity="0.3" d="M42.667 -75.5879C138.212 -75.5879 215.667 1.73738 215.667 97.1221C163.913 97.1221 121.958 139.007 121.958 190.675C121.958 209.543 121.958 227.412 121.958 227.412H-36.6241C-36.6241 227.412 -36.6241 209.543 -36.6241 190.675C-36.6241 139.007 -78.5795 97.1221 -130.333 97.1221C-130.333 1.73738 -52.8787 -75.5879 42.667 -75.5879Z" fill="#FDDA3C"/>
<rect x="254.667" y="12.4121" width="48" height="48" rx="8" fill="#36363F"/>
<path d="M278.667 30.1859C280.625 28.4288 283.65 28.4871 285.535 30.3766C287.421 32.266 287.486 35.2763 285.732 37.2396L278.666 44.3163L271.601 37.2396C269.847 35.2763 269.913 32.2613 271.797 30.3766C273.684 28.4897 276.704 28.4262 278.667 30.1859ZM284.356 31.5539C283.106 30.3021 281.089 30.2513 279.781 31.4262L278.668 32.4248L277.555 31.427C276.242 30.2504 274.229 30.3022 272.976 31.5551C271.735 32.7965 271.672 34.7849 272.816 36.0981L278.666 41.9574L284.516 36.0981C285.661 34.7844 285.599 32.7998 284.356 31.5539Z" fill="#0F0F0F"/>
</g>
<defs>
<clipPath id="clip0_40000718_29769">
<rect width="315.333" height="485" rx="20" fill="white"/>
</clipPath>
</defs>
</svg>
