<svg width="316" height="485" viewBox="0 0 316 485" fill="none" xmlns="http://www.w3.org/2000/svg">
<g clip-path="url(#clip0_40000718_29774)">
<rect width="315.333" height="485" rx="20" fill="#F7DDC6"/>
<path d="M225.591 158.472C171.458 130.273 104.714 151.296 76.5139 205.429C48.3137 259.564 69.3375 326.307 123.471 354.507C69.3375 326.307 2.59359 347.33 -25.6067 401.464C-53.8069 455.598 -32.7831 522.342 21.3503 550.541C75.4845 578.742 142.228 557.719 170.428 503.584C142.228 557.719 163.251 624.462 217.385 652.662C271.519 680.862 338.262 659.839 366.462 605.705C394.663 551.571 373.64 484.828 319.505 456.627C373.64 484.828 440.383 463.805 468.583 409.671C496.783 355.537 475.76 288.793 421.626 260.593C367.492 232.393 300.748 253.417 272.548 307.55C300.748 253.417 279.726 186.673 225.591 158.472Z" fill="#F08B31"/>
<path opacity="0.3" d="M88.3419 -158.764C47.805 -179.881 -2.17532 -164.138 -23.2923 -123.601C-44.4095 -83.064 -28.6662 -33.0843 11.8706 -11.9673C-28.6662 -33.0843 -78.6462 -17.3419 -99.7635 23.1956C-120.881 63.7331 -105.137 113.713 -64.6006 134.83C-24.0631 155.947 25.9163 140.204 47.0335 99.6668C25.9163 140.204 41.6589 190.184 82.1964 211.301C122.734 232.418 172.713 216.676 193.831 176.138C214.948 135.601 199.205 85.6212 158.668 64.5039C199.205 85.6212 249.185 69.8785 270.302 29.341C291.419 -11.1958 275.676 -61.1758 235.139 -82.2931C194.601 -103.41 144.622 -87.6671 123.505 -47.1302C144.622 -87.6671 128.879 -137.647 88.3419 -158.764Z" fill="#F08B31"/>
<rect x="255.333" y="12.4121" width="48" height="48" rx="8" fill="#36363F"/>
<path d="M279.334 30.1859C281.292 28.4288 284.317 28.4871 286.202 30.3766C288.088 32.266 288.152 35.2763 286.399 37.2396L279.333 44.3163L272.268 37.2396C270.514 35.2763 270.58 32.2613 272.464 30.3766C274.351 28.4897 277.371 28.4262 279.334 30.1859ZM285.022 31.5539C283.773 30.3021 281.756 30.2513 280.447 31.4262L279.335 32.4248L278.222 31.427C276.909 30.2504 274.896 30.3022 273.643 31.5551C272.402 32.7965 272.339 34.7849 273.483 36.0981L279.333 41.9574L285.183 36.0981C286.328 34.7844 286.266 32.7998 285.022 31.5539Z" fill="#0F0F0F"/>
</g>
<defs>
<clipPath id="clip0_40000718_29774">
<rect width="315.333" height="485" rx="20" fill="white"/>
</clipPath>
</defs>
</svg>
