<svg width="481" height="485" viewBox="0 0 481 485" fill="none" xmlns="http://www.w3.org/2000/svg">
<g clip-path="url(#clip0_40000299_19234)">
<rect width="481" height="485" rx="20" fill="#F8D9D0"/>
<path d="M46 145.412L101.908 275.461L208.706 182.549L202.652 323.977L339.187 286.603L272.368 411.399L411.598 436.967L297.25 520.412L411.598 603.857L272.368 629.425L339.187 754.221L202.652 716.847L208.706 858.275L101.908 765.363L46 895.412L-9.90839 765.363L-116.706 858.275L-110.652 716.847L-247.187 754.221L-180.368 629.425L-319.598 603.857L-205.25 520.412L-319.598 436.967L-180.368 411.399L-247.187 286.603L-110.652 323.977L-116.706 182.549L-9.90839 275.461L46 145.412Z" fill="#E65800"/>
<path opacity="0.2" d="M393 -146.588L419.24 -85.5514L469.364 -129.158L466.522 -62.7815L530.602 -80.3221L499.242 -21.7515L564.587 -9.75157L510.92 29.4121L564.587 68.5758L499.242 80.5757L530.602 139.146L466.522 121.606L469.364 187.983L419.24 144.376L393 205.412L366.76 144.376L316.636 187.983L319.478 121.606L255.398 139.146L286.758 80.5757L221.413 68.5758L275.08 29.4121L221.413 -9.75157L286.758 -21.7515L255.398 -80.3221L319.478 -62.7815L316.636 -129.158L366.76 -85.5514L393 -146.588Z" fill="#E65800"/>
<rect x="421" y="12.4121" width="48" height="48" rx="8" fill="#36363F"/>
<path d="M445.001 30.1859C446.959 28.4288 449.984 28.4871 451.869 30.3766C453.755 32.266 453.819 35.2763 452.066 37.2396L445 44.3163L437.935 37.2396C436.181 35.2763 436.247 32.2613 438.131 30.3766C440.018 28.4897 443.038 28.4262 445.001 30.1859Z" fill="#0F0F0F"/>
</g>
<defs>
<clipPath id="clip0_40000299_19234">
<rect width="481" height="485" rx="20" fill="white"/>
</clipPath>
</defs>
</svg>
