<svg width="316" height="485" viewBox="0 0 316 485" fill="none" xmlns="http://www.w3.org/2000/svg">
<g clip-path="url(#clip0_40000718_29764)">
<rect width="315.333" height="485" rx="20" fill="#D5E9DE"/>
<path opacity="0.2" d="M38.1881 -50.0959C44.3369 -54.5632 52.6631 -54.5632 58.8119 -50.0958L372.484 177.801C378.633 182.268 381.206 190.187 378.858 197.415L259.045 566.159C256.697 573.388 249.961 578.282 242.36 578.282H-145.36C-152.961 578.282 -159.697 573.388 -162.045 566.159L-281.858 197.415C-284.206 190.187 -281.633 182.268 -275.484 177.801L38.1881 -50.0959Z" fill="#219653"/>
<path d="M18.1881 98.9042C24.3369 94.4368 32.6631 94.4368 38.8119 98.9042L229.798 237.664C235.947 242.131 238.52 250.05 236.171 257.278L163.221 481.796C160.872 489.024 154.136 493.918 146.536 493.918H-89.536C-97.1364 493.918 -103.872 489.024 -106.221 481.796L-179.171 257.278C-181.52 250.05 -178.947 242.131 -172.798 237.664L18.1881 98.9042Z" fill="#219653"/>
<rect x="255" y="12.4121" width="48" height="48" rx="8" fill="#36363F"/>
<path d="M279.001 30.1859C280.958 28.4288 283.983 28.4871 285.869 30.3766C287.754 32.266 287.819 35.2763 286.065 37.2396L279 44.3163L271.934 37.2396C270.181 35.2763 270.246 32.2613 272.131 30.3766C274.018 28.4897 277.037 28.4262 279.001 30.1859ZM284.689 31.5539C283.44 30.3021 281.423 30.2513 280.114 31.4262L279.001 32.4248L277.888 31.427C276.576 30.2504 274.562 30.3022 273.309 31.5551C272.068 32.7965 272.006 34.7849 273.15 36.0981L279 41.9574L284.85 36.0981C285.994 34.7844 285.932 32.7998 284.689 31.5539Z" fill="#0F0F0F"/>
</g>
<defs>
<clipPath id="clip0_40000718_29764">
<rect width="315.333" height="485" rx="20" fill="white"/>
</clipPath>
</defs>
</svg>
