<svg width="220" height="220" viewBox="0 0 220 220" fill="none" xmlns="http://www.w3.org/2000/svg">
<rect width="220" height="220" rx="110" fill="#219653"/>
<path d="M110 41C133.748 41 153 60.2518 153 84C153 107.748 133.748 127 110 127C86.2518 127 67 107.748 67 84C67 60.2518 86.2518 41 110 41Z" fill="#1F1F25"/>
<path d="M110 41C133.748 41 153 60.2518 153 84C153 107.748 133.748 127 110 127C86.2518 127 67 107.748 67 84C67 60.2518 86.2518 41 110 41Z" stroke="#2F2F37" stroke-width="10"/>
<path d="M89.3103 104.397H130.69V63.0172H89.3103V104.397Z" fill="black"/>
</svg>
