<svg preserveAspectRatio="none" width="100%" height="100%" overflow="visible" style="display: block;" viewBox="0 0 687 428" fill="none" xmlns="http://www.w3.org/2000/svg">
<path id="Cloud" d="M589.694 154.406C578.932 151.002 571.521 140.48 571.8 129.196C571.826 128.134 571.839 127.069 571.839 126C571.839 56.4122 515.834 0 446.747 0C412.317 0 381.135 14.0115 358.517 36.6828C350.208 45.0108 336.751 46.7529 326.585 40.8341C308.195 30.1274 286.847 24 264.079 24C195.661 24 140.073 79.3255 139.004 147.983C139.004 147.992 138.997 147.999 138.989 147.999C62.2267 147.999 0 210.678 0 287.999C0 365.32 62.2267 428 138.989 428H548.013C624.773 428 687 365.32 687 287.999C687 225.306 646.091 172.241 589.694 154.406Z" fill="var(--fill-0, #49AEE1)"/>
</svg>
