<svg preserveAspectRatio="none" width="100%" height="100%" overflow="visible" style="display: block;" viewBox="0 0 497.295 310.36" fill="none" xmlns="http://www.w3.org/2000/svg">
<path id="Cloud" d="M429.082 112.699C420.139 109.632 413.934 100.822 413.934 91.3676C413.934 40.9067 373.394 0 323.384 0C300.636 0 279.846 8.46496 263.941 22.4438C255.095 30.2187 241.604 31.9614 231.054 26.7277C219.017 20.7568 205.475 17.4034 191.157 17.4034C141.632 17.4034 101.394 57.5221 100.62 107.308C100.62 107.315 100.615 107.32 100.609 107.32C45.0436 107.32 0 152.771 0 208.84C0 264.908 45.0436 310.36 100.609 310.36H396.687C452.25 310.36 497.295 264.908 497.295 208.84C497.295 164.208 468.753 126.305 429.082 112.699Z" fill="var(--fill-0, #8ECDEC)"/>
</svg>
