<svg width="120" height="120" viewBox="0 0 120 120" fill="none" xmlns="http://www.w3.org/2000/svg">
<g clip-path="url(#clip0_152_11870)">
<path fill-rule="evenodd" clip-rule="evenodd" d="M120 0H94.4988C96.3477 3.9746 98.9119 7.69864 102.191 10.9782C107.295 16.0816 113.475 19.4528 120 21.0917V0ZM120 100.283C113.475 101.921 107.295 105.293 102.191 110.396C99.2927 113.295 96.9528 116.541 95.1718 120H120V100.283ZM24.2895 120C22.4553 116.166 19.9499 112.572 16.7734 109.396C11.9406 104.563 6.14267 101.284 0 99.5578V120H24.2895Z" fill="#D9D9D9"/>
<path fill-rule="evenodd" clip-rule="evenodd" d="M94.4988 4.20101e-06C96.3477 3.97461 98.9119 7.69864 102.191 10.9782C107.295 16.0816 113.475 19.4528 120 21.0917L120 4.20101e-06L94.4988 4.20101e-06Z" fill="#BE9AFF"/>
<path fill-rule="evenodd" clip-rule="evenodd" d="M24.2895 120C22.4553 116.166 19.9499 112.572 16.7734 109.396C11.9406 104.563 6.14267 101.284 -9.08377e-08 99.5578L-4.28012e-07 120H24.2895Z" fill="#BE9AFF"/>
<path fill-rule="evenodd" clip-rule="evenodd" d="M120 100.283C113.475 101.921 107.295 105.293 102.191 110.396C99.2927 113.295 96.9528 116.541 95.1718 120L120 120L120 100.283Z" fill="#BE9AFF"/>
<path d="M59.5 101C81.8675 101 100 82.8675 100 60.5C100 38.1325 81.8675 20 59.5 20C37.1325 20 19 38.1325 19 60.5C19 82.8675 37.1325 101 59.5 101Z" fill="#BE9AFF"/>
<path d="M23.9829 -1.30296e-06C22.1795 3.59942 19.7764 6.97504 16.7734 9.978C11.9406 14.8108 6.14264 18.0902 -1.46302e-05 19.8161V-6.28607e-07L23.9829 -1.30296e-06Z" fill="#BE9AFF"/>
</g>
<defs>
<clipPath id="clip0_152_11870">
<rect width="120" height="120" fill="white"/>
</clipPath>
</defs>
</svg>
