<svg width="120" height="120" viewBox="0 0 120 120" fill="none" xmlns="http://www.w3.org/2000/svg">
<g clip-path="url(#clip0_152_11867)">
<path d="M60 0C44.0769 0 31.1688 12.9081 31.1688 28.8312C31.1688 30.1222 30.1222 31.1688 28.8312 31.1688C12.9081 31.1688 0 44.0769 0 60C0 75.9231 12.9081 88.8314 28.8312 88.8314C30.1222 88.8314 31.1688 89.8778 31.1688 91.1686C31.1688 107.092 44.0769 120 60 120C75.9231 120 88.8314 107.092 88.8314 91.1686C88.8314 89.8778 89.8778 88.8314 91.1686 88.8314C107.092 88.8314 120 75.9231 120 60C120 44.0769 107.092 31.1688 91.1686 31.1688C89.8778 31.1688 88.8314 30.1222 88.8314 28.8312C88.8314 12.9081 75.9231 0 60 0Z" fill="#68DCC6"/>
</g>
<defs>
<clipPath id="clip0_152_11867">
<rect width="120" height="120" fill="white"/>
</clipPath>
</defs>
</svg>
