<svg width="120" height="120" viewBox="0 0 120 120" fill="none" xmlns="http://www.w3.org/2000/svg">
<g clip-path="url(#clip0_152_11871)">
<path d="M60 0L68.9453 20.8079L86.033 5.94187L85.0643 28.5704L106.91 22.5906L96.2189 42.5579L118.496 46.6487L100.2 60L118.496 73.3513L96.2189 77.4421L106.91 97.4094L85.0643 91.4296L86.033 114.058L68.9453 99.1921L60 120L51.0547 99.1921L33.967 114.058L34.9357 91.4296L13.0901 97.4094L23.7811 77.4421L1.50433 73.3513L19.8 60L1.50433 46.6487L23.7811 42.5579L13.0901 22.5906L34.9357 28.5704L33.967 5.94187L51.0547 20.8079L60 0Z" fill="#E65800"/>
</g>
<defs>
<clipPath id="clip0_152_11871">
<rect width="120" height="120" fill="white"/>
</clipPath>
</defs>
</svg>
