<svg width="120" height="120" viewBox="0 0 120 120" fill="none" xmlns="http://www.w3.org/2000/svg">
<g clip-path="url(#clip0_152_11864)">
<path d="M30 6.10352e-05C13.4315 6.10352e-05 -3.8147e-06 13.4315 -3.8147e-06 30.0001C-3.8147e-06 46.5689 13.4315 60.0001 30 60.0001C13.4315 60.0001 -3.8147e-06 73.4313 -3.8147e-06 90.0001C-3.8147e-06 106.569 13.4315 120 30 120C46.5688 120 60 106.569 60 90.0001C60 106.569 73.4312 120 90 120C106.569 120 120 106.569 120 90.0001C120 73.4313 106.569 60.0001 90 60.0001C106.569 60.0001 120 46.5689 120 30.0001C120 13.4315 106.569 6.10352e-05 90 6.10352e-05C73.4312 6.10352e-05 60 13.4315 60 30.0001C60 13.4315 46.5688 6.10352e-05 30 6.10352e-05Z" fill="#FFAF25"/>
</g>
<defs>
<clipPath id="clip0_152_11864">
<rect width="120" height="120" fill="white"/>
</clipPath>
</defs>
</svg>
