<svg width="450" height="450" viewBox="0 0 450 450" fill="none" xmlns="http://www.w3.org/2000/svg">
<g clip-path="url(#clip0_40000299_18774)">
<rect width="450" height="450" rx="20" fill="#C4A3FF"/>
<g opacity="0.3">
<ellipse cx="243.895" cy="197.393" rx="137" ry="134.5" transform="rotate(-30 243.895 197.393)" fill="#7040C8"/>
<rect x="240.328" y="287.48" width="91.2" height="88.6667" transform="rotate(-30 240.328 287.48)" fill="#7040C8"/>
</g>
<ellipse cx="125.895" cy="130.059" rx="187.114" ry="183.7" transform="rotate(-30 125.895 130.059)" fill="#7040C8"/>
<rect x="121.023" y="253.102" width="124.561" height="121.101" transform="rotate(-30 121.023 253.102)" fill="#7040C8"/>
<rect x="390" y="12" width="48" height="48" rx="8" fill="#36363F"/>
<path d="M414.001 29.7738C415.959 28.0167 418.984 28.075 420.869 29.9645C422.755 31.8539 422.819 34.8642 421.066 36.8275L414 43.9042L406.935 36.8275C405.181 34.8642 405.247 31.8492 407.131 29.9645C409.018 28.0776 412.038 28.0141 414.001 29.7738ZM419.689 31.1418C418.44 29.89 416.423 29.8392 415.114 31.0141L414.002 32.0127L412.889 31.0148C411.576 29.8383 409.563 29.8901 408.31 31.143C407.069 32.3844 407.006 34.3728 408.15 35.686L414 41.5453L419.85 35.686C420.995 34.3723 420.933 32.3877 419.689 31.1418Z" fill="#0F0F0F"/>
</g>
<defs>
<clipPath id="clip0_40000299_18774">
<rect width="450" height="450" rx="20" fill="white"/>
</clipPath>
</defs>
</svg>
