<svg width="450" height="450" viewBox="0 0 450 450" fill="none" xmlns="http://www.w3.org/2000/svg">
<g clip-path="url(#clip0_40000299_18783)">
<rect width="450" height="450" rx="20" fill="#FCE3BB"/>
<path d="M285.071 1.86165C197.659 -43.6739 89.8839 -9.72652 44.3483 77.6853C-1.18801 165.099 32.7601 272.872 120.172 318.408C32.7601 272.872 -75.0145 306.819 -120.551 394.232C-166.087 481.645 -132.139 589.419 -44.7271 634.955C42.6861 680.491 150.459 646.544 195.996 559.131C150.459 646.544 184.406 754.317 271.819 799.854C359.233 845.39 467.006 811.443 512.542 724.03C558.078 636.617 524.132 528.843 436.718 483.307C524.132 528.843 631.905 494.897 677.441 407.484C722.977 320.072 689.031 212.297 601.617 166.761C514.204 121.224 406.43 155.173 360.895 242.584C406.43 155.173 372.484 47.398 285.071 1.86165Z" fill="#FFBB25"/>
<path opacity="0.3" d="M88.3419 -158.764C47.805 -179.881 -2.17532 -164.138 -23.2923 -123.601C-44.4095 -83.064 -28.6662 -33.0843 11.8706 -11.9673C-28.6662 -33.0843 -78.6462 -17.3419 -99.7635 23.1956C-120.881 63.7331 -105.137 113.713 -64.6006 134.83C-24.0631 155.947 25.9163 140.204 47.0335 99.6668C25.9163 140.204 41.6589 190.184 82.1964 211.301C122.734 232.418 172.713 216.676 193.831 176.138C214.948 135.601 199.205 85.6212 158.668 64.5039C199.205 85.6212 249.185 69.8785 270.302 29.341C291.419 -11.1958 275.676 -61.1758 235.139 -82.2931C194.601 -103.41 144.622 -87.6671 123.505 -47.1302C144.622 -87.6671 128.879 -137.647 88.3419 -158.764Z" fill="#FFBB25"/>
<rect x="390" y="12" width="48" height="48" rx="8" fill="#36363F"/>
<path d="M414.001 29.7738C415.959 28.0167 418.984 28.075 420.869 29.9645C422.755 31.8539 422.819 34.8642 421.066 36.8275L414 43.9042L406.935 36.8275C405.181 34.8642 405.247 31.8492 407.131 29.9645C409.018 28.0776 412.038 28.0141 414.001 29.7738ZM419.689 31.1418C418.44 29.89 416.423 29.8392 415.114 31.0141L414.002 32.0127L412.889 31.0148C411.576 29.8383 409.563 29.8901 408.31 31.143C407.069 32.3844 407.006 34.3728 408.15 35.686L414 41.5453L419.85 35.686C420.995 34.3723 420.933 32.3877 419.689 31.1418Z" fill="#0F0F0F"/>
</g>
<defs>
<clipPath id="clip0_40000299_18783">
<rect width="450" height="450" rx="20" fill="white"/>
</clipPath>
</defs>
</svg>
