<svg width="450" height="450" viewBox="0 0 450 450" fill="none" xmlns="http://www.w3.org/2000/svg">
<g clip-path="url(#clip0_40000299_18763)">
<rect width="450" height="450" rx="20" fill="#FFF9DD"/>
<path d="M292.838 153.285C261.167 136.787 222.118 149.087 205.619 180.758C189.12 212.429 201.42 251.478 233.092 267.976C201.42 251.478 162.372 263.777 145.873 295.449C129.374 327.12 141.674 366.169 173.345 382.667C205.017 399.166 244.065 386.866 260.564 355.195C244.065 386.866 256.365 425.915 288.036 442.414C319.708 458.912 358.756 446.613 375.255 414.941C391.754 383.27 379.454 344.221 347.783 327.723C379.454 344.221 418.503 331.922 435.001 300.25C451.5 268.579 439.2 229.53 407.529 213.031C375.857 196.533 336.809 208.833 320.31 240.504C336.809 208.833 324.509 169.784 292.838 153.285Z" fill="#FDDA3C"/>
<path opacity="0.3" d="M189.341 -147.352C148.804 -168.469 98.8237 -152.726 77.7068 -112.189C56.5895 -71.6519 72.3328 -21.6721 112.87 -0.555202C72.3328 -21.6721 22.3528 -5.9298 1.2355 34.6077C-19.8818 75.1452 -4.13846 125.125 36.3984 146.242C76.9359 167.359 126.915 151.616 148.033 111.079C126.915 151.616 142.658 201.596 183.195 222.713C223.733 243.83 273.712 228.088 294.83 187.55C315.947 147.013 300.204 97.0333 259.667 75.9161C300.204 97.0333 350.184 81.2907 371.301 40.7531C392.418 0.216277 376.675 -49.7637 336.138 -70.881C295.6 -91.9983 245.621 -76.255 224.504 -35.7181C245.621 -76.255 229.878 -126.235 189.341 -147.352Z" fill="#FDDA3C"/>
<rect x="390" y="12" width="48" height="48" rx="8" fill="#36363F"/>
<path d="M414.001 29.7738C415.959 28.0167 418.984 28.075 420.869 29.9645C422.755 31.8539 422.819 34.8642 421.066 36.8275L414 43.9042L406.935 36.8275C405.181 34.8642 405.247 31.8492 407.131 29.9645C409.018 28.0776 412.038 28.0141 414.001 29.7738ZM419.689 31.1418C418.44 29.89 416.423 29.8392 415.114 31.0141L414.002 32.0127L412.889 31.0148C411.576 29.8383 409.563 29.8901 408.31 31.143C407.069 32.3844 407.006 34.3728 408.15 35.686L414 41.5453L419.85 35.686C420.995 34.3723 420.933 32.3877 419.689 31.1418Z" fill="#0F0F0F"/>
</g>
<defs>
<clipPath id="clip0_40000299_18763">
<rect width="450" height="450" rx="20" fill="white"/>
</clipPath>
</defs>
</svg>
