<svg width="1438" height="1438" viewBox="0 0 1438 1438" fill="none" xmlns="http://www.w3.org/2000/svg">
<path d="M719 0L826.195 249.348L1030.96 71.2034L1019.35 342.368L1281.14 270.711L1153.02 509.985L1419.97 559.007L1200.73 719L1419.97 878.993L1153.02 928.015L1281.14 1167.29L1019.35 1095.63L1030.96 1366.8L826.195 1188.65L719 1438L611.805 1188.65L407.038 1366.8L418.646 1095.63L156.863 1167.29L284.976 928.015L18.0269 878.993L237.27 719L18.0269 559.007L284.976 509.985L156.863 270.711L418.646 342.368L407.038 71.2034L611.805 249.348L719 0Z" fill="#1F1F25"/>
</svg>
