<svg width="481" height="200" viewBox="0 0 481 200" fill="none" xmlns="http://www.w3.org/2000/svg">
<g clip-path="url(#clip0_40000214_419)">
<path d="M0 16C0 7.16344 7.16345 0 16 0H464.5C473.337 0 480.5 7.16344 480.5 16V184C480.5 192.837 473.337 200 464.5 200H16C7.16346 200 0 192.837 0 184V16Z" fill="#3F50B8"/>
<path d="M315 30.4121L293.308 81.0447L251.87 44.8707L254.219 99.9334L201.244 85.3826L227.169 133.97L173.148 143.924L217.515 176.412L173.148 208.9L227.169 218.855L201.244 267.442L254.219 252.891L251.87 307.954L293.308 271.78L315 322.412L336.692 271.78L378.13 307.954L375.781 252.891L428.756 267.442L402.831 218.855L456.852 208.9L412.485 176.412L456.852 143.924L402.831 133.97L428.756 85.3826L375.781 99.9334L378.13 44.8707L336.692 81.0447L315 30.4121Z" fill="#E768B0"/>
</g>
<defs>
<clipPath id="clip0_40000214_419">
<rect width="480.5" height="200" fill="white"/>
</clipPath>
</defs>
</svg>
