<svg width="982" height="982" viewBox="0 0 982 982" fill="none" xmlns="http://www.w3.org/2000/svg">
<g clip-path="url(#clip0_40001312_26903)">
<path d="M477.565 798.823H500.578V821.197H477.565V798.823Z" fill="#FDDA3C"/>
</g>
<g clip-path="url(#clip1_40001312_26903)">
<path d="M392.574 870.15C402.375 872.896 412.547 867.177 415.294 857.375C415.516 856.58 416.341 856.117 417.136 856.339C426.937 859.086 437.109 853.366 439.855 843.565C442.602 833.763 436.882 823.591 427.081 820.845C426.286 820.622 425.822 819.798 426.045 819.003C428.791 809.202 423.072 799.03 413.27 796.283C403.469 793.537 393.297 799.256 390.551 809.058C390.328 809.853 389.503 810.316 388.709 810.094C378.907 807.347 368.735 813.067 365.989 822.868C363.243 832.67 368.962 842.842 378.764 845.588C379.558 845.811 380.022 846.635 379.799 847.43C377.053 857.232 382.772 867.404 392.574 870.15Z" fill="#68DCC6"/>
</g>
<g clip-path="url(#clip2_40001312_26903)">
<rect x="333.148" y="853.541" width="76.8758" height="73.0688" rx="10.2282" transform="rotate(-148.696 333.148 853.541)" fill="#FAFAF5"/>
<rect x="332.444" y="854.699" width="76.7112" height="76.7112" rx="12.7852" transform="rotate(-148.696 332.444 854.699)" fill="#F2F3E5"/>
</g>
<g clip-path="url(#clip3_40001312_26903)">
<path d="M247.087 688.902C247.646 702.57 252.916 716.111 262.985 726.893C272.886 737.495 285.767 743.648 299.123 745.268L254.454 786.985C241.099 785.365 228.218 779.212 218.317 768.61C208.247 757.828 202.978 744.287 202.419 730.619L247.087 688.902Z" fill="#56CCF2"/>
</g>
<g clip-path="url(#clip4_40001312_26903)">
<path d="M203.658 610.743C200.509 624.055 201.929 638.515 208.716 651.614C215.39 664.494 226.133 673.894 238.556 679.057L184.289 707.176C171.866 702.013 161.123 692.613 154.449 679.733C147.662 666.634 146.242 652.173 149.391 638.861L203.658 610.743Z" fill="#56CCF2"/>
</g>
<g clip-path="url(#clip5_40001312_26903)">
<path d="M178.539 520.669C171.916 532.638 169.382 546.946 172.384 561.39C175.335 575.593 183.143 587.543 193.713 595.866L133.872 608.301C123.302 599.978 115.494 588.028 112.542 573.825C109.541 559.381 112.075 545.073 118.698 533.104L178.539 520.669Z" fill="#56CCF2"/>
</g>
<g clip-path="url(#clip6_40001312_26903)">
<path d="M126.874 465.636L105.049 426.487L155.01 429.904L176.836 469.054L149.883 504.866L99.921 501.449L126.874 465.636Z" fill="#EC3E23"/>
</g>
<g clip-path="url(#clip7_40001312_26903)">
<path d="M139.131 384.723L147.693 360.631L155.518 363.412L164.083 339.312L212.873 356.652L204.308 380.752L207.928 382.039L190.804 430.22L118.522 404.531L127.084 380.441L139.131 384.723Z" fill="#6A7EFF"/>
</g>
<g clip-path="url(#clip8_40001312_26903)">
<path d="M187.859 296.179L202.603 275.292L209.388 280.081L224.138 259.185L266.44 289.045L251.69 309.941L254.828 312.156L225.341 353.931L162.67 309.693L177.414 288.806L187.859 296.179Z" fill="#6A7EFF"/>
</g>
<g clip-path="url(#clip9_40001312_26903)">
<path d="M335.574 234.209C321.9 233.834 308.031 238.167 296.587 247.477C285.334 256.632 278.316 269.063 275.789 282.277L237.217 234.866C239.744 221.651 246.763 209.221 258.015 200.066C269.459 190.756 283.328 186.423 297.003 186.798L335.574 234.209Z" fill="#56CCF2"/>
</g>
<g clip-path="url(#clip10_40001312_26903)">
<path d="M310.472 155.908L378.5 126.359L409.062 196.72L362.799 182.438L340.472 224.975L310.472 155.908Z" fill="#C12A67"/>
</g>
<g clip-path="url(#clip11_40001312_26903)">
<path d="M421.032 107.562C410.539 109.005 403.202 118.68 404.644 129.173C406.086 139.666 415.762 147.003 426.255 145.561C415.762 147.003 408.425 156.678 409.867 167.171C411.309 177.664 420.985 185.001 431.478 183.559C441.971 182.117 449.308 172.442 447.865 161.949C449.308 172.442 458.983 179.779 469.476 178.336C479.969 176.894 487.306 167.219 485.864 156.726C484.421 146.233 474.746 138.896 464.253 140.338C474.746 138.896 482.083 129.221 480.641 118.727C479.199 108.235 469.523 100.897 459.03 102.34C448.537 103.782 441.2 113.457 442.643 123.95C441.2 113.457 431.525 106.12 421.032 107.562Z" fill="#FFAF25"/>
</g>
<g clip-path="url(#clip12_40001312_26903)">
<path d="M545.639 109.256C566.625 112.14 581.301 131.471 578.42 152.432C567.053 150.869 556.573 158.807 555.012 170.161C554.442 174.307 553.903 178.234 553.903 178.234L519.071 173.446C519.071 173.446 519.611 169.52 520.181 165.373C521.741 154.02 513.791 143.549 502.424 141.986C505.305 121.025 524.653 106.371 545.639 109.256Z" fill="#2CD573"/>
</g>
<g clip-path="url(#clip13_40001312_26903)">
<path d="M655.442 140.787L655.387 155.265L669.192 150.901L662.861 163.922L677.193 165.98L665.839 174.964L677.859 183.036L663.731 186.205L671.058 198.693L656.955 195.418L658.138 209.849L646.852 200.779L641.657 214.293L635.424 201.225L624.88 211.147L624.934 196.668L611.129 201.033L617.46 188.012L603.128 185.954L614.482 176.97L602.462 168.897L616.59 165.729L609.263 153.241L623.366 156.516L622.183 142.085L633.469 151.155L638.664 137.641L644.897 150.709L655.442 140.787Z" fill="#E65800"/>
</g>
<g clip-path="url(#clip14_40001312_26903)">
<path d="M742.922 199.329C746.769 199.54 750.044 202.204 751.033 205.928L759.287 237.016C760.276 240.74 758.754 244.678 755.518 246.769L728.502 264.226C725.265 266.318 721.05 266.087 718.061 263.655L693.11 243.356C690.121 240.924 689.038 236.844 690.427 233.25L702.022 203.248C703.412 199.654 706.957 197.362 710.805 197.573L742.922 199.329Z" fill="#D1F00B"/>
</g>
<g clip-path="url(#clip15_40001312_26903)">
<path d="M815.027 275.067C818.675 276.308 821.11 279.757 821.057 283.61L820.618 315.772C820.565 319.625 818.037 323.006 814.357 324.146L783.633 333.667C779.952 334.808 775.956 333.448 773.734 330.3L755.185 304.022C752.962 300.874 753.02 296.653 755.327 293.567L774.587 267.806C776.895 264.72 780.927 263.47 784.575 264.711L815.027 275.067Z" fill="#D1F00B"/>
</g>
<g clip-path="url(#clip16_40001312_26903)">
<path fill-rule="evenodd" clip-rule="evenodd" d="M878.394 403.919L872.935 388.558C870.937 390.523 869.242 392.864 867.969 395.542C865.987 399.708 865.28 404.152 865.69 408.434L878.394 403.919ZM817.989 425.387C815.605 421.807 812.251 418.806 808.085 416.825C805.718 415.699 803.262 414.985 800.797 414.652L806.112 429.608L817.989 425.387ZM785.623 371.957C787.54 370.031 789.168 367.752 790.401 365.159C792.278 361.214 793.012 357.019 792.736 352.95L780.423 357.326L785.623 371.957Z" fill="#D9D9D9"/>
<path fill-rule="evenodd" clip-rule="evenodd" d="M871.657 389.01C869.659 390.975 867.965 393.316 866.692 395.994C864.71 400.161 864.002 404.605 864.412 408.886L877.117 404.371L871.657 389.01Z" fill="#BE9AFF"/>
<path fill-rule="evenodd" clip-rule="evenodd" d="M784.346 372.411C786.262 370.485 787.891 368.207 789.124 365.613C791 361.668 791.735 357.473 791.459 353.404L779.146 357.78L784.346 372.411Z" fill="#BE9AFF"/>
<path fill-rule="evenodd" clip-rule="evenodd" d="M816.712 425.84C814.328 422.26 810.974 419.26 806.807 417.278C804.441 416.153 801.985 415.438 799.52 415.106L804.835 430.061L816.712 425.84Z" fill="#BE9AFF"/>
<path d="M804.486 388.763C809.274 402.236 824.078 409.276 837.551 404.488C851.024 399.699 858.065 384.896 853.276 371.423C848.488 357.949 833.684 350.909 820.211 355.697C806.738 360.486 799.698 375.29 804.486 388.763Z" fill="#BE9AFF"/>
<path d="M856.562 346.535C854.008 346.22 851.46 345.495 849.008 344.329C845.063 342.452 841.846 339.662 839.492 336.331L851.428 332.089L856.562 346.535Z" fill="#BE9AFF"/>
</g>
<g clip-path="url(#clip17_40001312_26903)">
<path d="M876.329 425.598L878.946 463.864L881.564 502.13L842.71 491.973L805.602 507.326L802.985 469.06L800.367 430.794L839.22 440.951L876.329 425.598Z" fill="#BD67FF"/>
</g>
<g clip-path="url(#clip18_40001312_26903)">
<path d="M880.233 555.353C882.388 544.983 875.728 534.829 865.358 532.674C854.988 530.519 844.835 537.179 842.68 547.549C844.835 537.179 838.175 527.026 827.805 524.871C817.435 522.716 807.281 529.375 805.126 539.745C802.971 550.116 809.631 560.269 820.001 562.424C809.631 560.269 799.478 566.929 797.323 577.299C795.168 587.669 801.827 597.822 812.197 599.977C822.568 602.132 832.721 595.473 834.876 585.103C832.721 595.473 839.381 605.626 849.751 607.781C860.121 609.936 870.274 603.276 872.429 592.906C874.584 582.536 867.924 572.383 857.554 570.228C867.924 572.383 878.078 565.723 880.233 555.353Z" fill="#FFAF25"/>
</g>
<g clip-path="url(#clip19_40001312_26903)">
<path d="M843.44 678.067C833.695 696.875 810.565 704.231 791.78 694.497C797.058 684.31 793.089 671.776 782.913 666.504C779.197 664.578 775.678 662.755 775.678 662.755L791.853 631.537C791.853 631.537 795.372 633.361 799.088 635.286C809.264 640.559 821.793 636.574 827.072 626.387C845.857 636.121 853.186 659.259 843.44 678.067Z" fill="#2CD573"/>
</g>
<g clip-path="url(#clip20_40001312_26903)">
<path d="M815.184 741.145L789.005 769.176L762.825 797.208L743.729 761.88L707.18 745.239L733.36 717.207L759.539 689.176L778.635 724.504L815.184 741.145Z" fill="#BD67FF"/>
</g>
<g clip-path="url(#clip21_40001312_26903)">
<path d="M708.805 815.956L686.96 829.24L682.645 822.144L660.791 835.434L633.888 791.193L655.741 777.903L653.745 774.621L697.435 748.052L737.293 813.596L715.448 826.88L708.805 815.956Z" fill="#6A7EFF"/>
</g>
<g clip-path="url(#clip22_40001312_26903)">
<path d="M607.143 866.245C604.752 869.267 600.688 870.406 597.075 869.066L566.917 857.882C563.304 856.542 560.965 853.028 561.122 849.178L562.44 817.04C562.598 813.189 565.217 809.879 568.928 808.839L599.9 800.161C603.61 799.122 607.568 800.589 609.704 803.797L627.528 830.572C629.663 833.779 629.49 837.997 627.099 841.019L607.143 866.245Z" fill="#D1F00B"/>
</g>
<g clip-path="url(#clip23_40001312_26903)">
<path d="M501.866 862.748H476.299V854.443H450.722V802.664H476.299V798.822H527.432V875.533H501.866V862.748Z" fill="#6A7EFF"/>
</g>
<defs>
<clipPath id="clip0_40001312_26903">
<rect width="76.8758" height="73.0688" fill="white" transform="matrix(-1 0 0 -1 527.427 875.533)"/>
</clipPath>
<clipPath id="clip1_40001312_26903">
<rect width="76.8758" height="73.0688" fill="white" transform="translate(429.507 880.498) rotate(-164.348)"/>
</clipPath>
<clipPath id="clip2_40001312_26903">
<rect x="333.148" y="853.541" width="76.8758" height="73.0688" rx="10.2282" transform="rotate(-148.696 333.148 853.541)" fill="white"/>
</clipPath>
<clipPath id="clip3_40001312_26903">
<rect width="76.8758" height="73.0688" fill="white" transform="translate(245.496 796.662) rotate(-133.043)"/>
</clipPath>
<clipPath id="clip4_40001312_26903">
<rect width="76.8758" height="73.0688" fill="white" transform="translate(173.053 714.078) rotate(-117.391)"/>
</clipPath>
<clipPath id="clip5_40001312_26903">
<rect width="76.8758" height="73.0688" fill="white" transform="translate(121.19 611.916) rotate(-101.739)"/>
</clipPath>
<clipPath id="clip6_40001312_26903">
<rect width="76.8758" height="73.0688" fill="white" transform="translate(99 502.74) rotate(-86.087)"/>
</clipPath>
<clipPath id="clip7_40001312_26903">
<rect width="76.8758" height="73.0688" fill="white" transform="translate(118.524 404.525) rotate(-70.4348)"/>
</clipPath>
<clipPath id="clip8_40001312_26903">
<rect width="76.8758" height="73.0688" fill="white" transform="translate(162.673 309.689) rotate(-54.7826)"/>
</clipPath>
<clipPath id="clip9_40001312_26903">
<rect width="76.8758" height="73.0688" fill="white" transform="translate(228.173 225.268) rotate(-39.1304)"/>
</clipPath>
<clipPath id="clip10_40001312_26903">
<rect width="76.8758" height="73.0688" fill="white" transform="translate(310.166 157.52) rotate(-23.4783)"/>
</clipPath>
<clipPath id="clip11_40001312_26903">
<rect width="76.8758" height="73.0688" fill="white" transform="translate(402.57 111.469) rotate(-7.82609)"/>
</clipPath>
<clipPath id="clip12_40001312_26903">
<rect width="76.8758" height="73.0688" fill="white" transform="translate(508.482 101) rotate(7.82609)"/>
</clipPath>
<clipPath id="clip13_40001312_26903">
<rect width="76.8758" height="73.0688" fill="white" transform="translate(620.047 126.891) rotate(23.4783)"/>
</clipPath>
<clipPath id="clip14_40001312_26903">
<rect width="76.8758" height="73.0688" fill="white" transform="translate(719.042 176.752) rotate(39.1304)"/>
</clipPath>
<clipPath id="clip15_40001312_26903">
<rect width="76.8758" height="73.0688" fill="white" transform="translate(798.124 246.885) rotate(54.7826)"/>
</clipPath>
<clipPath id="clip16_40001312_26903">
<rect width="76.8758" height="73.0688" fill="white" transform="translate(851.428 332.09) rotate(70.4348)"/>
</clipPath>
<clipPath id="clip17_40001312_26903">
<rect width="76.8758" height="73.0688" fill="white" transform="translate(875 426.045) rotate(86.087)"/>
</clipPath>
<clipPath id="clip18_40001312_26903">
<rect width="76.8758" height="73.0688" fill="white" transform="translate(882.735 536.648) rotate(101.739)"/>
</clipPath>
<clipPath id="clip19_40001312_26903">
<rect width="76.8758" height="73.0688" fill="white" transform="translate(863.662 645.82) rotate(117.391)"/>
</clipPath>
<clipPath id="clip20_40001312_26903">
<rect width="76.8758" height="73.0688" fill="white" transform="translate(813.951 740.479) rotate(133.043)"/>
</clipPath>
<clipPath id="clip21_40001312_26903">
<rect width="76.8758" height="73.0688" fill="white" transform="translate(737.288 813.598) rotate(148.696)"/>
</clipPath>
<clipPath id="clip22_40001312_26903">
<rect width="76.8758" height="73.0688" fill="white" transform="translate(639.359 859.756) rotate(164.348)"/>
</clipPath>
<clipPath id="clip23_40001312_26903">
<rect width="76.8758" height="73.0688" fill="white" transform="matrix(-1 0 0 -1 527.427 875.533)"/>
</clipPath>
</defs>
</svg>
