<svg width="1194" height="675" viewBox="0 0 1194 675" fill="none" xmlns="http://www.w3.org/2000/svg">
<path d="M392 291C461.036 221.965 572.578 221.578 641.137 290.137C603.742 327.531 603.534 387.951 640.67 425.087C654.232 438.649 667.075 451.492 667.075 451.492L552.492 566.075C552.492 566.075 539.649 553.232 526.087 539.67C488.951 502.534 428.531 502.743 391.137 540.137C322.578 471.578 322.964 360.036 392 291Z" fill="#7040C8"/>
<path d="M697.5 251L726.349 318.105L781.457 270.163L778.332 343.139L848.784 323.855L814.306 388.249L886.149 401.442L827.145 444.5L886.149 487.558L814.306 500.751L848.784 565.145L778.332 545.861L781.457 618.837L726.349 570.895L697.5 638L668.651 570.895L613.543 618.837L616.668 545.861L546.216 565.145L580.694 500.751L508.851 487.558L567.855 444.5L508.851 401.442L580.694 388.249L546.216 323.855L616.668 343.139L613.543 270.163L668.651 318.105L697.5 251Z" fill="#3F50B8"/>
<path d="M1262.21 498.87L1219.47 541.604L1262.21 584.337L1172.34 674.207L1129.6 631.474L1086.87 674.207L997 584.337L1039.73 541.604L997 498.87L1086.87 409L1129.6 451.733L1172.34 409L1262.21 498.87Z" fill="#BD67FF"/>
<path d="M893.718 333.513H984.435V354.182H1074.93V537.581H984.435V538H803V306H893.718V333.513Z" fill="#6A7EFF"/>
<path d="M284.791 70.1145L194.385 165.5L103.979 260.885L39.6248 139.532L-84.9999 81.7701L5.40617 -13.6149L95.8123 -109L160.166 12.3523L284.791 70.1145Z" fill="#2CD573"/>
<path d="M317.08 132.003C322.907 130.459 329.065 132.842 332.335 137.906L415.731 267.092C419.001 272.156 418.637 278.75 414.831 283.424L317.739 402.66C313.933 407.334 307.55 409.026 301.928 406.851L158.525 351.357C152.903 349.181 149.322 343.633 149.654 337.614L158.118 184.081C158.449 178.063 162.619 172.942 168.446 171.398L317.08 132.003Z" fill="#D1F00B"/>
</svg>
