<svg width="1317" height="1317" viewBox="0 0 1317 1317" fill="none" xmlns="http://www.w3.org/2000/svg">
<path d="M329.25 0C147.41 0 0 147.41 0 329.25C0 511.092 147.41 658.5 329.25 658.5C147.41 658.5 0 805.907 0 987.75C0 1169.59 147.41 1317 329.25 1317C511.092 1317 658.5 1169.59 658.5 987.75C658.5 1169.59 805.907 1317 987.75 1317C1169.59 1317 1317 1169.59 1317 987.75C1317 805.907 1169.59 658.5 987.75 658.5C1169.59 658.5 1317 511.092 1317 329.25C1317 147.41 1169.59 0 987.75 0C805.907 0 658.5 147.41 658.5 329.25C658.5 147.41 511.092 0 329.25 0Z" fill="#1F1F25"/>
</svg>
