<svg width="755" height="739" viewBox="0 0 755 739" fill="none" xmlns="http://www.w3.org/2000/svg">
<g clip-path="url(#clip0_40001312_26904)">
<path d="M374.031 738.26C387.001 738.26 397.514 727.746 397.514 714.777C397.514 713.725 398.367 712.873 399.418 712.873C412.388 712.873 422.901 702.359 422.901 689.39C422.901 676.42 412.388 665.907 399.418 665.907C398.367 665.907 397.514 665.054 397.514 664.003C397.514 651.034 387.001 640.52 374.031 640.52C361.062 640.52 350.548 651.034 350.548 664.003C350.548 665.054 349.696 665.907 348.644 665.907C335.675 665.907 325.161 676.42 325.161 689.39C325.161 702.359 335.675 712.873 348.644 712.873C349.696 712.873 350.548 713.725 350.548 714.777C350.548 727.746 361.062 738.26 374.031 738.26Z" fill="#68DCC6"/>
</g>
<g clip-path="url(#clip1_40001312_26904)">
<rect x="259.561" y="735.621" width="97.9497" height="93.0992" rx="13.032" transform="rotate(-152.308 259.561 735.621)" fill="#FAFAF5"/>
<rect x="258.692" y="737.277" width="97.74" height="97.74" rx="16.29" transform="rotate(-152.308 258.692 737.277)" fill="#F2F3E5"/>
</g>
<g clip-path="url(#clip2_40001312_26904)">
<path d="M133.212 501.828C131.365 519.16 135.477 537.211 146.155 552.68C156.654 567.891 171.739 578.052 188.27 582.588L124.181 626.825C107.65 622.29 92.5651 612.129 82.0655 596.917C71.3879 581.448 67.2753 563.397 69.1228 546.066L133.212 501.828Z" fill="#56CCF2"/>
</g>
<g clip-path="url(#clip3_40001312_26904)">
<path d="M94.239 356.04C84.549 370.528 79.8017 388.422 82.0674 407.082C84.2952 425.43 92.9302 441.437 105.46 453.136L28.1534 462.522C15.6239 450.824 6.98886 434.817 4.76097 416.468C2.49531 397.809 7.24259 379.914 16.9326 365.427L94.239 356.04Z" fill="#56CCF2"/>
</g>
<g clip-path="url(#clip4_40001312_26904)">
<path d="M142.856 234.509C127.544 242.833 115.024 256.472 108.359 274.047C101.805 291.329 102.012 309.516 107.669 325.697L34.8558 298.082C29.1979 281.901 28.9911 263.715 35.5453 246.433C42.2106 228.858 54.7302 215.219 70.0429 206.894L142.856 234.509Z" fill="#56CCF2"/>
</g>
<g clip-path="url(#clip5_40001312_26904)">
<path d="M166.268 128.879L181.442 73.822L223.754 121.582L208.58 176.639L152.095 185.066L109.784 137.306L166.268 128.879Z" fill="#EC3E23"/>
</g>
<g clip-path="url(#clip6_40001312_26904)">
<path d="M282.133 31.4643L313.761 23.6685L316.291 33.9307L347.933 26.1315L363.722 90.189L332.079 97.9882L333.253 102.752L269.996 118.343L246.605 23.4434L278.234 15.6476L282.133 31.4643Z" fill="#6A7EFF"/>
</g>
<g clip-path="url(#clip7_40001312_26904)">
<path d="M453.288 23.6105L484.917 31.4062L482.387 41.6684L514.03 49.4677L498.241 113.525L466.598 105.726L465.424 110.49L402.167 94.8981L425.558 -0.00195312L457.186 7.7938L453.288 23.6105Z" fill="#6A7EFF"/>
</g>
<g clip-path="url(#clip8_40001312_26904)">
<path d="M614.792 209.583C612.438 192.313 604.125 175.771 590.056 163.306C576.221 151.05 559.142 144.794 542.007 144.346L593.647 86.0567C610.783 86.5044 627.861 92.7601 641.696 105.017C655.765 117.481 664.078 134.023 666.432 151.293L614.792 209.583Z" fill="#56CCF2"/>
</g>
<g clip-path="url(#clip9_40001312_26904)">
<path d="M720.436 202.73L753.947 291.09L662.558 325.749L683.52 267.73L630.728 236.753L720.436 202.73Z" fill="#C12A67"/>
</g>
<g clip-path="url(#clip10_40001312_26904)">
<path fill-rule="evenodd" clip-rule="evenodd" d="M744.199 465.752L746.703 445.133C743.307 446.237 740.045 447.945 737.071 450.275C732.443 453.9 729.111 458.566 727.145 463.681L744.199 465.752ZM663.114 455.907C662.43 450.469 660.311 445.142 656.685 440.514C654.626 437.886 652.231 435.675 649.609 433.896L647.172 453.971L663.114 455.907ZM656.568 376.583C659.848 375.476 663 373.803 665.88 371.547C670.262 368.114 673.483 363.748 675.482 358.95L658.953 356.943L656.568 376.583Z" fill="#D9D9D9"/>
<path fill-rule="evenodd" clip-rule="evenodd" d="M744.846 444.907C741.451 446.012 738.188 447.72 735.214 450.049C730.587 453.675 727.254 458.341 725.289 463.456L742.343 465.527L744.846 444.907Z" fill="#BE9AFF"/>
<path fill-rule="evenodd" clip-rule="evenodd" d="M654.712 376.358C657.992 375.251 661.143 373.578 664.023 371.321C668.406 367.888 671.626 363.522 673.625 358.725L657.096 356.718L654.712 376.358Z" fill="#BE9AFF"/>
<path fill-rule="evenodd" clip-rule="evenodd" d="M661.258 455.683C660.573 450.246 658.454 444.918 654.829 440.291C652.77 437.662 650.375 435.452 647.753 433.672L645.315 453.747L661.258 455.683Z" fill="#BE9AFF"/>
<path d="M668.458 407.048C666.262 425.134 679.143 441.575 697.229 443.771C715.314 445.967 731.756 433.086 733.952 415.001C736.148 396.915 723.267 380.474 705.181 378.278C687.096 376.082 670.654 388.963 668.458 407.048Z" fill="#BE9AFF"/>
<path d="M751.769 387.891C749.036 386.08 746.542 383.805 744.409 381.082C740.976 376.7 738.894 371.69 738.101 366.554L754.124 368.5L751.769 387.891Z" fill="#BE9AFF"/>
</g>
<g clip-path="url(#clip11_40001312_26904)">
<path d="M728.069 557.828L700.307 598.047L672.546 638.267L641.881 597.306L592.708 583.158L620.469 542.939L648.23 502.72L678.896 543.68L728.069 557.828Z" fill="#BD67FF"/>
</g>
<g clip-path="url(#clip12_40001312_26904)">
<path d="M607.819 691.818L564.547 714.529L521.275 737.24L513.157 686.721L476.192 651.342L519.464 628.631L562.736 605.92L570.853 656.439L607.819 691.818Z" fill="#BD67FF"/>
</g>
<g clip-path="url(#clip13_40001312_26904)">
<path d="M380.563 735.289C376.591 738.175 371.212 738.175 367.24 735.289L334.085 711.2C330.113 708.314 328.451 703.199 329.968 698.53L342.632 659.553C344.149 654.884 348.501 651.722 353.41 651.722H394.393C399.302 651.722 403.654 654.884 405.171 659.553L417.835 698.53C419.352 703.199 417.69 708.314 413.718 711.2L380.563 735.289Z" fill="#D1F00B"/>
</g>
<defs>
<clipPath id="clip0_40001312_26904">
<rect width="97.9497" height="93.0992" fill="white" transform="matrix(-1 0 0 -1 422.901 738.26)"/>
</clipPath>
<clipPath id="clip1_40001312_26904">
<rect x="259.561" y="735.621" width="97.9497" height="93.0992" rx="13.032" transform="rotate(-152.308 259.561 735.621)" fill="white"/>
</clipPath>
<clipPath id="clip2_40001312_26904">
<rect width="97.9497" height="93.0992" fill="white" transform="translate(111.201 637.27) rotate(-124.615)"/>
</clipPath>
<clipPath id="clip3_40001312_26904">
<rect width="97.9497" height="93.0992" fill="white" transform="translate(11.8066 465.738) rotate(-96.9231)"/>
</clipPath>
<clipPath id="clip4_40001312_26904">
<rect width="97.9497" height="93.0992" fill="white" transform="translate(18.8872 293.334) rotate(-69.2308)"/>
</clipPath>
<clipPath id="clip5_40001312_26904">
<rect width="97.9497" height="93.0992" fill="white" transform="translate(107.887 137.764) rotate(-41.5385)"/>
</clipPath>
<clipPath id="clip6_40001312_26904">
<rect width="97.9497" height="93.0992" fill="white" transform="translate(246.612 23.4414) rotate(-13.8462)"/>
</clipPath>
<clipPath id="clip7_40001312_26904">
<rect width="97.9497" height="93.0992" fill="white" transform="translate(425.565) rotate(13.8462)"/>
</clipPath>
<clipPath id="clip8_40001312_26904">
<rect width="97.9497" height="93.0992" fill="white" transform="translate(603.75 72.8105) rotate(41.5385)"/>
</clipPath>
<clipPath id="clip9_40001312_26904">
<rect width="97.9497" height="93.0992" fill="white" transform="translate(718.064 201.748) rotate(69.2308)"/>
</clipPath>
<clipPath id="clip10_40001312_26904">
<rect width="97.9497" height="93.0992" fill="white" transform="translate(754.124 368.5) rotate(96.9231)"/>
</clipPath>
<clipPath id="clip11_40001312_26904">
<rect width="97.9497" height="93.0992" fill="white" transform="translate(726.604 556.658) rotate(124.615)"/>
</clipPath>
<clipPath id="clip12_40001312_26904">
<rect width="97.9497" height="93.0992" fill="white" transform="translate(607.065 690.102) rotate(152.308)"/>
</clipPath>
<clipPath id="clip13_40001312_26904">
<rect width="97.9497" height="93.0992" fill="white" transform="matrix(-1 0 0 -1 422.901 738.26)"/>
</clipPath>
</defs>
</svg>
