<svg width="48" height="48" viewBox="0 0 48 48" fill="none" xmlns="http://www.w3.org/2000/svg">
<rect width="48" height="48" rx="8" fill="#36363F"/>
<path d="M24.0007 17.7738C25.9582 16.0167 28.9832 16.075 30.8687 17.9645C32.7543 19.8539 32.819 22.8642 31.0653 24.8275L23.9998 31.9042L16.9343 24.8275C15.1807 22.8642 15.2463 19.8492 17.131 17.9645C19.0178 16.0776 22.0375 16.0141 24.0007 17.7738ZM29.689 19.1418C28.4398 17.89 26.4228 17.8392 25.114 19.0141L24.0014 20.0127L22.8883 19.0148C21.5757 17.8383 19.5624 17.8901 18.3095 19.143C17.068 20.3844 17.0057 22.3728 18.1498 23.686L23.9998 29.5453L29.8499 23.686C30.9944 22.3723 30.9323 20.3877 29.689 19.1418Z" fill="#F2F3E5"/>
</svg>
