<svg width="48" height="48" viewBox="0 0 48 48" fill="none" xmlns="http://www.w3.org/2000/svg">
<path d="M36 16H40C41.1046 16 42 16.8954 42 18V42C42 43.1046 41.1046 44 40 44H8C6.89544 44 6 43.1046 6 42V18C6 16.8954 6.89544 16 8 16H12V14C12 7.37258 17.3726 2 24 2C30.6274 2 36 7.37258 36 14V16ZM22 31.4648V36H26V31.4648C27.1956 30.7732 28 29.4806 28 28C28 25.7908 26.2092 24 24 24C21.7908 24 20 25.7908 20 28C20 29.4806 20.8044 30.7732 22 31.4648ZM32 16V14C32 9.58172 28.4182 6 24 6C19.5817 6 16 9.58172 16 14V16H32Z" fill="#2F2F37"/>
</svg>
