<svg width="1495" height="1044" viewBox="0 0 1495 1044" fill="none" xmlns="http://www.w3.org/2000/svg">
<g clip-path="url(#clip0_40000597_27510)">
<path fill-rule="evenodd" clip-rule="evenodd" d="M1494.65 -225.324H1177.02C1200.05 -175.819 1231.99 -129.434 1272.84 -88.5859C1336.4 -25.0206 1413.37 16.9686 1494.65 37.3816V-225.324ZM1494.65 1023.73C1413.37 1044.15 1336.4 1086.14 1272.83 1149.7C1236.73 1185.81 1207.59 1226.24 1185.4 1269.32H1494.65V1023.73ZM302.536 1269.32C279.689 1221.57 248.484 1176.81 208.92 1137.25C148.725 1077.05 76.5094 1036.21 0 1014.71V1269.32H302.536Z" fill="#2B2B32"/>
<path d="M741.096 1026.41C1019.69 1026.41 1245.54 800.565 1245.54 521.969C1245.54 243.372 1019.69 17.5252 741.096 17.5252C462.499 17.5252 236.652 243.372 236.652 521.969C236.652 800.565 462.499 1026.41 741.096 1026.41Z" fill="#1F1F25"/>
<path fill-rule="evenodd" clip-rule="evenodd" d="M1177.63 9.2981e-05C1200.66 49.5053 1232.6 95.8897 1273.44 136.738C1337.01 200.303 1413.98 242.292 1495.26 262.705L1495.26 9.2981e-05L1177.63 9.2981e-05Z" fill="#1F1F25"/>
<path d="M298.718 -0.000164768C276.256 44.832 246.323 86.8767 208.92 124.28C148.726 184.474 76.5099 225.32 0.0006848 246.818L0.000694249 -0.000144932L298.718 -0.000164768Z" fill="#1F1F25"/>
<path fill-rule="evenodd" clip-rule="evenodd" d="M325.304 1042.93C302.276 993.425 270.337 947.041 229.489 906.192C165.924 842.627 88.9527 800.638 7.67668 780.225L7.67666 1042.93L325.304 1042.93Z" fill="#1F1F25"/>
<path d="M1204.48 1042.93C1226.95 998.098 1256.88 956.053 1294.28 918.65C1354.48 858.456 1426.69 817.61 1503.2 796.112L1503.2 1042.93L1204.48 1042.93Z" fill="#1F1F25"/>
</g>
<defs>
<clipPath id="clip0_40000597_27510">
<rect width="1494.65" height="1044" fill="white"/>
</clipPath>
</defs>
</svg>
