<svg preserveAspectRatio="none" width="100%" height="100%" overflow="visible" style="display: block;" viewBox="0 0 407.776 322.29" fill="none" xmlns="http://www.w3.org/2000/svg">
<path id="Mithosis" d="M240.518 303.286C218.449 286.562 187.257 286.06 164.914 302.055C149.48 313.104 132.01 319.334 113.505 319.334C50.818 319.334 0 247.848 0 159.667C0 71.4839 50.818 0 113.505 0C132.953 0 151.258 6.88033 167.258 19.0049C189.328 35.7286 220.519 36.2298 242.861 20.2349C258.296 9.18593 275.767 2.95684 294.271 2.95684C356.959 2.95684 407.776 74.4423 407.776 162.623C407.776 250.806 356.959 322.29 294.271 322.29C274.824 322.29 256.518 315.411 240.518 303.286Z" fill="var(--fill-0, #B38AFF)"/>
</svg>
