<svg width="40" height="40" viewBox="0 0 40 40" fill="none" xmlns="http://www.w3.org/2000/svg">
<g clip-path="url(#clip0_54_83724)">
<path d="M20 0L17.0182 6.93597L11.3223 1.98062L11.6452 9.52346L4.36337 7.5302L7.92702 14.186L0.501442 15.5496L6.6 20L0.501442 24.4504L7.92702 25.814L4.36337 32.4698L11.6452 30.4765L11.3223 38.0194L17.0182 33.064L20 40L22.9818 33.064L28.6777 38.0194L28.3548 30.4765L35.6366 32.4698L32.073 25.814L39.4986 24.4504L33.4 20L39.4986 15.5496L32.073 14.186L35.6366 7.5302L28.3548 9.52346L28.6777 1.98062L22.9818 6.93597L20 0Z" fill="#E768B0"/>
<ellipse cx="3" cy="4" rx="3" ry="4" transform="matrix(-1 0 0 1 19.2985 15.7528)" fill="#F2F3E5"/>
<circle cx="2.1" cy="2.1" r="2.1" transform="matrix(-1 0 0 1 19.4913 17.6622)" fill="#36363F"/>
<ellipse cx="3" cy="4" rx="3" ry="4" transform="matrix(-1 0 0 1 26.6987 15.7528)" fill="#F2F3E5"/>
<circle cx="2.1" cy="2.1" r="2.1" transform="matrix(-1 0 0 1 26.8694 17.6622)" fill="#36363F"/>
</g>
<defs>
<clipPath id="clip0_54_83724">
<rect width="40" height="40" fill="white"/>
</clipPath>
</defs>
</svg>
