<svg width="40" height="40" viewBox="0 0 40 40" fill="none" xmlns="http://www.w3.org/2000/svg">
<g clip-path="url(#clip0_54_83723)">
<path d="M19.8931 37.566C8.7883 37.566 -0.213885 28.6003 -0.213885 17.5408C5.80123 17.5408 10.6774 12.6843 10.6774 6.69367C10.6774 4.50593 10.6774 2.43406 10.6774 2.43406L29.1087 2.43407C29.1087 2.43407 29.1087 4.50593 29.1087 6.69367C29.1087 12.6843 33.9849 17.5408 40 17.5408C40 28.6004 30.9979 37.566 19.8931 37.566Z" fill="#E65800"/>
<ellipse cx="2.84122" cy="3.7883" rx="2.84122" ry="3.7883" transform="matrix(-1 0 0 1 19.053 15.9763)" fill="#F2F3E5"/>
<circle cx="1.98886" cy="1.98886" r="1.98886" transform="matrix(-1 0 0 1 18.1058 19.9985)" fill="#36363F"/>
<ellipse cx="2.84122" cy="3.7883" rx="2.84122" ry="3.7883" transform="matrix(-1 0 0 1 26.6295 15.9763)" fill="#F2F3E5"/>
<circle cx="1.98886" cy="1.98886" r="1.98886" transform="matrix(-1 0 0 1 25.6825 19.9986)" fill="#36363F"/>
</g>
<defs>
<clipPath id="clip0_54_83723">
<rect width="40" height="40" fill="white"/>
</clipPath>
</defs>
</svg>
