<svg width="395" height="68" viewBox="0 0 395 68" fill="none" xmlns="http://www.w3.org/2000/svg">
<rect width="395" height="68" fill="#F08B31"/>
<rect width="48" height="48" transform="translate(10 10)" fill="#F2F3E5"/>
<g clip-path="url(#clip0_54_83813)">
<path d="M34 14L31.0182 20.936L25.3223 15.9806L25.6452 23.5235L18.3634 21.5302L21.927 28.186L14.5014 29.5496L20.6 34L14.5014 38.4504L21.927 39.814L18.3634 46.4698L25.6452 44.4765L25.3223 52.0194L31.0182 47.064L34 54L36.9818 47.064L42.6777 52.0194L42.3548 44.4765L49.6366 46.4698L46.073 39.814L53.4986 38.4504L47.4 34L53.4986 29.5496L46.073 28.186L49.6366 21.5302L42.3548 23.5235L42.6777 15.9806L36.9818 20.936L34 14Z" fill="#E768B0"/>
<ellipse cx="3" cy="4" rx="3" ry="4" transform="matrix(-1 0 0 1 33.2985 29.7528)" fill="#F2F3E5"/>
<circle cx="2.1" cy="2.1" r="2.1" transform="matrix(-1 0 0 1 33.4913 31.6622)" fill="#36363F"/>
<ellipse cx="3" cy="4" rx="3" ry="4" transform="matrix(-1 0 0 1 40.6987 29.7528)" fill="#F2F3E5"/>
<circle cx="2.1" cy="2.1" r="2.1" transform="matrix(-1 0 0 1 40.8694 31.6622)" fill="#36363F"/>
</g>
<path d="M71.5039 28V13.7617H73.6621V25.959H80.5957V28H71.5039ZM87.3734 28V27.1016H87.3344C87.1456 27.4466 86.8526 27.7005 86.4555 27.8633C86.0648 28.0326 85.5245 28.1172 84.8344 28.1172C83.7016 28.1042 82.8292 27.8047 82.2172 27.2188C81.5727 26.6458 81.2504 25.9134 81.2504 25.0215C81.2504 24.1686 81.5303 23.4622 82.0902 22.9023C82.6501 22.3294 83.4704 22.0365 84.5512 22.0234H87.3734V20.959C87.3865 20.0671 86.6931 19.6341 85.2934 19.6602C84.7855 19.6602 84.3852 19.7122 84.0922 19.8164C83.7862 19.9401 83.5453 20.1484 83.3695 20.4414L81.768 19.2207C82.5427 18.2051 83.6853 17.7103 85.1957 17.7363C86.4717 17.7233 87.4906 17.9642 88.2523 18.459C89.0141 18.9668 89.4014 19.8392 89.4145 21.0762V28H87.3734ZM87.3734 24.4355V23.7031H84.932C83.7471 23.7292 83.1612 24.1361 83.1742 24.9238C83.1742 25.2689 83.3272 25.5618 83.6332 25.8027C83.9262 26.0697 84.4112 26.2031 85.0883 26.2031C85.9411 26.2161 86.5434 26.1152 86.8949 25.9004C87.2139 25.6855 87.3734 25.1973 87.3734 24.4355ZM91.6512 28V13.7617H93.6922V18.9375C94.0633 18.5794 94.4702 18.2865 94.9129 18.0586C95.323 17.8438 95.7885 17.7363 96.3094 17.7363C97.5529 17.7689 98.4611 18.2116 99.034 19.0645C99.3139 19.3835 99.506 19.8034 99.6102 20.3242C99.7078 20.8385 99.7566 21.7044 99.7566 22.9219C99.7566 24.1198 99.7078 24.9792 99.6102 25.5C99.506 26.0469 99.3139 26.4798 99.034 26.7988C98.754 27.1895 98.3862 27.502 97.9305 27.7363C97.4813 27.9772 96.9409 28.1042 96.3094 28.1172C95.2417 28.0911 94.3693 27.6973 93.6922 26.9355V28H91.6512ZM95.6941 19.7773C95.2384 19.7773 94.8771 19.8717 94.6102 20.0605C94.3302 20.2493 94.1251 20.4967 93.9949 20.8027C93.8712 21.1087 93.7898 21.4408 93.7508 21.7988C93.7117 22.1569 93.6922 22.5312 93.6922 22.9219C93.6922 23.2799 93.7117 23.6445 93.7508 24.0156C93.7898 24.3932 93.8712 24.735 93.9949 25.041C94.1251 25.347 94.3302 25.5944 94.6102 25.7832C94.8771 25.9785 95.2384 26.0762 95.6941 26.0762C96.1759 26.0762 96.5568 25.985 96.8367 25.8027C97.1167 25.6139 97.3152 25.373 97.4324 25.0801C97.5626 24.7741 97.6505 24.429 97.6961 24.0449C97.7091 23.6803 97.7156 23.306 97.7156 22.9219C97.7156 22.5182 97.7091 22.1243 97.6961 21.7402C97.6505 21.3822 97.5626 21.0501 97.4324 20.7441C97.3152 20.4382 97.1167 20.1973 96.8367 20.0215C96.5568 19.8587 96.1759 19.7773 95.6941 19.7773ZM109.503 23.7031H103.185C103.185 24.5169 103.419 25.1354 103.888 25.5586C104.324 25.9883 104.897 26.2031 105.607 26.2031C106.433 26.2031 107.172 25.8743 107.823 25.2168L109.298 26.4766C108.263 27.5833 107.045 28.1302 105.646 28.1172C105.112 28.1172 104.591 28.0391 104.083 27.8828C103.829 27.7982 103.582 27.6842 103.341 27.541C103.087 27.4173 102.849 27.2643 102.628 27.082C102.198 26.7044 101.85 26.1771 101.583 25.5C101.29 24.849 101.144 24.0026 101.144 22.9609C101.144 21.9583 101.271 21.125 101.525 20.4609C101.779 19.7839 102.104 19.25 102.501 18.8594C102.905 18.4622 103.357 18.1758 103.859 18C104.353 17.8242 104.842 17.7363 105.323 17.7363C106.482 17.7493 107.462 18.1302 108.263 18.8789C109.077 19.6406 109.49 20.6888 109.503 22.0234V23.7031ZM103.185 22.0234H107.462C107.436 21.2357 107.224 20.64 106.827 20.2363C106.437 19.8522 105.935 19.6602 105.323 19.6602C104.711 19.6602 104.21 19.8522 103.82 20.2363C103.435 20.64 103.224 21.2357 103.185 22.0234ZM111.242 25.5391V13.7617H113.283V25.3828C113.283 25.8451 113.537 26.0762 114.045 26.0762H114.748V28H113.839C113.097 28 112.485 27.8145 112.004 27.4434C111.496 27.0658 111.242 26.431 111.242 25.5391Z" fill="#2F2F37"/>
<defs>
<clipPath id="clip0_54_83813">
<rect width="40" height="40" fill="white" transform="translate(14 14)"/>
</clipPath>
</defs>
</svg>
