<svg width="1524" height="1524" viewBox="0 0 1524 1524" fill="none" xmlns="http://www.w3.org/2000/svg">
<path d="M762 0C559.776 0 395.844 163.933 395.844 366.156C395.844 382.552 382.552 395.844 366.156 395.844C163.933 395.844 0 559.776 0 762C0 964.224 163.933 1128.16 366.156 1128.16C382.552 1128.16 395.844 1141.45 395.844 1157.84C395.844 1360.07 559.776 1524 762 1524C964.224 1524 1128.16 1360.07 1128.16 1157.84C1128.16 1141.45 1141.45 1128.16 1157.84 1128.16C1360.07 1128.16 1524 964.224 1524 762C1524 559.776 1360.07 395.844 1157.84 395.844C1141.45 395.844 1128.16 382.552 1128.16 366.156C1128.16 163.933 964.224 0 762 0Z" fill="#1F1F25"/>
</svg>
