<svg width="163" height="180" viewBox="0 0 163 180" fill="none" xmlns="http://www.w3.org/2000/svg">
<g clip-path="url(#clip0_40000964_27066)">
<path d="M21 90C21 56.8629 47.8629 30 81 30V30C114.137 30 141 56.8629 141 90V90C141 123.137 114.137 150 81 150V150C47.8629 150 21 123.137 21 90V90Z" fill="#B1D8C2"/>
<path d="M58.2569 51.1833C40.9387 55.2127 30.1662 72.5183 34.1956 89.8364C34.5223 91.2406 33.6489 92.6438 32.2447 92.9705C14.9266 96.9999 4.15398 114.305 8.18345 131.624C12.2129 148.942 29.5185 159.715 46.8366 155.685C48.2408 155.358 49.6439 156.232 49.9706 157.636C54.0001 174.954 71.3056 185.727 88.6238 181.697C105.942 177.668 116.715 160.362 112.685 143.044C112.359 141.64 113.232 140.237 114.636 139.91C131.954 135.881 142.727 118.575 138.697 101.257C134.668 83.9385 117.362 73.166 100.044 77.1955C98.6399 77.5222 97.237 76.6486 96.9103 75.2445C92.8808 57.9264 75.5751 47.1538 58.2569 51.1833Z" fill="#1A5E36"/>
<rect x="24.2322" y="66" width="18" height="33" rx="4" transform="rotate(19.8993 24.2322 66)" fill="#E65800"/>
<rect width="18" height="33" rx="4" transform="matrix(-0.940292 0.340368 0.340368 0.940292 138.925 69)" fill="#E65800"/>
<path d="M29.0197 81.5L42.0301 56.9247C43.6341 53.8949 46.7814 52 50.2095 52H80.5" stroke="#E65800" stroke-width="11.5686"/>
<path d="M131.98 81.5L118.97 56.9247C117.366 53.8949 114.219 52 110.79 52H80.5" stroke="#E65800" stroke-width="11.5686"/>
<circle cx="80.5" cy="124.5" r="3.5" fill="#F2F3E5"/>
<circle cx="14" cy="14" r="14" transform="matrix(1 0 0 -1 50.3848 113)" fill="#F2F3E5"/>
<circle cx="8.90909" cy="8.90909" r="8.90909" transform="matrix(1 0 0 -1 55 110.719)" fill="#36363F"/>
<circle cx="14" cy="14" r="14" transform="matrix(1 0 0 -1 83.6152 113)" fill="#F2F3E5"/>
<circle cx="8.90909" cy="8.90909" r="8.90909" transform="matrix(1 0 0 -1 89 110.719)" fill="#36363F"/>
</g>
<defs>
<clipPath id="clip0_40000964_27066">
<path d="M21 90C21 56.8629 47.8629 30 81 30V30C114.137 30 141 56.8629 141 90V90C141 123.137 114.137 150 81 150V150C47.8629 150 21 123.137 21 90V90Z" fill="white"/>
</clipPath>
</defs>
</svg>
