<svg width="163" height="180" viewBox="0 0 163 180" fill="none" xmlns="http://www.w3.org/2000/svg">
<g clip-path="url(#clip0_40000964_26939)">
<path d="M21 90C21 56.8629 47.8629 30 81 30V30C114.137 30 141 56.8629 141 90V90C141 123.137 114.137 150 81 150V150C47.8629 150 21 123.137 21 90V90Z" fill="#D6C0FE"/>
<path fill-rule="evenodd" clip-rule="evenodd" d="M143.001 79.3475C148.603 105.479 133.1 131.646 107.35 138.867L81 40.5269C106.911 33.9057 133.42 48.8151 141.635 74.2465C136.107 48.4593 151.131 22.6384 176.273 15.0227L202.611 113.318C177.029 119.294 151.108 104.444 143.001 79.3475Z" fill="#7040C8"/>
<path d="M23.7286 25C8.40826 25 -4.01112 37.4195 -4.01112 52.7397C-4.01112 53.9819 -5.01813 54.9889 -6.2603 54.9889C-21.5805 54.9889 -34 67.4083 -34 82.7286C-34 98.0489 -21.5805 110.468 -6.2603 110.468C-5.01813 110.468 -4.01112 111.475 -4.01112 112.717C-4.01112 128.038 8.40826 140.457 23.7286 140.457C39.0489 140.457 51.4685 128.038 51.4685 112.717C51.4685 111.475 52.4753 110.468 53.7172 110.468C69.0376 110.468 81.4572 98.0489 81.4572 82.7286C81.4572 67.4083 69.0376 54.9889 53.7172 54.9889C52.4753 54.9889 51.4685 53.9819 51.4685 52.7397C51.4685 37.4195 39.0489 25 23.7286 25Z" fill="#1A5E36"/>
<circle cx="23.7287" cy="78.7287" r="12.0627" fill="#F2F3E5"/>
<circle cx="27.6044" cy="81.1025" r="7.67626" fill="#36363F"/>
<circle cx="52.3607" cy="78.7287" r="12.0627" fill="#F2F3E5"/>
<circle cx="56.2368" cy="81.1025" r="7.67626" fill="#36363F"/>
<path d="M46.5715 99.5221C45.3825 100.711 43.9579 101.638 42.3893 102.244C40.8207 102.85 39.1427 103.122 37.463 103.041C35.7833 102.96 34.1391 102.529 32.6359 101.775C31.1327 101.022 29.8037 99.9619 28.7342 98.6642L32.1674 95.8348C32.8424 96.6539 33.6812 97.3228 34.63 97.7986C35.5788 98.2743 36.6166 98.5464 37.6767 98.5974C38.7369 98.6484 39.796 98.4771 40.7861 98.0946C41.7761 97.7122 42.6753 97.1269 43.4258 96.3764L46.5715 99.5221Z" fill="#F2F3E5"/>
<path d="M136.591 99.591C135.402 100.78 133.977 101.707 132.409 102.313C130.84 102.919 129.162 103.191 127.482 103.11C125.803 103.029 124.159 102.598 122.655 101.844C121.152 101.09 119.823 100.031 118.754 98.733L122.187 95.9037C122.862 96.7228 123.701 97.3917 124.649 97.8674C125.598 98.3432 126.636 98.6153 127.696 98.6662C128.756 98.7172 129.815 98.546 130.805 98.1635C131.796 97.781 132.695 97.1957 133.445 96.4452L136.591 99.591Z" fill="#F2F3E5"/>
<circle cx="111.226" cy="77.1173" r="13.1173" fill="#F2F3E5"/>
<circle cx="111.226" cy="77.1173" r="13.1173" fill="#F2F3E5"/>
<circle cx="106.347" cy="78.3474" r="8.34739" fill="#36363F"/>
<circle cx="140.226" cy="73.1173" r="13.1173" fill="#F2F3E5"/>
<circle cx="140.226" cy="73.1173" r="13.1173" fill="#F2F3E5"/>
<circle cx="135.347" cy="74.3474" r="8.34739" fill="#36363F"/>
</g>
<defs>
<clipPath id="clip0_40000964_26939">
<path d="M21 90C21 56.8629 47.8629 30 81 30V30C114.137 30 141 56.8629 141 90V90C141 123.137 114.137 150 81 150V150C47.8629 150 21 123.137 21 90V90Z" fill="white"/>
</clipPath>
</defs>
</svg>
