<svg width="163" height="180" viewBox="0 0 163 180" fill="none" xmlns="http://www.w3.org/2000/svg">
<g clip-path="url(#clip0_40000964_27070)">
<path d="M22 90C22 56.8629 48.8629 30 82 30V30C115.137 30 142 56.8629 142 90V90C142 123.137 115.137 150 82 150V150C48.8629 150 22 123.137 22 90V90Z" fill="#B1D8C2"/>
<path d="M61 23C43.2192 23 28.8052 37.4141 28.8052 55.1948C28.8052 56.6365 27.6365 57.8052 26.1948 57.8052C8.4141 57.8052 -6 72.2192 -6 90C-6 107.781 8.4141 122.195 26.1948 122.195C27.6365 122.195 28.8052 123.364 28.8052 124.805C28.8052 142.586 43.2192 157 61 157C78.7808 157 93.195 142.586 93.195 124.805C93.195 123.364 94.3635 122.195 95.805 122.195C113.586 122.195 128 107.781 128 90C128 72.2192 113.586 57.8052 95.805 57.8052C94.3635 57.8052 93.195 56.6365 93.195 55.1948C93.195 37.4141 78.7808 23 61 23Z" fill="#1A5E36"/>
<path d="M79.3848 86C79.3848 87.8385 79.0226 89.659 78.3191 91.3576C77.6155 93.0561 76.5843 94.5995 75.2843 95.8995C73.9842 97.1995 72.4409 98.2307 70.7423 98.9343C69.0438 99.6379 67.2233 100 65.3848 100C63.5463 100 61.7258 99.6379 60.0272 98.9343C58.3286 98.2307 56.7853 97.1995 55.4853 95.8995C54.1852 94.5995 53.154 93.0561 52.4505 91.3576C51.7469 89.659 51.3848 87.8385 51.3848 86L65.3848 86H79.3848Z" fill="#16472A"/>
<path d="M112.615 86C112.615 87.8385 112.253 89.659 111.55 91.3576C110.846 93.0561 109.815 94.5995 108.515 95.8995C107.215 97.1995 105.671 98.2307 103.973 98.9343C102.274 99.6379 100.454 100 98.6153 100C96.7768 100 94.9563 99.6379 93.2577 98.9343C91.5592 98.2307 90.0158 97.1995 88.7158 95.8995C87.4158 94.5995 86.3845 93.0561 85.681 91.3576C84.9774 89.659 84.6153 87.8385 84.6153 86L98.6153 86H112.615Z" fill="#16472A"/>
<circle cx="82" cy="118" r="4" fill="#F2F3E5"/>
<path d="M88.7109 69V65.875L92.6465 54.9766H89.0918V51.8125H96.2695V54.8203L92.2656 65.8359H96.1035V69H88.7109Z" fill="#F2F3E5"/>
<path d="M97.7109 61V57.875L101.646 46.9766H98.0918V43.8125H105.27V46.8203L101.266 57.8359H105.104V61H97.7109Z" fill="#F2F3E5"/>
<path d="M106.711 65V61.875L110.646 50.9766H107.092V47.8125H114.27V50.8203L110.266 61.8359H114.104V65H106.711Z" fill="#F2F3E5"/>
</g>
<defs>
<clipPath id="clip0_40000964_27070">
<path d="M22 90C22 56.8629 48.8629 30 82 30V30C115.137 30 142 56.8629 142 90V90C142 123.137 115.137 150 82 150V150C48.8629 150 22 123.137 22 90V90Z" fill="white"/>
</clipPath>
</defs>
</svg>
