<svg width="163" height="180" viewBox="0 0 163 180" fill="none" xmlns="http://www.w3.org/2000/svg">
<g clip-path="url(#clip0_40000964_26940)">
<path d="M21 90C21 56.8629 47.8629 30 81 30V30C114.137 30 141 56.8629 141 90V90C141 123.137 114.137 150 81 150V150C47.8629 150 21 123.137 21 90V90Z" fill="#D6C0FE"/>
<path fill-rule="evenodd" clip-rule="evenodd" d="M81.6631 100.32C79.9622 133.877 52.6212 160.61 19 161V33C52.6212 33.3907 79.9622 60.1228 81.6631 93.6802C83.3414 60.5651 109.989 34.0967 143 33.0293V160.971C109.989 159.904 83.3414 133.435 81.6631 100.32Z" fill="#7040C8"/>
<rect x="24.2322" y="66" width="18" height="33" rx="4" transform="rotate(19.8993 24.2322 66)" fill="#E65800"/>
<rect width="18" height="33" rx="4" transform="matrix(-0.940292 0.340368 0.340368 0.940292 138.925 69)" fill="#E65800"/>
<path d="M29.0197 81.5L42.0301 56.9247C43.6341 53.8949 46.7814 52 50.2095 52H80.5" stroke="#E65800" stroke-width="11.5686"/>
<path d="M131.98 81.5L118.97 56.9247C117.366 53.8949 114.219 52 110.79 52H80.5" stroke="#E65800" stroke-width="11.5686"/>
<circle cx="14" cy="14" r="14" transform="matrix(1 0 0 -1 50.3848 106)" fill="#F2F3E5"/>
<circle cx="8.90909" cy="8.90909" r="8.90909" transform="matrix(1 0 0 -1 55 103.719)" fill="#36363F"/>
<circle cx="14" cy="14" r="14" transform="matrix(1 0 0 -1 84.6152 106)" fill="#F2F3E5"/>
<circle cx="8.90909" cy="8.90909" r="8.90909" transform="matrix(1 0 0 -1 90 103.719)" fill="#36363F"/>
</g>
<defs>
<clipPath id="clip0_40000964_26940">
<path d="M21 90C21 56.8629 47.8629 30 81 30V30C114.137 30 141 56.8629 141 90V90C141 123.137 114.137 150 81 150V150C47.8629 150 21 123.137 21 90V90Z" fill="white"/>
</clipPath>
</defs>
</svg>
