<svg width="163" height="180" viewBox="0 0 163 180" fill="none" xmlns="http://www.w3.org/2000/svg">
<g clip-path="url(#clip0_40000964_27068)">
<path d="M21 90C21 56.8629 47.8629 30 81 30V30C114.137 30 141 56.8629 141 90V90C141 123.137 114.137 150 81 150V150C47.8629 150 21 123.137 21 90V90Z" fill="#B1D8C2"/>
<path d="M60 23C42.2192 23 27.8052 37.4141 27.8052 55.1948C27.8052 56.6365 26.6365 57.8052 25.1948 57.8052C7.4141 57.8052 -7 72.2192 -7 90C-7 107.781 7.4141 122.195 25.1948 122.195C26.6365 122.195 27.8052 123.364 27.8052 124.805C27.8052 142.586 42.2192 157 60 157C77.7808 157 92.195 142.586 92.195 124.805C92.195 123.364 93.3635 122.195 94.805 122.195C112.586 122.195 127 107.781 127 90C127 72.2192 112.586 57.8052 94.805 57.8052C93.3635 57.8052 92.195 56.6365 92.195 55.1948C92.195 37.4141 77.7808 23 60 23Z" fill="#1A5E36"/>
<circle cx="64.3848" cy="81.7188" r="14" fill="#F2F3E5"/>
<circle cx="64.3848" cy="81.7188" r="14" fill="#F2F3E5"/>
<circle cx="63.9091" cy="86.9091" r="8.90909" fill="#36363F"/>
<circle cx="97.6152" cy="81.7188" r="14" fill="#F2F3E5"/>
<circle cx="97.9091" cy="86.9091" r="8.90909" fill="#36363F"/>
<path d="M85 103C85 103.525 84.8965 104.045 84.6955 104.531C84.4945 105.016 84.1999 105.457 83.8284 105.828C83.457 106.2 83.016 106.494 82.5307 106.696C82.0454 106.897 81.5253 107 81 107C80.4747 107 79.9546 106.897 79.4693 106.696C78.984 106.494 78.543 106.2 78.1716 105.828C77.8001 105.457 77.5055 105.016 77.3045 104.531C77.1035 104.045 77 103.525 77 103L81 103H85Z" fill="#F08B31"/>
<circle cx="98" cy="109" r="9" fill="#F2F3E5"/>
<circle cx="98" cy="109" r="5" fill="#FDDA3C"/>
<circle cx="114" cy="111" r="7" fill="#58B880"/>
<path d="M31.0366 70.1738L34.3942 67.9998L70 124.5L69 125.5L31.0366 70.1738Z" fill="#FDDA3C"/>
<path d="M25 76.6299L28.0141 74.0002L71.2974 124.859L70.4499 125.991L25 76.6299Z" fill="#FDDA3C"/>
<rect x="24" y="111" width="117" height="57" fill="#E65800"/>
<rect x="75" y="101" width="12" height="2" fill="#384078"/>
<line x1="27.3536" y1="41.3536" x2="21.3536" y2="47.3536" stroke="#2B2B32"/>
</g>
<defs>
<clipPath id="clip0_40000964_27068">
<path d="M21 90C21 56.8629 47.8629 30 81 30V30C114.137 30 141 56.8629 141 90V90C141 123.137 114.137 150 81 150V150C47.8629 150 21 123.137 21 90V90Z" fill="white"/>
</clipPath>
</defs>
</svg>
