<svg width="163" height="180" viewBox="0 0 163 180" fill="none" xmlns="http://www.w3.org/2000/svg">
<g clip-path="url(#clip0_40000964_26943)">
<rect x="25" y="34" width="112.434" height="112.434" rx="56.2171" fill="#D6C0FE"/>
<path d="M120 171C79.1309 171 46 138.079 46 97.47C68.1375 97.47 86.0836 79.6376 86.0836 57.6408C86.0836 49.6076 86.0836 42 86.0836 42L153.916 42C153.916 42 153.916 49.6076 153.916 57.6408C153.916 79.6376 171.863 97.47 194 97.47C194 138.079 160.869 171 120 171Z" fill="#E65800"/>
<circle cx="11.9662" cy="11.9662" r="11.9662" transform="matrix(-1 0 0 1 119.942 56)" fill="#F2F3E5"/>
<mask id="mask0_40000964_26943" style="mask-type:alpha" maskUnits="userSpaceOnUse" x="96" y="56" width="24" height="24">
<circle cx="11.9662" cy="11.9662" r="11.9662" transform="matrix(-1 0 0 1 119.942 56)" fill="#F2F3E5"/>
</mask>
<g mask="url(#mask0_40000964_26943)">
<circle cx="7.61484" cy="7.61484" r="7.61484" transform="matrix(-1 0 0 1 113.549 56.4731)" fill="#36363F"/>
</g>
<circle cx="135.633" cy="67.9662" r="11.9662" fill="#F2F3E5"/>
<circle cx="135.633" cy="67.9662" r="11.9662" fill="#F2F3E5"/>
<mask id="mask1_40000964_26943" style="mask-type:alpha" maskUnits="userSpaceOnUse" x="123" y="56" width="25" height="24">
<circle cx="135.633" cy="67.9662" r="11.9662" fill="#F2F3E5"/>
</mask>
<g mask="url(#mask1_40000964_26943)">
<circle cx="139.362" cy="70.4557" r="7.61484" fill="#36363F"/>
</g>
<path fill-rule="evenodd" clip-rule="evenodd" d="M81.6096 133.897C80.0459 164.838 54.9098 189.487 24 189.847V71.8237C54.9098 72.184 80.0459 96.8325 81.6096 127.774C83.1526 97.2404 107.651 72.8349 138 71.8507V189.821C107.651 188.836 83.1526 164.431 81.6096 133.897Z" fill="#7040C8"/>
<circle cx="66.6497" cy="121.729" r="13.1173" fill="#F2F3E5"/>
<circle cx="66.6497" cy="121.729" r="13.1173" fill="#F2F3E5"/>
<circle cx="67.1203" cy="116.978" r="8.34739" fill="#36363F"/>
<circle cx="97.7848" cy="121.729" r="13.1173" fill="#F2F3E5"/>
<circle cx="98.5286" cy="116.978" r="8.34739" fill="#36363F"/>
<path d="M35.7286 17C20.4083 17 7.98888 29.4195 7.98888 44.7397C7.98888 45.9819 6.98187 46.9889 5.7397 46.9889C-9.58052 46.9889 -22 59.4083 -22 74.7286C-22 90.0489 -9.58052 102.468 5.7397 102.468C6.98187 102.468 7.98888 103.475 7.98888 104.717C7.98888 120.038 20.4083 132.457 35.7286 132.457C51.0489 132.457 63.4685 120.038 63.4685 104.717C63.4685 103.475 64.4753 102.468 65.7172 102.468C81.0376 102.468 93.4572 90.0489 93.4572 74.7286C93.4572 59.4083 81.0376 46.9889 65.7172 46.9889C64.4753 46.9889 63.4685 45.9819 63.4685 44.7397C63.4685 29.4195 51.0489 17 35.7286 17Z" fill="#1A5E36"/>
<circle cx="36.0627" cy="69.0627" r="12.0627" fill="#F2F3E5"/>
<circle cx="39.9383" cy="71.4365" r="7.67626" fill="#36363F"/>
<circle cx="64.6946" cy="69.0627" r="12.0627" fill="#F2F3E5"/>
<circle cx="68.5707" cy="71.4365" r="7.67626" fill="#36363F"/>
<path d="M58.5715 91.5221C57.3825 92.7112 55.9579 93.6385 54.3893 94.2445C52.8207 94.8505 51.1427 95.1218 49.463 95.041C47.7833 94.9602 46.1391 94.5291 44.6359 93.7754C43.1327 93.0216 41.8037 91.9619 40.7342 90.6642L44.1674 87.8348C44.8424 88.6539 45.6812 89.3228 46.63 89.7986C47.5788 90.2743 48.6166 90.5464 49.6767 90.5974C50.7369 90.6484 51.796 90.4771 52.7861 90.0946C53.7761 89.7122 54.6753 89.1269 55.4258 88.3764L58.5715 91.5221Z" fill="#F2F3E5"/>
</g>
<defs>
<clipPath id="clip0_40000964_26943">
<rect x="25" y="34" width="112.434" height="112.434" rx="56.2171" fill="white"/>
</clipPath>
</defs>
</svg>
