<svg width="163" height="180" viewBox="0 0 163 180" fill="none" xmlns="http://www.w3.org/2000/svg">
<g clip-path="url(#clip0_40000964_27069)">
<path d="M25 90.2171C25 59.1693 50.1693 34 81.2171 34V34C112.265 34 137.434 59.1693 137.434 90.2171V90.2171C137.434 121.265 112.265 146.434 81.2171 146.434V146.434C50.1693 146.434 25 121.265 25 90.2171V90.2171Z" fill="#B1D8C2"/>
<path d="M120 182C79.1309 182 46 149.079 46 108.47C68.1375 108.47 86.0836 90.6376 86.0836 68.6408C86.0836 60.6076 86.0836 53 86.0836 53L153.916 53C153.916 53 153.916 60.6076 153.916 68.6408C153.916 90.6376 171.863 108.47 194 108.47C194 149.079 160.869 182 120 182Z" fill="#E65800"/>
<circle cx="11.9662" cy="11.9662" r="11.9662" transform="matrix(-1 0 0 1 119.942 67.251)" fill="#F2F3E5"/>
<mask id="mask0_40000964_27069" style="mask-type:alpha" maskUnits="userSpaceOnUse" x="96" y="67" width="24" height="25">
<circle cx="11.9662" cy="11.9662" r="11.9662" transform="matrix(-1 0 0 1 119.942 67.251)" fill="#F2F3E5"/>
</mask>
<g mask="url(#mask0_40000964_27069)">
<circle cx="7.61484" cy="7.61484" r="7.61484" transform="matrix(-1 0 0 1 113.549 67.7241)" fill="#36363F"/>
</g>
<circle cx="135.633" cy="79.2171" r="11.9662" fill="#F2F3E5"/>
<circle cx="135.633" cy="79.2171" r="11.9662" fill="#F2F3E5"/>
<mask id="mask1_40000964_27069" style="mask-type:alpha" maskUnits="userSpaceOnUse" x="123" y="67" width="25" height="25">
<circle cx="135.633" cy="79.2171" r="11.9662" fill="#F2F3E5"/>
</mask>
<g mask="url(#mask1_40000964_27069)">
<circle cx="139.362" cy="81.7066" r="7.61484" fill="#36363F"/>
</g>
<path d="M39.7286 6C24.4083 6 11.9889 18.4195 11.9889 33.7397C11.9889 34.9819 10.9819 35.9889 9.7397 35.9889C-5.58052 35.9889 -18 48.4083 -18 63.7286C-18 79.0489 -5.58052 91.4685 9.7397 91.4685C10.9819 91.4685 11.9889 92.4753 11.9889 93.7172C11.9889 109.038 24.4083 121.457 39.7286 121.457C55.0489 121.457 67.4685 109.038 67.4685 93.7172C67.4685 92.4753 68.4753 91.4685 69.7172 91.4685C85.0376 91.4685 97.4572 79.0489 97.4572 63.7286C97.4572 48.4083 85.0376 35.9889 69.7172 35.9889C68.4753 35.9889 67.4685 34.9819 67.4685 33.7397C67.4685 18.4195 55.0489 6 39.7286 6Z" fill="#1A5E36"/>
<circle cx="39.7287" cy="59.7287" r="12.0627" fill="#F2F3E5"/>
<circle cx="43.6043" cy="62.1025" r="7.67626" fill="#36363F"/>
<circle cx="68.3607" cy="59.7287" r="12.0627" fill="#F2F3E5"/>
<circle cx="72.2367" cy="62.1025" r="7.67626" fill="#36363F"/>
<path d="M62.5715 80.5221C61.3825 81.7112 59.9579 82.6385 58.3893 83.2445C56.8207 83.8505 55.1427 84.1218 53.463 84.041C51.7833 83.9602 50.1391 83.5291 48.6359 82.7754C47.1327 82.0216 45.8037 80.9619 44.7342 79.6642L48.1674 76.8348C48.8424 77.6539 49.6812 78.3228 50.63 78.7986C51.5788 79.2743 52.6166 79.5464 53.6767 79.5974C54.7369 79.6484 55.796 79.4771 56.7861 79.0946C57.7761 78.7122 58.6753 78.1269 59.4258 77.3764L62.5715 80.5221Z" fill="#F2F3E5"/>
<path d="M90.3151 198.761C85.7176 202.101 79.4922 202.101 74.8948 198.761L29.2752 165.616C24.6777 162.276 22.7539 156.355 24.51 150.95L41.9351 97.3213C43.6912 91.9166 48.7277 88.2574 54.4105 88.2574L110.799 88.2574C116.482 88.2574 121.519 91.9166 123.275 97.3213L140.7 150.95C142.456 156.355 140.532 162.276 135.935 165.616L90.3151 198.761Z" fill="#3F50B8"/>
<circle cx="65.6497" cy="112.954" r="13.1173" fill="#F2F3E5"/>
<circle cx="65.6497" cy="112.954" r="13.1173" fill="#F2F3E5"/>
<circle cx="66.1203" cy="108.203" r="8.34739" fill="#36363F"/>
<circle cx="96.7848" cy="112.954" r="13.1173" fill="#F2F3E5"/>
<circle cx="97.5286" cy="108.203" r="8.34739" fill="#36363F"/>
<circle cx="80.4567" cy="136.504" r="3.48981" fill="#F2F3E5"/>
</g>
<defs>
<clipPath id="clip0_40000964_27069">
<path d="M25 90.2171C25 59.1693 50.1693 34 81.2171 34V34C112.265 34 137.434 59.1693 137.434 90.2171V90.2171C137.434 121.265 112.265 146.434 81.2171 146.434V146.434C50.1693 146.434 25 121.265 25 90.2171V90.2171Z" fill="white"/>
</clipPath>
</defs>
</svg>
