<svg width="163" height="180" viewBox="0 0 163 180" fill="none" xmlns="http://www.w3.org/2000/svg">
<g clip-path="url(#clip0_40000964_27067)">
<path d="M21 90C21 56.8629 47.8629 30 81 30V30C114.137 30 141 56.8629 141 90V90C141 123.137 114.137 150 81 150V150C47.8629 150 21 123.137 21 90V90Z" fill="#B1D8C2"/>
<path d="M58.0077 73.7992C41.021 79.0537 31.5103 97.0836 36.7647 114.07C37.1908 115.447 36.4196 116.909 35.0423 117.335C18.0557 122.59 8.54492 140.62 13.7994 157.606C19.0539 174.593 37.0838 184.104 54.0704 178.849C55.4477 178.423 56.9095 179.194 57.3355 180.571C62.5899 197.558 80.6198 207.069 97.6065 201.815C114.593 196.56 124.104 178.53 118.85 161.543C118.424 160.166 119.195 158.705 120.572 158.279C137.558 153.024 147.069 134.994 141.815 118.008C136.56 101.021 118.53 91.5102 101.544 96.7647C100.167 97.1906 98.7049 96.4194 98.2788 95.0421C93.0244 78.0555 74.9944 68.5448 58.0077 73.7992Z" fill="#1A5E36"/>
<circle cx="14" cy="14" r="14" transform="matrix(1 0 0 -1 50.3848 132.1)" fill="#F2F3E5"/>
<circle cx="38" cy="38" r="38" transform="matrix(1 0 0 -1 43 68)" fill="#F2F3E5"/>
<mask id="mask0_40000964_27067" style="mask-type:alpha" maskUnits="userSpaceOnUse" x="43" y="-8" width="76" height="76">
<circle cx="38" cy="38" r="38" transform="matrix(1 0 0 -1 43 68)" fill="#E0E2C0"/>
</mask>
<g mask="url(#mask0_40000964_27067)">
<path d="M78.018 40.722C79.4313 39.6952 81.345 39.6952 82.7583 40.722L94.5551 49.2929C95.9683 50.3197 96.5597 52.1398 96.0199 53.8012L91.5139 67.6691C90.9741 69.3305 89.4259 70.4554 87.6789 70.4554H73.0973C71.3504 70.4554 69.8021 69.3305 69.2623 67.6691L64.7563 53.8012C64.2165 52.1398 64.8079 50.3197 66.2212 49.2929L78.018 40.722Z" fill="#36363F"/>
<path d="M34.5627 20.0279C35.4859 18.5448 37.2591 17.825 38.9548 18.2447L53.1093 21.7486C54.805 22.1684 56.0376 23.6323 56.1623 25.3747L57.2039 39.9191C57.3287 41.6616 56.3173 43.2862 54.6987 43.9433L41.188 49.4284C39.5694 50.0855 37.7118 49.6257 36.5867 48.2894L27.195 37.1349C26.0699 35.7986 25.9332 33.8898 26.8564 32.4068L34.5627 20.0279Z" fill="#36363F"/>
<path d="M128.044 20.0279C127.121 18.5448 125.348 17.825 123.652 18.2447L109.498 21.7486C107.802 22.1684 106.57 23.6323 106.445 25.3747L105.403 39.9191C105.278 41.6616 106.29 43.2862 107.908 43.9433L121.419 49.4284C123.038 50.0855 124.895 49.6257 126.021 48.2894L135.412 37.1349C136.537 35.7986 136.674 33.8898 135.751 32.4068L128.044 20.0279Z" fill="#36363F"/>
</g>
<circle cx="8.90909" cy="8.90909" r="8.90909" transform="matrix(1 0 0 -1 55 121.818)" fill="#36363F"/>
<circle cx="14" cy="14" r="14" transform="matrix(1 0 0 -1 83.6152 132.1)" fill="#F2F3E5"/>
<circle cx="8.90909" cy="8.90909" r="8.90909" transform="matrix(1 0 0 -1 89 121.818)" fill="#36363F"/>
</g>
<defs>
<clipPath id="clip0_40000964_27067">
<path d="M21 90C21 56.8629 47.8629 30 81 30V30C114.137 30 141 56.8629 141 90V90C141 123.137 114.137 150 81 150V150C47.8629 150 21 123.137 21 90V90Z" fill="white"/>
</clipPath>
</defs>
</svg>
