<svg width="163" height="180" viewBox="0 0 163 180" fill="none" xmlns="http://www.w3.org/2000/svg">
<g clip-path="url(#clip0_40000964_26944)">
<path d="M22 90C22 56.8629 48.8629 30 82 30V30C115.137 30 142 56.8629 142 90V90C142 123.137 115.137 150 82 150V150C48.8629 150 22 123.137 22 90V90Z" fill="#D6C0FE"/>
<path fill-rule="evenodd" clip-rule="evenodd" d="M82.9091 94.5647C80.5773 140.706 43.0936 177.463 -3 178V2C43.0936 2.53721 80.5773 39.2938 82.9091 85.4353C85.21 39.902 121.743 3.50796 167 2.04026V177.96C121.743 176.493 85.21 140.098 82.9091 94.5647Z" fill="#7040C8"/>
<path d="M79.3848 86C79.3848 87.8385 79.0226 89.659 78.3191 91.3576C77.6155 93.0561 76.5843 94.5995 75.2843 95.8995C73.9842 97.1995 72.4409 98.2307 70.7423 98.9343C69.0438 99.6379 67.2233 100 65.3848 100C63.5463 100 61.7258 99.6379 60.0272 98.9343C58.3286 98.2307 56.7853 97.1995 55.4853 95.8995C54.1852 94.5995 53.154 93.0561 52.4505 91.3576C51.7469 89.659 51.3848 87.8385 51.3848 86L65.3848 86H79.3848Z" fill="#4C307F"/>
<path d="M112.615 86C112.615 87.8385 112.253 89.659 111.55 91.3576C110.846 93.0561 109.815 94.5995 108.515 95.8995C107.215 97.1995 105.671 98.2307 103.973 98.9343C102.274 99.6379 100.454 100 98.6153 100C96.7768 100 94.9563 99.6379 93.2577 98.9343C91.5592 98.2307 90.0158 97.1995 88.7158 95.8995C87.4158 94.5995 86.3845 93.0561 85.681 91.3576C84.9774 89.659 84.6153 87.8385 84.6153 86L98.6153 86H112.615Z" fill="#4C307F"/>
<path d="M97.7109 73V69.875L101.646 58.9766H98.0918V55.8125H105.27V58.8203L101.266 69.8359H105.104V73H97.7109Z" fill="#F2F3E5"/>
<path d="M106.711 65V61.875L110.646 50.9766H107.092V47.8125H114.27V50.8203L110.266 61.8359H114.104V65H106.711Z" fill="#F2F3E5"/>
<path d="M115.711 69V65.875L119.646 54.9766H116.092V51.8125H123.27V54.8203L119.266 65.8359H123.104V69H115.711Z" fill="#F2F3E5"/>
</g>
<defs>
<clipPath id="clip0_40000964_26944">
<path d="M22 90C22 56.8629 48.8629 30 82 30V30C115.137 30 142 56.8629 142 90V90C142 123.137 115.137 150 82 150V150C48.8629 150 22 123.137 22 90V90Z" fill="white"/>
</clipPath>
</defs>
</svg>
