<svg width="163" height="180" viewBox="0 0 163 180" fill="none" xmlns="http://www.w3.org/2000/svg">
<g clip-path="url(#clip0_40000964_15270)">
<path d="M25 90.2171C25 59.1693 50.1693 34 81.2171 34V34C112.265 34 137.434 59.1693 137.434 90.2171V90.2171C137.434 121.265 112.265 146.434 81.2171 146.434V146.434C50.1693 146.434 25 121.265 25 90.2171V90.2171Z" fill="#F3BEAF"/>
<path d="M150 58.2527L85.5 100L21 58.2526L21 -31L150 -31L150 58.2527Z" fill="#E65800"/>
<circle cx="65.6496" cy="56.1173" r="13.1173" fill="#F2F3E5"/>
<circle cx="65.6496" cy="56.1173" r="13.1173" fill="#F2F3E5"/>
<circle cx="65.3474" cy="60.9475" r="8.34739" fill="#36363F"/>
<circle cx="96.7848" cy="56.1173" r="13.1173" fill="#F2F3E5"/>
<circle cx="96.7556" cy="60.9475" r="8.34739" fill="#36363F"/>
<circle cx="80.4566" cy="79.6675" r="3.48981" fill="#F2F3E5"/>
<path d="M117.891 178.761C113.294 182.101 107.069 182.101 102.471 178.761L56.8514 145.616C52.254 142.276 50.3302 136.355 52.0863 130.95L69.5114 77.3213C71.2675 71.9166 76.304 68.2574 81.9868 68.2574L138.376 68.2574C144.058 68.2574 149.095 71.9166 150.851 77.3213L168.276 130.95C170.032 136.355 168.108 142.276 163.511 145.616L117.891 178.761Z" fill="#3F50B8"/>
<circle cx="11.9662" cy="11.9662" r="11.9662" transform="matrix(-0.999845 0.0175857 0.0175857 0.999845 107.929 87.4863)" fill="#F2F3E5"/>
<mask id="mask0_40000964_15270" style="mask-type:alpha" maskUnits="userSpaceOnUse" x="84" y="87" width="25" height="25">
<circle cx="11.9662" cy="11.9662" r="11.9662" transform="matrix(-0.999845 0.0175857 0.0175857 0.999845 107.929 87.4863)" fill="#F2F3E5"/>
</mask>
<g mask="url(#mask0_40000964_15270)">
<circle cx="7.61484" cy="7.61484" r="7.61484" transform="matrix(-0.999845 0.0175857 0.0175857 0.999845 101.546 88.072)" fill="#36363F"/>
</g>
<circle cx="123.828" cy="99.1748" r="11.9662" transform="rotate(-1.00764 123.828 99.1748)" fill="#F2F3E5"/>
<circle cx="123.828" cy="99.1748" r="11.9662" transform="rotate(-1.00764 123.828 99.1748)" fill="#F2F3E5"/>
<mask id="mask1_40000964_15270" style="mask-type:alpha" maskUnits="userSpaceOnUse" x="111" y="87" width="25" height="25">
<circle cx="123.828" cy="99.1748" r="11.9662" transform="rotate(-1.00764 123.828 99.1748)" fill="#F2F3E5"/>
</mask>
<g mask="url(#mask1_40000964_15270)">
<circle cx="127.6" cy="101.598" r="7.61484" transform="rotate(-1.00764 127.6 101.598)" fill="#36363F"/>
</g>
<path d="M27.7286 51C12.4083 51 -0.0111172 63.4195 -0.0111172 78.7397C-0.0111172 79.9819 -1.01813 80.9889 -2.2603 80.9889C-17.5805 80.9889 -30 93.4083 -30 108.729C-30 124.049 -17.5805 136.468 -2.2603 136.468C-1.01813 136.468 -0.0111172 137.475 -0.0111172 138.717C-0.0111172 154.038 12.4083 166.457 27.7286 166.457C43.0489 166.457 55.4685 154.038 55.4685 138.717C55.4685 137.475 56.4753 136.468 57.7172 136.468C73.0376 136.468 85.4572 124.049 85.4572 108.729C85.4572 93.4083 73.0376 80.9889 57.7172 80.9889C56.4753 80.9889 55.4685 79.9819 55.4685 78.7397C55.4685 63.4195 43.0489 51 27.7286 51Z" fill="#1A5E36"/>
<circle cx="27.7287" cy="104.729" r="12.0627" fill="#F2F3E5"/>
<circle cx="31.6043" cy="107.103" r="7.67626" fill="#36363F"/>
<circle cx="56.3607" cy="104.728" r="12.0627" fill="#F2F3E5"/>
<circle cx="60.2367" cy="107.102" r="7.67626" fill="#36363F"/>
<path d="M50.5715 125.522C49.3825 126.711 47.9579 127.638 46.3893 128.244C44.8207 128.85 43.1427 129.122 41.463 129.041C39.7833 128.96 38.1391 128.529 36.6359 127.775C35.1327 127.022 33.8037 125.962 32.7342 124.664L36.1674 121.835C36.8424 122.654 37.6812 123.323 38.63 123.799C39.5788 124.274 40.6166 124.546 41.6767 124.597C42.7369 124.648 43.796 124.477 44.7861 124.095C45.7761 123.712 46.6753 123.127 47.4258 122.376L50.5715 125.522Z" fill="#F2F3E5"/>
</g>
<defs>
<clipPath id="clip0_40000964_15270">
<path d="M25 90.2171C25 59.1693 50.1693 34 81.2171 34V34C112.265 34 137.434 59.1693 137.434 90.2171V90.2171C137.434 121.265 112.265 146.434 81.2171 146.434V146.434C50.1693 146.434 25 121.265 25 90.2171V90.2171Z" fill="white"/>
</clipPath>
</defs>
</svg>
