<svg width="180" height="180" viewBox="0 0 180 180" fill="none" xmlns="http://www.w3.org/2000/svg">
<style>
@keyframes blink {
  0%, 84%, 100% { transform: scaleY(1); }
  88% { transform: scaleY(0.06); }
  93% { transform: scaleY(1); }
}
@keyframes look {
  0%, 100% { transform: translate(0px, 0px); }
  20%  { transform: translate(2.5px, -1px); }
  45%  { transform: translate(2px, 1.5px); }
  70%  { transform: translate(-2.5px, 0.5px); }
  90%  { transform: translate(-1px, -1.5px); }
}
.eye-l {
  transform-origin: 74.9207px 81.866px;
  animation: blink 3.8s ease-in-out infinite;
}
.eye-r {
  transform-origin: 107.079px 81.866px;
  animation: blink 3.8s ease-in-out infinite 0.015s;
}
.pupil-l {
  transform-box: fill-box; transform-origin: center;
  animation: look 7s ease-in-out infinite 0.5s;
}
.pupil-r {
  transform-box: fill-box; transform-origin: center;
  animation: look 7s ease-in-out infinite 0.8s;
}
</style>
<path d="M52 13.5C30.737 13.5 13.5 30.737 13.5 52C13.5 73.2633 30.737 90.5 52 90.5C30.737 90.5 13.5 107.737 13.5 129C13.5 150.263 30.737 167.5 52 167.5C73.2633 167.5 90.5 150.263 90.5 129C90.5 150.263 107.737 167.5 129 167.5C150.263 167.5 167.5 150.263 167.5 129C167.5 107.737 150.263 90.5 129 90.5C150.263 90.5 167.5 73.2633 167.5 52C167.5 30.737 150.263 13.5 129 13.5C107.737 13.5 90.5 30.737 90.5 52C90.5 30.737 73.2633 13.5 52 13.5Z" fill="#3F50B8"/>
<g class="eye-l">
  <ellipse cx="74.9207" cy="81.866" rx="13.3995" ry="17.866" fill="#F2F3E5"/>
  <circle class="pupil-l" cx="74.9207" cy="90.6204" r="9.37964" fill="#3F50B8"/>
</g>
<g class="eye-r">
  <ellipse cx="107.079" cy="81.866" rx="13.3995" ry="17.866" fill="#F2F3E5"/>
  <circle class="pupil-r" cx="107.079" cy="90.6204" r="9.37964" fill="#3F50B8"/>
</g>
</svg>
