<svg width="163" height="180" viewBox="0 0 163 180" fill="none" xmlns="http://www.w3.org/2000/svg">
<g clip-path="url(#clip0_40000964_15258)">
<path d="M22 90C22 56.8629 48.8629 30 82 30V30C115.137 30 142 56.8629 142 90V90C142 123.137 115.137 150 82 150V150C48.8629 150 22 123.137 22 90V90Z" fill="#F3BEAF"/>
<path d="M147 93.2527L82.5 135L18 93.2526L18 4.00001L147 4.00002L147 93.2527Z" fill="#E65800"/>
<path d="M79.3848 84C79.3848 85.8385 79.0226 87.659 78.3191 89.3576C77.6155 91.0561 76.5843 92.5995 75.2843 93.8995C73.9842 95.1995 72.4409 96.2307 70.7423 96.9343C69.0438 97.6379 67.2233 98 65.3848 98C63.5463 98 61.7258 97.6379 60.0272 96.9343C58.3286 96.2307 56.7853 95.1995 55.4853 93.8995C54.1852 92.5995 53.154 91.0561 52.4505 89.3576C51.7469 87.659 51.3848 85.8385 51.3848 84L65.3848 84H79.3848Z" fill="#AE4300"/>
<path d="M112.615 84C112.615 85.8385 112.253 87.659 111.55 89.3576C110.846 91.0561 109.815 92.5995 108.515 93.8995C107.215 95.1995 105.671 96.2307 103.973 96.9343C102.274 97.6379 100.454 98 98.6152 98C96.7767 98 94.9562 97.6379 93.2577 96.9343C91.5591 96.2307 90.0158 95.1995 88.7157 93.8995C87.4157 92.5995 86.3845 91.0561 85.6809 89.3576C84.9774 87.659 84.6152 85.8385 84.6152 84L98.6152 84H112.615Z" fill="#AE4300"/>
<path d="M88.7109 69V65.875L92.6465 54.9766H89.0918V51.8125H96.2695V54.8203L92.2656 65.8359H96.1035V69H88.7109Z" fill="#F2F3E5"/>
<path d="M97.7109 61V57.875L101.646 46.9766H98.0918V43.8125H105.27V46.8203L101.266 57.8359H105.104V61H97.7109Z" fill="#F2F3E5"/>
<path d="M106.711 65V61.875L110.646 50.9766H107.092V47.8125H114.27V50.8203L110.266 61.8359H114.104V65H106.711Z" fill="#F2F3E5"/>
</g>
<defs>
<clipPath id="clip0_40000964_15258">
<path d="M22 90C22 56.8629 48.8629 30 82 30V30C115.137 30 142 56.8629 142 90V90C142 123.137 115.137 150 82 150V150C48.8629 150 22 123.137 22 90V90Z" fill="white"/>
</clipPath>
</defs>
</svg>
