<svg width="180" height="180" viewBox="0 0 180 180" fill="none" xmlns="http://www.w3.org/2000/svg">
<path d="M52 13.5C30.737 13.5 13.5 30.737 13.5 52C13.5 73.2633 30.737 90.5 52 90.5C30.737 90.5 13.5 107.737 13.5 129C13.5 150.263 30.737 167.5 52 167.5C73.2633 167.5 90.5 150.263 90.5 129C90.5 150.263 107.737 167.5 129 167.5C150.263 167.5 167.5 150.263 167.5 129C167.5 107.737 150.263 90.5 129 90.5C150.263 90.5 167.5 73.2633 167.5 52C167.5 30.737 150.263 13.5 129 13.5C107.737 13.5 90.5 30.737 90.5 52C90.5 30.737 73.2633 13.5 52 13.5Z" fill="#3F50B8"/>
<circle cx="73" cy="83.7998" r="10.5" fill="#384078"/>
<ellipse cx="73" cy="70.5" rx="15" ry="16.5" fill="#3F50B8"/>
<circle cx="109" cy="83.7998" r="10.5" fill="#384078"/>
<ellipse cx="109" cy="70.5" rx="15" ry="16.5" fill="#3F50B8"/>
</svg>
