<svg width="238" height="241" viewBox="0 0 238 241" fill="none" xmlns="http://www.w3.org/2000/svg">
<g clip-path="url(#clip0_40000998_50807)">
<rect width="237.5" height="241" rx="16" fill="#3F50B8"/>
<path fill-rule="evenodd" clip-rule="evenodd" d="M390.049 27.312C375.718 37.302 358.293 43.16 339.5 43.16C290.623 43.16 251 3.537 251 -45.34C251 -75.2723 265.859 -101.734 288.604 -117.75C232.653 -115.446 188 -69.3576 188 -12.84C188 45.15 235.01 92.16 293 92.16C336.768 92.16 374.282 65.38 390.049 27.312Z" fill="#F2C94C"/>
<path fill-rule="evenodd" clip-rule="evenodd" d="M157.762 104.25C184.188 104.25 205.61 125.672 205.61 152.098C205.61 178.524 184.188 199.946 157.762 199.946C131.336 199.946 109.914 178.524 109.914 152.098C109.914 125.672 131.336 104.25 157.762 104.25ZM77.8266 349.977C56.4477 334.445 51.7084 304.522 67.2411 283.143C82.7737 261.764 112.696 257.025 134.075 272.558C155.454 288.09 160.193 318.013 144.661 339.392C129.128 360.771 99.2054 365.51 77.8266 349.977ZM248.438 283.143C263.971 304.522 259.232 334.445 237.853 349.977C216.474 365.51 186.551 360.771 171.019 339.392C155.486 318.013 160.225 288.09 181.604 272.558C202.983 257.025 232.906 261.764 248.438 283.143ZM28.3548 198.037C36.5208 172.905 63.5144 159.151 88.6468 167.317C113.779 175.483 127.533 202.477 119.367 227.609C111.201 252.741 84.2074 266.495 59.0751 258.329C33.9427 250.163 20.1888 223.17 28.3548 198.037ZM226.845 167.317C251.978 159.151 278.971 172.905 287.137 198.037C295.303 223.17 281.549 250.163 256.417 258.329C231.284 266.495 204.291 252.741 196.125 227.609C187.959 202.477 201.713 175.483 226.845 167.317Z" fill="#2F80ED"/>
<path d="M-40.8825 76.0451L15.1007 -29.5286C41.2785 -19.5536 31.5718 13.0203 56.322 26.1448C81.0723 39.2693 102.59 12.9587 125.535 29.032L69.5514 134.606C43.3734 124.631 53.0804 92.0566 28.3301 78.9321C3.57991 65.8077 -17.9385 92.1185 -40.8825 76.0451Z" fill="#50B0A1"/>
</g>
<defs>
<clipPath id="clip0_40000998_50807">
<rect width="237.5" height="241" rx="16" fill="white"/>
</clipPath>
</defs>
</svg>
