<svg width="238" height="241" viewBox="0 0 238 241" fill="none" xmlns="http://www.w3.org/2000/svg">
<g clip-path="url(#clip0_40000998_50803)">
<rect width="237.5" height="241" rx="16" fill="#3F50B8"/>
<path fill-rule="evenodd" clip-rule="evenodd" d="M-8.49551 139.016C61.5156 57.5198 129.838 178.066 25.2441 197.591C129.838 217.965 60.672 337.662 -8.49551 256.165C26.9312 358.035 -110.56 357.187 -75.1323 256.165C-145.143 337.662 -213.467 217.965 -108.873 197.591C-214.311 178.066 -145.143 58.3687 -75.1323 139.016C-111.403 37.9948 26.9312 37.9948 -8.49551 139.016ZM-42.2363 182.311C-33.8005 182.311 -26.2095 189.102 -26.2095 197.591C-26.2095 206.08 -33.8005 213.721 -42.2363 213.721C-50.6709 213.721 -57.4195 206.08 -57.4195 197.591C-57.4195 189.102 -50.6709 182.311 -42.2363 182.311Z" fill="#B38AFF"/>
<path fill-rule="evenodd" clip-rule="evenodd" d="M277.595 31.7724L333.112 -45.4325C269.888 -90.8952 181.78 -76.4973 136.318 -13.274C90.8549 49.9495 105.253 138.057 168.476 183.52L223.993 106.315C203.408 91.513 198.721 62.8272 213.523 42.2426C228.325 21.658 257.01 16.9703 277.595 31.7724Z" fill="#F14E3A"/>
<path d="M77.686 377.277L126.772 179.25L242.944 296.628L193.858 494.655L77.686 377.277Z" fill="#56CCF2"/>
</g>
<defs>
<clipPath id="clip0_40000998_50803">
<rect width="237.5" height="241" rx="16" fill="white"/>
</clipPath>
</defs>
</svg>
