<svg width="238" height="241" viewBox="0 0 238 241" fill="none" xmlns="http://www.w3.org/2000/svg">
<g clip-path="url(#clip0_40000998_50799)">
<rect width="237.5" height="241" rx="16" fill="#3F50B8"/>
<path fill-rule="evenodd" clip-rule="evenodd" d="M245.004 144.016C315.016 62.5198 383.338 183.066 278.744 202.591C383.338 222.965 314.172 342.662 245.004 261.165C280.431 363.035 142.94 362.187 178.368 261.165C108.357 342.662 40.0328 222.965 144.627 202.591C39.1893 183.066 108.357 63.3687 178.368 144.016C142.097 42.9948 280.431 42.9948 245.004 144.016ZM211.264 187.311C219.7 187.311 227.291 194.102 227.291 202.591C227.291 211.08 219.7 218.721 211.264 218.721C202.829 218.721 196.081 211.08 196.081 202.591C196.081 194.102 202.829 187.311 211.264 187.311Z" fill="#B38AFF"/>
<path fill-rule="evenodd" clip-rule="evenodd" d="M141.549 27.312C127.218 37.302 109.793 43.16 91 43.16C42.123 43.16 2.5 3.537 2.5 -45.34C2.5 -75.2723 17.359 -101.734 40.104 -117.75C-15.8472 -115.446 -60.5 -69.3576 -60.5 -12.84C-60.5 45.15 -13.4899 92.16 44.5 92.16C88.268 92.16 125.782 65.38 141.549 27.312Z" fill="#F2C94C"/>
<path fill-rule="evenodd" clip-rule="evenodd" d="M-90.7378 104.25C-64.3118 104.25 -42.8898 125.672 -42.8898 152.098C-42.8898 178.524 -64.3118 199.946 -90.7378 199.946C-117.164 199.946 -138.586 178.524 -138.586 152.098C-138.586 125.672 -117.164 104.25 -90.7378 104.25ZM-170.673 349.977C-192.052 334.445 -196.792 304.522 -181.259 283.143C-165.726 261.764 -135.804 257.025 -114.425 272.558C-93.0458 288.09 -88.3068 318.013 -103.839 339.392C-119.372 360.771 -149.295 365.51 -170.673 349.977ZM-0.0618286 283.143C15.4712 304.522 10.7322 334.445 -10.6468 349.977C-32.0258 365.51 -61.9488 360.771 -77.4808 339.392C-93.0138 318.013 -88.2748 288.09 -66.8958 272.558C-45.5168 257.025 -15.5938 261.764 -0.0618286 283.143ZM-220.145 198.037C-211.979 172.905 -184.986 159.151 -159.853 167.317C-134.721 175.483 -120.967 202.477 -129.133 227.609C-137.299 252.741 -164.293 266.495 -189.425 258.329C-214.557 250.163 -228.311 223.17 -220.145 198.037ZM-21.6548 167.317C3.47817 159.151 30.4712 172.905 38.6372 198.037C46.8032 223.17 33.0492 250.163 7.91718 258.329C-17.2158 266.495 -44.2088 252.741 -52.3748 227.609C-60.5408 202.477 -46.7868 175.483 -21.6548 167.317Z" fill="#2F80ED"/>
</g>
<defs>
<clipPath id="clip0_40000998_50799">
<rect width="237.5" height="241" rx="16" fill="white"/>
</clipPath>
</defs>
</svg>
