<svg width="1771" height="1107" viewBox="0 0 1771 1107" fill="none" xmlns="http://www.w3.org/2000/svg">
<path d="M1468.44 387.151C1472.18 367.307 1474.13 346.831 1474.13 325.893C1474.13 145.907 1329.76 0 1151.66 0C1042.69 0 946.345 54.6233 887.977 138.256C831.936 90.7101 759.657 62.0748 680.763 62.0748C504.377 62.0748 361.069 205.193 358.335 382.791H358.295C160.413 382.791 0 544.909 0 744.896C0 944.882 160.413 1107 358.295 1107H1412.71C1610.59 1107 1771 944.882 1771 744.896C1771 564.067 1639.85 414.208 1468.44 387.151Z" fill="#1F1F25"/>
</svg>
