<svg width="1402" height="1438" viewBox="0 0 1402 1438" fill="none" xmlns="http://www.w3.org/2000/svg">
<path d="M700.973 0L808.168 249.348L1012.94 71.2034L1001.33 342.368L1263.11 270.711L1135 509.985L1401.95 559.007L1182.7 719L1401.95 878.993L1135 928.015L1263.11 1167.29L1001.33 1095.63L1012.94 1366.8L808.168 1188.65L700.973 1438L593.778 1188.65L389.01 1366.8L400.619 1095.63L138.836 1167.29L266.949 928.015L-0.000488281 878.993L219.243 719L-0.000488281 559.007L266.949 509.985L138.836 270.711L400.619 342.368L389.01 71.2034L593.778 249.348L700.973 0Z" fill="#1F1F25"/>
</svg>
