<svg preserveAspectRatio="none" width="100%" height="100%" overflow="visible" style="display: block;" viewBox="0 0 24 24" fill="none" xmlns="http://www.w3.org/2000/svg">
<g id="Group 83">
<path id="Summertime Sadness" d="M6 0C2.68629 0 0 2.68629 0 6C0 9.31376 2.68629 12 6 12C2.68629 12 0 14.6862 0 18C0 21.3138 2.68629 24 6 24C9.31376 24 12 21.3138 12 18C12 21.3138 14.6862 24 18 24C21.3138 24 24 21.3138 24 18C24 14.6862 21.3138 12 18 12C21.3138 12 24 9.31376 24 6C24 2.68629 21.3138 0 18 0C14.6862 0 12 2.68629 12 6C12 2.68629 9.31376 0 6 0Z" fill="var(--fill-0, #3F50B8)"/>
</g>
</svg>
