<svg preserveAspectRatio="none" width="100%" height="100%" overflow="visible" style="display: block;" viewBox="0 0 1357.1 1392" fill="none" xmlns="http://www.w3.org/2000/svg">
<path id="Star 1" d="M678.55 0L782.316 241.372L980.533 68.9257L969.296 331.416L1222.7 262.051L1098.69 493.671L1357.1 541.125L1144.87 696L1357.1 850.875L1098.69 898.329L1222.7 1129.95L969.296 1060.58L980.533 1323.07L782.316 1150.63L678.55 1392L574.784 1150.63L376.567 1323.07L387.804 1060.58L134.395 1129.95L258.41 898.329L0 850.875L212.23 696L0 541.125L258.41 493.671L134.395 262.051L387.804 331.416L376.567 68.9257L574.784 241.372L678.55 0Z" fill="var(--fill-0, #1F1F25)"/>
</svg>
