<svg width="1189" height="1599" viewBox="0 0 1189 1599" fill="none" xmlns="http://www.w3.org/2000/svg">
<circle cx="594.13" cy="594.13" r="594.13" fill="#1F1F25"/>
<path d="M541.645 1486.04C506.5 1432.15 599.344 1139.35 470.108 1108.85L1053.2 755.754C1061.99 833.459 1046.47 1012.64 913.978 1107.7C748.369 1226.53 857.508 1251.16 820.002 1429.25C782.496 1607.33 576.79 1539.94 541.645 1486.04Z" fill="#1F1F25"/>
<path d="M428.051 1357.48C451.167 1328.91 454.171 1192.54 529.321 1182.86L70.2293 831.784C60.6687 875.451 169.323 1058.34 238.939 1120.25C325.96 1197.65 262.562 1205.18 273.385 1308.68C284.208 1412.17 404.934 1386.05 428.051 1357.48Z" fill="#1F1F25"/>
</svg>
