<svg width="32" height="32" viewBox="0 0 32 32" fill="none" xmlns="http://www.w3.org/2000/svg">
<g clip-path="url(#clip0_40001115_85482)">
<rect width="32" height="32" rx="4" fill="#ADDBF2"/>
<path d="M32.3388 20.3411C31.8338 20.0013 31.5947 19.35 31.7522 18.762C32.5931 15.6237 30.7535 12.404 27.6433 11.5707C26.2285 11.1916 24.7945 11.3716 23.5724 11.9759C22.8926 12.312 22.0246 12.1956 21.4556 11.6943C20.8066 11.1223 20.0202 10.6881 19.1298 10.4495C16.0497 9.62421 12.8786 11.4487 12.0008 14.5322C12.0007 14.5326 12.0003 14.5328 11.9999 14.5327C8.5442 13.6067 4.98541 15.6829 4.05106 19.1699C3.11671 22.6569 5.16066 26.2343 8.61639 27.1602L27.0302 32.0942C30.4858 33.0201 34.0447 30.944 34.979 27.457C35.7228 24.6813 34.5793 21.8484 32.3388 20.3411Z" fill="#8ECDEC"/>
<path d="M18.4594 25.2014C17.7665 24.9822 17.2893 24.3047 17.3073 23.5782C17.309 23.5098 17.3098 23.4412 17.3098 23.3724C17.3098 18.8919 13.7039 15.2598 9.25564 15.2598C7.0388 15.2598 5.03111 16.1619 3.5748 17.6216C3.03985 18.1578 2.17339 18.27 1.51881 17.8889C0.334724 17.1996 -1.03976 16.805 -2.50571 16.805C-6.91088 16.805 -10.49 20.3672 -10.5588 24.7879C-10.5588 24.7884 -10.5593 24.7889 -10.5598 24.7889C-15.5022 24.7889 -19.5088 28.8246 -19.5088 33.803C-19.5088 38.7814 -15.5022 42.8171 -10.5598 42.8171H15.7757C20.718 42.8171 24.7246 38.7814 24.7246 33.803C24.7246 29.7664 22.0906 26.3497 18.4594 25.2014Z" fill="#49AEE1"/>
<path d="M12.3984 19.906V11.2294C12.3984 10.8136 12.8558 10.5602 13.2083 10.7805L20.1496 15.1189C20.4814 15.3262 20.4814 15.8093 20.1496 16.0166L13.2083 20.3549C12.8558 20.5753 12.3984 20.3218 12.3984 19.906Z" fill="#36363F"/>
</g>
<defs>
<clipPath id="clip0_40001115_85482">
<rect width="32" height="32" rx="4" fill="white"/>
</clipPath>
</defs>
</svg>
