<svg width="32" height="32" viewBox="0 0 32 32" fill="none" xmlns="http://www.w3.org/2000/svg">
<g clip-path="url(#clip0_40001115_85486)">
<rect width="32" height="32" rx="4" fill="#FEF5CC"/>
<path d="M28.2399 56.1086C19.8341 60.9617 9.09222 58.093 4.24728 49.7014C8.80045 47.0726 10.364 41.2566 7.73966 36.7111C6.78126 35.0511 5.87362 33.479 5.87362 33.479L19.8252 25.424C19.8252 25.424 20.7329 26.9961 21.6913 28.6561C24.3156 33.2016 30.1343 34.7555 34.6874 32.1268C39.5323 40.5184 36.6457 51.2555 28.2399 56.1086Z" fill="#FDDA3C"/>
<path opacity="0.3" d="M4.33437 -7.67871C14.0405 -7.67871 21.909 0.176555 21.909 9.86643C16.6514 9.86643 12.3893 14.1215 12.3893 19.3702C12.3893 21.287 12.3893 23.1022 12.3893 23.1022H-3.7206C-3.7206 23.1022 -3.7206 21.287 -3.7206 19.3702C-3.7206 14.1215 -7.98274 9.86643 -13.2402 9.86643C-13.2402 0.176555 -5.37186 -7.67871 4.33437 -7.67871Z" fill="#FDDA3C"/>
<path d="M12.6992 19.906V11.2294C12.6992 10.8136 13.1565 10.5602 13.5091 10.7805L20.4504 15.1189C20.7822 15.3262 20.7822 15.8093 20.4504 16.0166L13.5091 20.3549C13.1565 20.5753 12.6992 20.3218 12.6992 19.906Z" fill="#36363F"/>
</g>
<defs>
<clipPath id="clip0_40001115_85486">
<rect width="32" height="32" rx="4" fill="white"/>
</clipPath>
</defs>
</svg>
