<svg width="71" height="20" viewBox="0 0 71 20" fill="none" xmlns="http://www.w3.org/2000/svg">
<path d="M4.84959 0C2.17124 0 0 2.17124 0 4.84959C0 7.52798 2.17124 9.69918 4.84959 9.69918C2.17124 9.69918 0 11.8704 0 14.5488C0 17.2272 2.17124 19.3984 4.84959 19.3984C7.52798 19.3984 9.69918 17.2272 9.69918 14.5488C9.69918 17.2272 11.8704 19.3984 14.5488 19.3984C17.2272 19.3984 19.3984 17.2272 19.3984 14.5488C19.3984 11.8704 17.2272 9.69918 14.5488 9.69918C17.2272 9.69918 19.3984 7.52798 19.3984 4.84959C19.3984 2.17124 17.2272 0 14.5488 0C11.8704 0 9.69918 2.17124 9.69918 4.84959C9.69918 2.17124 7.52798 0 4.84959 0Z" fill="#FFAF25"/>
<path d="M35.3984 0L36.8444 3.36366L39.6067 0.960521L39.4501 4.61849L42.9815 3.65184L41.2533 6.87961L44.8544 7.54091L41.8968 9.69918L44.8544 11.8575L41.2533 12.5188L42.9815 15.7465L39.4501 14.7799L39.6067 18.4378L36.8444 16.0347L35.3984 19.3984L33.9524 16.0347L31.1901 18.4378L31.3467 14.7799L27.8153 15.7465L29.5435 12.5188L25.9424 11.8575L28.8999 9.69918L25.9424 7.54091L29.5435 6.87961L27.8153 3.65184L31.3467 4.61849L31.1901 0.960521L33.9524 3.36366L35.3984 0Z" fill="#E65800"/>
<path d="M51.3984 0.0722656H61.0976H70.7968L67.5637 9.69906L70.7968 19.3259H61.0976H51.3984L54.6315 9.69906L51.3984 0.0722656Z" fill="#BD67FF"/>
</svg>
