<svg width="32" height="32" viewBox="0 0 32 32" fill="none" xmlns="http://www.w3.org/2000/svg">
<g clip-path="url(#clip0_40001115_85477)">
<rect width="32" height="32" fill="#D6C0FE"/>
<path d="M-0.0693359 0.699219L7.84359 5.86349L15.7565 11.0278L8.00309 17.145L5.52495 26.705L-2.38797 21.5407L-10.3009 16.3765L-2.54748 10.2593L-0.0693359 0.699219Z" fill="#BD67FF"/>
<path d="M14.8284 26.2468C18.9966 22.0786 25.7313 22.0553 29.8706 26.1946C27.6129 28.4524 27.6003 32.1004 29.8424 34.3426C30.6613 35.1614 31.4367 35.9369 31.4367 35.9369L24.5185 42.8551C24.5185 42.8551 23.7431 42.0796 22.9242 41.2608C20.6821 39.0186 17.0341 39.0312 14.7763 41.289C10.6369 37.1496 10.6602 30.415 14.8284 26.2468Z" fill="#2CD573"/>
<path d="M12.0977 19.906V11.2294C12.0977 10.8136 12.555 10.5602 12.9075 10.7805L19.8489 15.1189C20.1806 15.3262 20.1806 15.8093 19.8489 16.0166L12.9075 20.3549C12.555 20.5753 12.0977 20.3218 12.0977 19.906Z" fill="#36363F"/>
</g>
<defs>
<clipPath id="clip0_40001115_85477">
<rect width="32" height="32" fill="white"/>
</clipPath>
</defs>
</svg>
