<svg width="1194" height="839" viewBox="0 0 1194 839" fill="none" xmlns="http://www.w3.org/2000/svg">
<g clip-path="url(#clip0_40001178_36319)">
<rect width="1194" height="839" fill="#D1F00B"/>
<path d="M107.306 373.652C135.089 237.43 267.283 149.369 402.568 176.961C387.519 250.748 434.726 322.681 508.006 337.626C534.767 343.085 579.769 351.933 579.769 351.933L533.656 578.028C533.656 578.028 488.653 569.18 461.892 563.722C388.612 548.776 317.006 596.477 301.956 670.263C166.671 642.671 79.5226 509.874 107.306 373.652Z" fill="#BD67FF"/>
<path d="M1086.65 373.652C1058.86 237.43 926.67 149.369 791.385 176.961C806.434 250.748 759.228 322.681 685.948 337.626C659.186 343.085 614.184 351.933 614.184 351.933L660.297 578.028C660.297 578.028 705.3 569.18 732.061 563.722C805.341 548.776 876.948 596.477 891.997 670.263C1027.28 642.671 1114.43 509.874 1086.65 373.652Z" fill="#BD67FF"/>
<path d="M-42.8328 -36H1236.83C1273.79 167.945 975.067 216.984 975.067 422.5C975.067 628.016 1273.79 677.054 1236.83 881H-42.8328C-79.7933 677.054 218.935 628.016 218.935 422.5C218.935 216.984 -79.7933 167.945 -42.8328 -36Z" fill="#1F1F25"/>
<path d="M-42.8328 -36H1236.83C1273.79 167.945 975.067 216.984 975.067 422.5C975.067 628.016 1273.79 677.054 1236.83 881H-42.8328C-79.7933 677.054 218.935 628.016 218.935 422.5C218.935 216.984 -79.7933 167.945 -42.8328 -36Z" fill="#1F1F25"/>
<path d="M20.8086 12.3398C21.2344 12.3398 21.6426 12.4199 22.0332 12.5801C22.4277 12.7363 22.7812 12.9863 23.0938 13.3301C23.4062 13.6699 23.6523 14.1133 23.832 14.6602C24.0117 15.207 24.1016 15.8691 24.1016 16.6465V16.6582C24.1016 17.6113 23.9688 18.4277 23.7031 19.1074C23.4375 19.7832 23.0547 20.3027 22.5547 20.666C22.0586 21.0254 21.4609 21.2051 20.7617 21.2051C20.2617 21.2051 19.8105 21.1133 19.4082 20.9297C19.0098 20.7461 18.6777 20.4922 18.4121 20.168C18.1465 19.8438 17.9668 19.4707 17.873 19.0488L17.8555 18.9785H19.1621L19.1855 19.0371C19.2637 19.252 19.377 19.4375 19.5254 19.5938C19.6738 19.75 19.8516 19.873 20.0586 19.9629C20.2656 20.0488 20.502 20.0918 20.7676 20.0918C21.2402 20.0918 21.625 19.9531 21.9219 19.6758C22.2227 19.3945 22.4473 19.0215 22.5957 18.5566C22.7441 18.0918 22.8281 17.5801 22.8477 17.0215C22.8516 16.9629 22.8535 16.9062 22.8535 16.8516C22.8535 16.7969 22.8535 16.7441 22.8535 16.6934L22.5957 15.2812C22.5957 14.9375 22.5156 14.627 22.3555 14.3496C22.1992 14.0723 21.9863 13.8516 21.7168 13.6875C21.4512 13.5234 21.1523 13.4414 20.8203 13.4414C20.4922 13.4414 20.1934 13.5215 19.9238 13.6816C19.6582 13.8418 19.4453 14.0586 19.2852 14.332C19.125 14.6016 19.0449 14.9062 19.0449 15.2461V15.2578C19.0449 15.6016 19.1211 15.9082 19.2734 16.1777C19.4258 16.4473 19.6348 16.6602 19.9004 16.8164C20.166 16.9688 20.4668 17.0449 20.8027 17.0449C21.1426 17.0449 21.4473 16.9688 21.7168 16.8164C21.9863 16.6641 22.1992 16.457 22.3555 16.1953C22.5156 15.9297 22.5957 15.627 22.5957 15.2871V15.2812H22.9414V16.8223H22.7363C22.6348 17.0488 22.4824 17.2598 22.2793 17.4551C22.0762 17.6504 21.8262 17.8086 21.5293 17.9297C21.2363 18.0469 20.8984 18.1055 20.5156 18.1055C19.9805 18.1055 19.5039 17.9844 19.0859 17.7422C18.668 17.4961 18.3398 17.1621 18.1016 16.7402C17.8633 16.3145 17.7441 15.832 17.7441 15.293V15.2812C17.7441 14.7148 17.875 14.2109 18.1367 13.7695C18.4023 13.3242 18.7656 12.9746 19.2266 12.7207C19.6914 12.4668 20.2188 12.3398 20.8086 12.3398ZM26.709 19.8398C26.4668 19.8398 26.2617 19.7559 26.0938 19.5879C25.9297 19.4199 25.8477 19.2188 25.8477 18.9844C25.8477 18.7422 25.9297 18.5391 26.0938 18.375C26.2617 18.2109 26.4668 18.1289 26.709 18.1289C26.9551 18.1289 27.1602 18.2109 27.3242 18.375C27.4883 18.5391 27.5703 18.7422 27.5703 18.9844C27.5703 19.2188 27.4883 19.4199 27.3242 19.5879C27.1602 19.7559 26.9551 19.8398 26.709 19.8398ZM26.709 15.4102C26.4668 15.4102 26.2617 15.3262 26.0938 15.1582C25.9297 14.9902 25.8477 14.7891 25.8477 14.5547C25.8477 14.3125 25.9297 14.1094 26.0938 13.9453C26.2617 13.7812 26.4668 13.6992 26.709 13.6992C26.9551 13.6992 27.1602 13.7812 27.3242 13.9453C27.4883 14.1094 27.5703 14.3125 27.5703 14.5547C27.5703 14.7891 27.4883 14.9902 27.3242 15.1582C27.1602 15.3262 26.9551 15.4102 26.709 15.4102ZM33.3945 21V19.3242H29.2695V18.2051C29.4922 17.8223 29.7188 17.4375 29.9492 17.0508C30.1836 16.6641 30.418 16.2773 30.6523 15.8906C30.8906 15.5039 31.1289 15.123 31.3672 14.748C31.6055 14.3691 31.8438 13.9961 32.082 13.6289C32.3203 13.2578 32.5547 12.8965 32.7852 12.5449H34.666V18.2051H35.832V19.3242H34.666V21H33.3945ZM30.5352 18.2285H33.4121V13.6582H33.3359C33.1523 13.9316 32.9668 14.2148 32.7793 14.5078C32.5918 14.7969 32.4004 15.0938 32.2051 15.3984C32.0137 15.7031 31.8223 16.0098 31.6309 16.3184C31.4395 16.627 31.252 16.9355 31.0684 17.2441C30.8848 17.5488 30.707 17.8496 30.5352 18.1465V18.2285ZM39.3711 21V13.8984H39.2773L37.1504 15.416V14.127L39.377 12.5449H40.6895V21H39.3711Z" fill="white"/>
<path d="M52.0605 21V12.5449H53.5781L56.2676 19.2832H56.3672L59.0566 12.5449H60.5742V21H59.373V14.8008H58.7227L60.0938 12.7793L56.8008 21H55.8281L52.541 12.7793L53.9062 14.8008H53.2617V21H52.0605ZM65.2383 21.123C64.6172 21.123 64.0801 20.9902 63.627 20.7246C63.1777 20.459 62.832 20.0801 62.5898 19.5879C62.3477 19.0918 62.2266 18.5039 62.2266 17.8242V17.8125C62.2266 17.1289 62.3477 16.541 62.5898 16.0488C62.8359 15.5566 63.1836 15.1777 63.6328 14.9121C64.0859 14.6465 64.6211 14.5137 65.2383 14.5137C65.8594 14.5137 66.3945 14.6465 66.8438 14.9121C67.293 15.1738 67.6387 15.5527 67.8809 16.0488C68.127 16.541 68.25 17.1289 68.25 17.8125V17.8242C68.25 18.5039 68.127 19.0918 67.8809 19.5879C67.6387 20.0801 67.293 20.459 66.8438 20.7246C66.3984 20.9902 65.8633 21.123 65.2383 21.123ZM65.2383 20.0566C65.6016 20.0566 65.9102 19.9688 66.1641 19.793C66.418 19.6133 66.6113 19.3574 66.7441 19.0254C66.877 18.6934 66.9434 18.293 66.9434 17.8242V17.8125C66.9434 17.3398 66.877 16.9375 66.7441 16.6055C66.6113 16.2734 66.418 16.0195 66.1641 15.8438C65.9102 15.6641 65.6016 15.5742 65.2383 15.5742C64.875 15.5742 64.5664 15.6641 64.3125 15.8438C64.0586 16.0195 63.8633 16.2734 63.7266 16.6055C63.5938 16.9375 63.5273 17.3398 63.5273 17.8125V17.8242C63.5273 18.293 63.5938 18.6934 63.7266 19.0254C63.8633 19.3574 64.0586 19.6133 64.3125 19.793C64.5664 19.9688 64.875 20.0566 65.2383 20.0566ZM69.7617 21V14.6367H71.0332V15.5977H71.1328C71.2891 15.2578 71.5195 14.9922 71.8242 14.8008C72.1289 14.6094 72.5137 14.5137 72.9785 14.5137C73.6934 14.5137 74.2402 14.7188 74.6191 15.1289C74.998 15.5391 75.1875 16.123 75.1875 16.8809V21H73.9102V17.1797C73.9102 16.6484 73.7988 16.2539 73.5762 15.9961C73.3574 15.7344 73.0137 15.6035 72.5449 15.6035C72.2363 15.6035 71.9688 15.6719 71.7422 15.8086C71.5156 15.9414 71.3398 16.1328 71.2148 16.3828C71.0938 16.6289 71.0332 16.9238 71.0332 17.2676V21H69.7617ZM82.3477 21.2051C81.957 21.2051 81.6074 21.1484 81.2988 21.0352C80.9902 20.9258 80.7285 20.7676 80.5137 20.5605C80.2988 20.3535 80.1309 20.1094 80.0098 19.8281C79.8887 19.5469 79.8184 19.2383 79.7988 18.9023L79.793 18.832H81.0938V18.8789C81.1133 19.0938 81.1719 19.2891 81.2695 19.4648C81.3672 19.6367 81.5039 19.7734 81.6797 19.875C81.8594 19.9766 82.0801 20.0273 82.3418 20.0273C82.7754 20.0273 83.1055 19.9023 83.332 19.6523C83.5586 19.3984 83.6719 19.0293 83.6719 18.5449V12.5449H84.9902V18.5566C84.9902 19.1113 84.8848 19.5859 84.6738 19.9805C84.4668 20.375 84.166 20.6777 83.7715 20.8887C83.3809 21.0996 82.9062 21.2051 82.3477 21.2051ZM89.0859 21.123C88.6094 21.123 88.207 21.0312 87.8789 20.8477C87.5547 20.6602 87.3105 20.3906 87.1465 20.0391C86.9863 19.6836 86.9062 19.2559 86.9062 18.7559V14.6367H88.1777V18.457C88.1777 18.9805 88.2812 19.373 88.4883 19.6348C88.6953 19.8965 89.0332 20.0273 89.502 20.0273C89.752 20.0273 89.9746 19.9902 90.1699 19.916C90.3652 19.8379 90.5293 19.7266 90.6621 19.582C90.7949 19.4375 90.8926 19.2637 90.9551 19.0605C91.0215 18.8574 91.0547 18.627 91.0547 18.3691V14.6367H92.332V21H91.0547V20.0391H90.9609C90.8594 20.2656 90.7207 20.4609 90.5449 20.625C90.3691 20.7852 90.1582 20.9082 89.9121 20.9941C89.6699 21.0801 89.3945 21.123 89.0859 21.123ZM94.1602 21V14.6367H95.4316V15.5977H95.5312C95.6875 15.2578 95.918 14.9922 96.2227 14.8008C96.5273 14.6094 96.9121 14.5137 97.377 14.5137C98.0918 14.5137 98.6387 14.7188 99.0176 15.1289C99.3965 15.5391 99.5859 16.123 99.5859 16.8809V21H98.3086V17.1797C98.3086 16.6484 98.1973 16.2539 97.9746 15.9961C97.7559 15.7344 97.4121 15.6035 96.9434 15.6035C96.6348 15.6035 96.3672 15.6719 96.1406 15.8086C95.9141 15.9414 95.7383 16.1328 95.6133 16.3828C95.4922 16.6289 95.4316 16.9238 95.4316 17.2676V21H94.1602ZM107.748 21.2051C107.322 21.2051 106.912 21.127 106.518 20.9707C106.127 20.8105 105.775 20.5605 105.463 20.2207C105.154 19.877 104.908 19.4316 104.725 18.8848C104.545 18.3379 104.455 17.6758 104.455 16.8984V16.8867C104.455 15.9336 104.588 15.1191 104.854 14.4434C105.119 13.7637 105.502 13.2441 106.002 12.8848C106.502 12.5215 107.1 12.3398 107.795 12.3398C108.295 12.3398 108.746 12.4316 109.148 12.6152C109.551 12.7988 109.885 13.0527 110.15 13.377C110.416 13.6973 110.594 14.0703 110.684 14.4961L110.701 14.5664H109.395L109.371 14.5078C109.293 14.2891 109.18 14.1035 109.031 13.9512C108.887 13.7949 108.709 13.6738 108.498 13.5879C108.291 13.498 108.055 13.4531 107.789 13.4531C107.316 13.4531 106.93 13.5938 106.629 13.875C106.332 14.1523 106.111 14.5234 105.967 14.9883C105.822 15.4531 105.738 15.9648 105.715 16.5234C105.711 16.5781 105.709 16.6328 105.709 16.6875C105.709 16.7422 105.709 16.7969 105.709 16.8516L105.961 18.2637C105.961 18.6074 106.039 18.918 106.195 19.1953C106.355 19.4727 106.57 19.6934 106.84 19.8574C107.109 20.0215 107.408 20.1035 107.736 20.1035C108.068 20.1035 108.367 20.0234 108.633 19.8633C108.902 19.7031 109.115 19.4863 109.271 19.2129C109.432 18.9395 109.512 18.6348 109.512 18.2988V18.2871C109.512 17.9395 109.436 17.6328 109.283 17.3672C109.135 17.0977 108.928 16.8867 108.662 16.7344C108.396 16.5781 108.094 16.5 107.754 16.5C107.418 16.5 107.113 16.5762 106.84 16.7285C106.57 16.8809 106.355 17.0898 106.195 17.3555C106.039 17.6172 105.961 17.918 105.961 18.2578V18.2637H105.615V16.7227H105.82C105.926 16.4961 106.078 16.2852 106.277 16.0898C106.48 15.8945 106.73 15.7383 107.027 15.6211C107.324 15.5 107.664 15.4395 108.047 15.4395C108.586 15.4395 109.062 15.5625 109.477 15.8086C109.895 16.0508 110.221 16.3828 110.455 16.8047C110.693 17.2266 110.812 17.709 110.812 18.252V18.2637C110.812 18.8301 110.68 19.3359 110.414 19.7812C110.152 20.2227 109.791 20.5703 109.33 20.8242C108.869 21.0781 108.342 21.2051 107.748 21.2051Z" fill="white"/>
<path d="M1088.52 12.6173C1088.45 12.8011 1088.45 13.0341 1088.45 13.5V20.5C1088.45 20.9659 1088.45 21.1989 1088.52 21.3827C1088.62 21.6277 1088.82 21.8224 1089.06 21.9239C1089.25 22 1089.48 22 1089.95 22C1090.41 22 1090.64 22 1090.83 21.9239C1091.07 21.8224 1091.27 21.6277 1091.37 21.3827C1091.45 21.1989 1091.45 20.9659 1091.45 20.5V13.5C1091.45 13.0341 1091.45 12.8011 1091.37 12.6173C1091.27 12.3723 1091.07 12.1776 1090.83 12.0761C1090.64 12 1090.41 12 1089.95 12C1089.48 12 1089.25 12 1089.06 12.0761C1088.82 12.1776 1088.62 12.3723 1088.52 12.6173Z" fill="white"/>
<path d="M1083.95 15.5C1083.95 15.0341 1083.95 14.8011 1084.02 14.6173C1084.12 14.3723 1084.32 14.1776 1084.56 14.0761C1084.75 14 1084.98 14 1085.45 14C1085.91 14 1086.14 14 1086.33 14.0761C1086.57 14.1776 1086.77 14.3723 1086.87 14.6173C1086.95 14.8011 1086.95 15.0341 1086.95 15.5V20.5C1086.95 20.9659 1086.95 21.1989 1086.87 21.3827C1086.77 21.6277 1086.57 21.8224 1086.33 21.9239C1086.14 22 1085.91 22 1085.45 22C1084.98 22 1084.75 22 1084.56 21.9239C1084.32 21.8224 1084.12 21.6277 1084.02 21.3827C1083.95 21.1989 1083.95 20.9659 1083.95 20.5V15.5Z" fill="white"/>
<path d="M1079.52 16.6173C1079.45 16.8011 1079.45 17.0341 1079.45 17.5V20.5C1079.45 20.9659 1079.45 21.1989 1079.52 21.3827C1079.62 21.6277 1079.82 21.8224 1080.06 21.9239C1080.25 22 1080.48 22 1080.95 22C1081.41 22 1081.64 22 1081.83 21.9239C1082.07 21.8224 1082.27 21.6277 1082.37 21.3827C1082.45 21.1989 1082.45 20.9659 1082.45 20.5V17.5C1082.45 17.0341 1082.45 16.8011 1082.37 16.6173C1082.27 16.3723 1082.07 16.1776 1081.83 16.0761C1081.64 16 1081.41 16 1080.95 16C1080.48 16 1080.25 16 1080.06 16.0761C1079.82 16.1776 1079.62 16.3723 1079.52 16.6173Z" fill="white"/>
<path d="M1075.02 18.1173C1074.95 18.3011 1074.95 18.5341 1074.95 19V20.5C1074.95 20.9659 1074.95 21.1989 1075.02 21.3827C1075.12 21.6277 1075.32 21.8224 1075.56 21.9239C1075.75 22 1075.98 22 1076.45 22C1076.91 22 1077.14 22 1077.33 21.9239C1077.57 21.8224 1077.77 21.6277 1077.87 21.3827C1077.95 21.1989 1077.95 20.9659 1077.95 20.5V19C1077.95 18.5341 1077.95 18.3011 1077.87 18.1173C1077.77 17.8723 1077.57 17.6776 1077.33 17.5761C1077.14 17.5 1076.91 17.5 1076.45 17.5C1075.98 17.5 1075.75 17.5 1075.56 17.5761C1075.32 17.6776 1075.12 17.8723 1075.02 18.1173Z" fill="white"/>
<path d="M1107.95 16.246C1108.06 16.3525 1108.24 16.353 1108.35 16.243L1109.41 15.179C1109.53 15.064 1109.53 14.8745 1109.41 14.763C1107.6 13.0505 1105.16 12 1102.47 12C1099.78 12 1097.34 13.0505 1095.53 14.763C1095.42 14.8745 1095.42 15.064 1095.53 15.179L1096.6 16.243C1096.71 16.353 1096.88 16.3525 1096.99 16.246C1098.43 14.9015 1100.36 14.077 1102.47 14.077C1104.59 14.077 1106.52 14.9015 1107.95 16.246Z" fill="white"/>
<path d="M1105.5 18.6965C1105.62 18.7994 1105.79 18.8005 1105.9 18.691L1106.96 17.6285C1107.08 17.5129 1107.08 17.3205 1106.96 17.2099C1105.78 16.1245 1104.2 15.4615 1102.47 15.4615C1100.74 15.4615 1099.17 16.1245 1097.99 17.2099C1097.87 17.3205 1097.87 17.5129 1097.98 17.6285L1099.04 18.691C1099.15 18.8005 1099.33 18.7994 1099.44 18.6965C1100.25 17.977 1101.31 17.5385 1102.47 17.5385C1103.64 17.5385 1104.7 17.977 1105.5 18.6965Z" fill="white"/>
<path d="M1104.51 19.6611C1104.63 19.7661 1104.63 19.9616 1104.52 20.0776L1102.68 21.9156C1102.56 22.0281 1102.38 22.0281 1102.27 21.9156L1100.43 20.0776C1100.32 19.9616 1100.31 19.7661 1100.44 19.6611C1100.99 19.2006 1101.7 18.9231 1102.47 18.9231C1103.25 18.9231 1103.96 19.2006 1104.51 19.6611Z" fill="white"/>
<path d="M1116.48 21V13.8984H1116.38L1114.26 15.416V14.127L1116.48 12.5449H1117.79V21H1116.48ZM1123.17 21.2051C1122.52 21.2051 1121.96 21.0254 1121.5 20.666C1121.03 20.3066 1120.68 19.7969 1120.43 19.1367C1120.18 18.4727 1120.05 17.6855 1120.05 16.7754V16.7637C1120.05 15.8535 1120.18 15.0684 1120.43 14.4082C1120.68 13.748 1121.03 13.2383 1121.5 12.8789C1121.96 12.5195 1122.52 12.3398 1123.17 12.3398C1123.83 12.3398 1124.38 12.5195 1124.85 12.8789C1125.31 13.2383 1125.67 13.748 1125.92 14.4082C1126.18 15.0684 1126.3 15.8535 1126.3 16.7637V16.7754C1126.3 17.6855 1126.18 18.4727 1125.92 19.1367C1125.67 19.7969 1125.31 20.3066 1124.85 20.666C1124.38 21.0254 1123.83 21.2051 1123.17 21.2051ZM1123.17 20.1094C1123.55 20.1094 1123.88 19.9746 1124.14 19.7051C1124.41 19.4355 1124.62 19.0527 1124.76 18.5566C1124.9 18.0566 1124.97 17.4629 1124.97 16.7754V16.7637C1124.97 16.0762 1124.9 15.4844 1124.76 14.9883C1124.62 14.4922 1124.41 14.1113 1124.14 13.8457C1123.88 13.5762 1123.55 13.4414 1123.17 13.4414C1122.8 13.4414 1122.48 13.5762 1122.21 13.8457C1121.94 14.1113 1121.74 14.4922 1121.59 14.9883C1121.45 15.4844 1121.38 16.0762 1121.38 16.7637V16.7754C1121.38 17.4629 1121.45 18.0566 1121.59 18.5566C1121.74 19.0527 1121.94 19.4355 1122.21 19.7051C1122.48 19.9746 1122.8 20.1094 1123.17 20.1094ZM1130.98 21.2051C1130.33 21.2051 1129.77 21.0254 1129.3 20.666C1128.84 20.3066 1128.48 19.7969 1128.23 19.1367C1127.98 18.4727 1127.86 17.6855 1127.86 16.7754V16.7637C1127.86 15.8535 1127.98 15.0684 1128.23 14.4082C1128.48 13.748 1128.84 13.2383 1129.3 12.8789C1129.77 12.5195 1130.33 12.3398 1130.98 12.3398C1131.63 12.3398 1132.19 12.5195 1132.65 12.8789C1133.12 13.2383 1133.48 13.748 1133.73 14.4082C1133.98 15.0684 1134.11 15.8535 1134.11 16.7637V16.7754C1134.11 17.6855 1133.98 18.4727 1133.73 19.1367C1133.48 19.7969 1133.12 20.3066 1132.65 20.666C1132.19 21.0254 1131.63 21.2051 1130.98 21.2051ZM1130.98 20.1094C1131.36 20.1094 1131.68 19.9746 1131.95 19.7051C1132.21 19.4355 1132.42 19.0527 1132.56 18.5566C1132.71 18.0566 1132.78 17.4629 1132.78 16.7754V16.7637C1132.78 16.0762 1132.71 15.4844 1132.56 14.9883C1132.42 14.4922 1132.21 14.1113 1131.95 13.8457C1131.68 13.5762 1131.36 13.4414 1130.98 13.4414C1130.6 13.4414 1130.28 13.5762 1130.01 13.8457C1129.75 14.1113 1129.54 14.4922 1129.4 14.9883C1129.26 15.4844 1129.19 16.0762 1129.19 16.7637V16.7754C1129.19 17.4629 1129.26 18.0566 1129.4 18.5566C1129.54 19.0527 1129.75 19.4355 1130.01 19.7051C1130.28 19.9746 1130.6 20.1094 1130.98 20.1094ZM1137.49 17.0625C1137.11 17.0625 1136.78 16.9688 1136.51 16.7812C1136.24 16.5898 1136.03 16.3223 1135.88 15.9785C1135.73 15.6309 1135.66 15.2207 1135.66 14.748V14.7422C1135.66 14.2617 1135.73 13.8496 1135.88 13.5059C1136.03 13.1621 1136.24 12.8965 1136.51 12.709C1136.78 12.5215 1137.11 12.4277 1137.49 12.4277C1137.87 12.4277 1138.19 12.5215 1138.47 12.709C1138.74 12.8965 1138.96 13.1621 1139.1 13.5059C1139.25 13.8496 1139.32 14.2617 1139.32 14.7422V14.748C1139.32 15.2207 1139.25 15.6309 1139.1 15.9785C1138.96 16.3223 1138.74 16.5898 1138.47 16.7812C1138.19 16.9688 1137.87 17.0625 1137.49 17.0625ZM1137.49 16.2773C1137.77 16.2773 1137.98 16.1426 1138.13 15.873C1138.29 15.6035 1138.37 15.2285 1138.37 14.748V14.7422C1138.37 14.2578 1138.29 13.8828 1138.13 13.6172C1137.98 13.3477 1137.77 13.2129 1137.49 13.2129C1137.21 13.2129 1137 13.3477 1136.85 13.6172C1136.7 13.8828 1136.62 14.2578 1136.62 14.7422V14.748C1136.62 15.2285 1136.7 15.6035 1136.85 15.873C1137 16.1426 1137.21 16.2773 1137.49 16.2773ZM1138.37 21H1137.27L1143 12.5449H1144.1L1138.37 21ZM1143.87 21.1172C1143.49 21.1172 1143.16 21.0234 1142.89 20.8359C1142.62 20.6445 1142.41 20.377 1142.26 20.0332C1142.11 19.6855 1142.04 19.2734 1142.04 18.7969V18.791C1142.04 18.3145 1142.11 17.9043 1142.26 17.5605C1142.41 17.2168 1142.62 16.9512 1142.89 16.7637C1143.16 16.5762 1143.49 16.4824 1143.87 16.4824C1144.25 16.4824 1144.57 16.5762 1144.85 16.7637C1145.12 16.9512 1145.33 17.2168 1145.47 17.5605C1145.62 17.9043 1145.7 18.3145 1145.7 18.791V18.7969C1145.7 19.2734 1145.62 19.6855 1145.47 20.0332C1145.33 20.377 1145.12 20.6445 1144.85 20.8359C1144.57 21.0234 1144.25 21.1172 1143.87 21.1172ZM1143.87 20.332C1144.15 20.332 1144.36 20.1973 1144.51 19.9277C1144.67 19.6582 1144.74 19.2812 1144.74 18.7969V18.791C1144.74 18.3105 1144.67 17.9375 1144.51 17.6719C1144.36 17.4023 1144.15 17.2676 1143.87 17.2676C1143.59 17.2676 1143.38 17.4023 1143.22 17.6719C1143.07 17.9375 1143 18.3105 1143 18.791V18.7969C1143 19.2812 1143.07 19.6582 1143.22 19.9277C1143.38 20.1973 1143.59 20.332 1143.87 20.332Z" fill="white"/>
<g opacity="0.4">
<mask id="path-10-inside-1_40001178_36319" fill="white">
<path d="M1169.3 11C1171.12 11 1172.03 11.0003 1172.73 11.3545C1173.34 11.6661 1173.83 12.163 1174.15 12.7744C1174.5 13.4696 1174.5 14.38 1174.5 16.2002V17.7998C1174.5 19.62 1174.5 20.5304 1174.15 21.2256L1174.02 21.4492C1173.71 21.9583 1173.26 22.3728 1172.73 22.6455L1172.59 22.708C1171.91 23 1171.01 23 1169.3 23H1155.7L1154.5 22.9941C1153.44 22.9775 1152.8 22.9112 1152.27 22.6455C1151.74 22.3728 1151.29 21.9583 1150.98 21.4492L1150.85 21.2256C1150.5 20.5304 1150.5 19.62 1150.5 17.7998V16.2002C1150.5 14.4935 1150.5 13.5868 1150.79 12.9072L1150.85 12.7744C1151.13 12.2394 1151.54 11.7917 1152.05 11.4795L1152.27 11.3545C1152.8 11.0888 1153.44 11.0225 1154.5 11.0059L1155.7 11H1169.3ZM1155.7 12C1154.77 12 1154.14 12.0008 1153.65 12.041C1153.17 12.0802 1152.91 12.1518 1152.73 12.2451C1152.31 12.4608 1151.96 12.8052 1151.75 13.2285C1151.65 13.4116 1151.58 13.6666 1151.54 14.1465C1151.5 14.6383 1151.5 15.2736 1151.5 16.2002V17.7998C1151.5 18.7264 1151.5 19.3617 1151.54 19.8535C1151.58 20.3334 1151.65 20.5884 1151.75 20.7715C1151.96 21.1948 1152.31 21.5392 1152.73 21.7549C1152.91 21.8482 1153.17 21.9198 1153.65 21.959C1154.14 21.9992 1154.77 22 1155.7 22H1169.3C1170.23 22 1170.86 21.9992 1171.35 21.959C1171.83 21.9198 1172.09 21.8482 1172.27 21.7549C1172.69 21.5392 1173.04 21.1948 1173.25 20.7715C1173.35 20.5884 1173.42 20.3334 1173.46 19.8535C1173.5 19.3617 1173.5 18.7264 1173.5 17.7998V16.2002C1173.5 15.2736 1173.5 14.6383 1173.46 14.1465C1173.42 13.6666 1173.35 13.4116 1173.25 13.2285C1173.04 12.8052 1172.69 12.4608 1172.27 12.2451C1172.09 12.1518 1171.83 12.0802 1171.35 12.041C1170.86 12.0008 1170.23 12 1169.3 12H1155.7ZM1175.5 15.0635C1176.36 15.2855 1177 16.0681 1177 17C1177 17.9319 1176.36 18.7145 1175.5 18.9365V15.0635Z"/>
</mask>
<path d="M1172.73 11.3545L1173.18 10.4635L1173.18 10.4635L1172.73 11.3545ZM1174.15 12.7744L1175.04 12.3204L1175.04 12.3204L1174.15 12.7744ZM1174.15 21.2256L1175.02 21.7135L1175.03 21.6967L1175.04 21.6796L1174.15 21.2256ZM1174.02 21.4492L1174.87 21.972L1174.88 21.9548L1174.89 21.9371L1174.02 21.4492ZM1172.73 22.6455L1173.15 23.5503L1173.17 23.5436L1173.18 23.5365L1172.73 22.6455ZM1172.59 22.708L1172.99 23.6268L1173 23.6201L1173.02 23.6128L1172.59 22.708ZM1155.7 23L1155.7 24H1155.7V23ZM1154.5 22.9941L1154.48 23.9941L1154.49 23.9941L1154.5 22.9941ZM1152.27 22.6455L1151.82 23.5365L1151.82 23.5365L1152.27 22.6455ZM1150.98 21.4492L1150.11 21.9371L1150.12 21.9548L1150.13 21.972L1150.98 21.4492ZM1150.85 21.2256L1149.96 21.6796L1149.97 21.6967L1149.98 21.7135L1150.85 21.2256ZM1150.79 12.9072L1149.89 12.4814L1149.88 12.4968L1149.87 12.5124L1150.79 12.9072ZM1150.85 12.7744L1149.96 12.3204L1149.96 12.3344L1149.95 12.3486L1150.85 12.7744ZM1152.05 11.4795L1151.56 10.6066L1151.55 10.6165L1151.53 10.627L1152.05 11.4795ZM1152.27 11.3545L1151.82 10.4635L1151.8 10.4722L1151.79 10.4816L1152.27 11.3545ZM1154.5 11.0059L1154.49 10.0058L1154.48 10.006L1154.5 11.0059ZM1155.7 11V9.99999L1155.7 10L1155.7 11ZM1153.65 12.041L1153.57 11.0443L1153.57 11.0443L1153.65 12.041ZM1152.73 12.2451L1152.27 11.3541L1152.27 11.3541L1152.73 12.2451ZM1151.75 13.2285L1150.85 12.7745L1150.85 12.7746L1151.75 13.2285ZM1151.54 14.1465L1150.54 14.065L1150.54 14.0651L1151.54 14.1465ZM1151.54 19.8535L1150.54 19.9349L1150.54 19.935L1151.54 19.8535ZM1151.75 20.7715L1150.85 21.2254L1150.85 21.2255L1151.75 20.7715ZM1152.73 21.7549L1152.27 22.6459L1152.27 22.6459L1152.73 21.7549ZM1153.65 21.959L1153.56 22.9557L1153.57 22.9557L1153.65 21.959ZM1171.35 21.959L1171.43 22.9557L1171.44 22.9557L1171.35 21.959ZM1172.27 21.7549L1172.73 22.6459L1172.73 22.6459L1172.27 21.7549ZM1173.25 20.7715L1174.15 21.2255L1174.15 21.2254L1173.25 20.7715ZM1173.46 19.8535L1174.46 19.935L1174.46 19.9349L1173.46 19.8535ZM1173.46 14.1465L1174.46 14.0651L1174.46 14.065L1173.46 14.1465ZM1173.25 13.2285L1174.15 12.7746L1174.15 12.7745L1173.25 13.2285ZM1172.27 12.2451L1172.73 11.3541L1172.73 11.3541L1172.27 12.2451ZM1171.35 12.041L1171.43 11.0443L1171.43 11.0443L1171.35 12.041ZM1175.5 15.0635L1175.75 14.0951L1174.5 13.7734V15.0635H1175.5ZM1175.5 18.9365H1174.5V20.2266L1175.75 19.9049L1175.5 18.9365ZM1169.3 11V12C1170.23 12 1170.86 12.0008 1171.35 12.0411C1171.83 12.0804 1172.09 12.1522 1172.27 12.2455L1172.73 11.3545L1173.18 10.4635C1172.67 10.2026 1172.12 10.0971 1171.52 10.0477C1170.92 9.99929 1170.19 10 1169.3 10V11ZM1172.73 11.3545L1172.27 12.2455C1172.69 12.4612 1173.04 12.8052 1173.25 13.2285L1174.15 12.7744L1175.04 12.3204C1174.63 11.5209 1173.98 10.8709 1173.18 10.4635L1172.73 11.3545ZM1174.15 12.7744L1173.25 13.2284C1173.35 13.4116 1173.42 13.6668 1173.46 14.147C1173.5 14.6388 1173.5 15.2737 1173.5 16.2002H1174.5H1175.5C1175.5 15.3065 1175.5 14.5761 1175.45 13.9839C1175.4 13.38 1175.3 12.8324 1175.04 12.3204L1174.15 12.7744ZM1174.5 16.2002H1173.5V17.7998H1174.5H1175.5V16.2002H1174.5ZM1174.5 17.7998H1173.5C1173.5 18.7263 1173.5 19.3612 1173.46 19.853C1173.42 20.3332 1173.35 20.5884 1173.25 20.7716L1174.15 21.2256L1175.04 21.6796C1175.3 21.1676 1175.4 20.62 1175.45 20.0161C1175.5 19.4239 1175.5 18.6935 1175.5 17.7998H1174.5ZM1174.15 21.2256L1173.27 20.7377L1173.15 20.9613L1174.02 21.4492L1174.89 21.9371L1175.02 21.7135L1174.15 21.2256ZM1174.02 21.4492L1173.17 20.9264C1172.95 21.2786 1172.64 21.5656 1172.27 21.7545L1172.73 22.6455L1173.18 23.5365C1173.88 23.1801 1174.46 22.638 1174.87 21.972L1174.02 21.4492ZM1172.73 22.6455L1172.3 21.7407L1172.17 21.8032L1172.59 22.708L1173.02 23.6128L1173.15 23.5503L1172.73 22.6455ZM1172.59 22.708L1172.2 21.7893C1172.01 21.8712 1171.74 21.9328 1171.26 21.9659C1170.78 21.9994 1170.17 22 1169.3 22V23V24C1170.14 24 1170.83 24.0006 1171.4 23.9611C1171.97 23.9212 1172.5 23.8368 1172.99 23.6268L1172.59 22.708ZM1169.3 23V22H1155.7V23V24H1169.3V23ZM1155.7 23L1155.71 22L1154.5 21.9942L1154.5 22.9941L1154.49 23.9941L1155.7 24L1155.7 23ZM1154.5 22.9941L1154.51 21.9943C1153.44 21.9775 1153.02 21.9025 1152.73 21.7545L1152.27 22.6455L1151.82 23.5365C1152.57 23.9199 1153.44 23.9776 1154.48 23.994L1154.5 22.9941ZM1152.27 22.6455L1152.73 21.7545C1152.36 21.5656 1152.05 21.2786 1151.83 20.9264L1150.98 21.4492L1150.13 21.972C1150.54 22.638 1151.12 23.1801 1151.82 23.5365L1152.27 22.6455ZM1150.98 21.4492L1151.85 20.9613L1151.73 20.7377L1150.85 21.2256L1149.98 21.7135L1150.11 21.9371L1150.98 21.4492ZM1150.85 21.2256L1151.75 20.7716C1151.65 20.5884 1151.58 20.3332 1151.54 19.853C1151.5 19.3612 1151.5 18.7263 1151.5 17.7998H1150.5H1149.5C1149.5 18.6935 1149.5 19.4239 1149.55 20.0161C1149.6 20.62 1149.7 21.1676 1149.96 21.6796L1150.85 21.2256ZM1150.5 17.7998H1151.5V16.2002H1150.5H1149.5V17.7998H1150.5ZM1150.5 16.2002H1151.5C1151.5 15.3332 1151.5 14.7202 1151.53 14.2379C1151.57 13.7614 1151.63 13.4928 1151.71 13.3021L1150.79 12.9072L1149.87 12.5124C1149.66 13.0012 1149.58 13.5258 1149.54 14.0992C1149.5 14.6668 1149.5 15.3605 1149.5 16.2002H1150.5ZM1150.79 12.9072L1151.7 13.333L1151.76 13.2002L1150.85 12.7744L1149.95 12.3486L1149.89 12.4814L1150.79 12.9072ZM1150.85 12.7744L1151.75 13.2285C1151.93 12.8578 1152.22 12.5479 1152.57 12.3319L1152.05 11.4795L1151.53 10.627C1150.86 11.0355 1150.32 11.621 1149.96 12.3204L1150.85 12.7744ZM1152.05 11.4795L1152.54 12.3524L1152.76 12.2274L1152.27 11.3545L1151.79 10.4816L1151.56 10.6066L1152.05 11.4795ZM1152.27 11.3545L1152.73 12.2455C1153.02 12.0975 1153.44 12.0225 1154.51 12.0057L1154.5 11.0059L1154.48 10.006C1153.44 10.0224 1152.57 10.0801 1151.82 10.4635L1152.27 11.3545ZM1154.5 11.0059L1154.5 12.0058L1155.71 12L1155.7 11L1155.7 10L1154.49 10.0059L1154.5 11.0059ZM1155.7 11V12H1169.3V11V10H1155.7V11ZM1155.7 12V11C1154.79 11 1154.11 11.0001 1153.57 11.0443L1153.65 12.041L1153.73 13.0377C1154.17 13.0016 1154.76 13 1155.7 13V12ZM1153.65 12.041L1153.57 11.0443C1153.02 11.0886 1152.62 11.1768 1152.27 11.3541L1152.73 12.2451L1153.18 13.1361C1153.2 13.1269 1153.31 13.0719 1153.73 13.0377L1153.65 12.041ZM1152.73 12.2451L1152.27 11.3541C1151.66 11.6657 1151.17 12.163 1150.85 12.7745L1151.75 13.2285L1152.64 13.6825C1152.76 13.4473 1152.95 13.256 1153.18 13.1361L1152.73 12.2451ZM1151.75 13.2285L1150.85 12.7746C1150.68 13.1225 1150.59 13.5241 1150.54 14.065L1151.54 14.1465L1152.54 14.228C1152.57 13.8092 1152.63 13.7007 1152.64 13.6825L1151.75 13.2285ZM1151.54 14.1465L1150.54 14.0651C1150.5 14.6071 1150.5 15.2904 1150.5 16.2002H1151.5H1152.5C1152.5 15.2568 1152.5 14.6694 1152.54 14.2279L1151.54 14.1465ZM1151.5 16.2002H1150.5V17.7998H1151.5H1152.5V16.2002H1151.5ZM1151.5 17.7998H1150.5C1150.5 18.7096 1150.5 19.3929 1150.54 19.9349L1151.54 19.8535L1152.54 19.7721C1152.5 19.3306 1152.5 18.7432 1152.5 17.7998H1151.5ZM1151.54 19.8535L1150.54 19.935C1150.59 20.4759 1150.68 20.8775 1150.85 21.2254L1151.75 20.7715L1152.64 20.3175C1152.63 20.2993 1152.57 20.1908 1152.54 19.772L1151.54 19.8535ZM1151.75 20.7715L1150.85 21.2255C1151.17 21.837 1151.66 22.3343 1152.27 22.6459L1152.73 21.7549L1153.18 20.8639C1152.95 20.744 1152.76 20.5527 1152.64 20.3175L1151.75 20.7715ZM1152.73 21.7549L1152.27 22.6459C1152.62 22.8232 1153.02 22.9114 1153.56 22.9557L1153.65 21.959L1153.73 20.9623C1153.31 20.9281 1153.2 20.8731 1153.18 20.8639L1152.73 21.7549ZM1153.65 21.959L1153.57 22.9557C1154.11 22.9999 1154.79 23 1155.7 23V22V21C1154.76 21 1154.17 20.9984 1153.73 20.9623L1153.65 21.959ZM1155.7 22V23H1169.3V22V21H1155.7V22ZM1169.3 22V23C1170.21 23 1170.89 22.9999 1171.43 22.9557L1171.35 21.959L1171.27 20.9623C1170.83 20.9984 1170.24 21 1169.3 21V22ZM1171.35 21.959L1171.44 22.9557C1171.98 22.9114 1172.38 22.8232 1172.73 22.6459L1172.27 21.7549L1171.82 20.8639C1171.8 20.8731 1171.69 20.9281 1171.27 20.9623L1171.35 21.959ZM1172.27 21.7549L1172.73 22.6459C1173.34 22.3343 1173.83 21.837 1174.15 21.2255L1173.25 20.7715L1172.36 20.3175C1172.24 20.5527 1172.05 20.744 1171.82 20.8639L1172.27 21.7549ZM1173.25 20.7715L1174.15 21.2254C1174.32 20.8775 1174.41 20.4759 1174.46 19.935L1173.46 19.8535L1172.46 19.772C1172.43 20.1908 1172.37 20.2993 1172.36 20.3175L1173.25 20.7715ZM1173.46 19.8535L1174.46 19.9349C1174.5 19.3929 1174.5 18.7096 1174.5 17.7998H1173.5H1172.5C1172.5 18.7432 1172.5 19.3306 1172.46 19.7721L1173.46 19.8535ZM1173.5 17.7998H1174.5V16.2002H1173.5H1172.5V17.7998H1173.5ZM1173.5 16.2002H1174.5C1174.5 15.2904 1174.5 14.6071 1174.46 14.0651L1173.46 14.1465L1172.46 14.2279C1172.5 14.6694 1172.5 15.2568 1172.5 16.2002H1173.5ZM1173.46 14.1465L1174.46 14.065C1174.41 13.5241 1174.32 13.1225 1174.15 12.7746L1173.25 13.2285L1172.36 13.6825C1172.37 13.7007 1172.43 13.8092 1172.46 14.228L1173.46 14.1465ZM1173.25 13.2285L1174.15 12.7745C1173.83 12.163 1173.34 11.6657 1172.73 11.3541L1172.27 12.2451L1171.82 13.1361C1172.05 13.256 1172.24 13.4473 1172.36 13.6825L1173.25 13.2285ZM1172.27 12.2451L1172.73 11.3541C1172.38 11.1768 1171.98 11.0886 1171.43 11.0443L1171.35 12.041L1171.27 13.0377C1171.69 13.0719 1171.8 13.1269 1171.82 13.1361L1172.27 12.2451ZM1171.35 12.041L1171.43 11.0443C1170.89 11.0001 1170.21 11 1169.3 11V12V13C1170.24 13 1170.83 13.0016 1171.27 13.0377L1171.35 12.041ZM1169.3 12V11H1155.7V12V13H1169.3V12ZM1175.5 15.0635L1175.25 16.0319C1175.68 16.1431 1176 16.5358 1176 17H1177H1178C1178 15.6005 1177.04 14.428 1175.75 14.0951L1175.5 15.0635ZM1177 17H1176C1176 17.4642 1175.68 17.8569 1175.25 17.9681L1175.5 18.9365L1175.75 19.9049C1177.04 19.572 1178 18.3995 1178 17H1177ZM1175.5 18.9365H1176.5V15.0635H1175.5H1174.5V18.9365H1175.5Z" fill="white" mask="url(#path-10-inside-1_40001178_36319)"/>
</g>
<rect x="1152.5" y="13" width="20" height="8" rx="1.5" fill="white"/>
<path d="M2029.12 -192.737L2449.24 458.049L1960.13 1058.71L1237.73 779.153L1280.37 5.71651L2029.12 -192.737Z" fill="#1F1F25"/>
</g>
<defs>
<clipPath id="clip0_40001178_36319">
<rect width="1194" height="839" fill="white"/>
</clipPath>
</defs>
</svg>
