<svg width="1194" height="839" viewBox="0 0 1194 839" fill="none" xmlns="http://www.w3.org/2000/svg">
<g clip-path="url(#clip0_40001424_18565)">
<rect width="1194" height="839" fill="#D1F00B"/>
<path d="M1460.21 328.694C1465.92 298.416 1468.9 267.175 1468.9 235.229C1468.9 -39.3825 1248.55 -262 976.727 -262C810.415 -262 663.365 -178.659 574.28 -51.0564C488.747 -123.599 378.432 -167.29 258.019 -167.29C-11.1918 -167.29 -229.916 51.0722 -234.089 322.042H-234.15C-536.169 322.042 -781 569.392 -781 874.521C-781 1179.65 -536.169 1427 -234.15 1427H1375.16C1677.17 1427 1922 1179.65 1922 874.521C1922 598.623 1721.83 369.976 1460.21 328.694Z" fill="#3F50B8"/>
<path d="M107.306 373.654C135.089 237.432 267.283 149.371 402.568 176.963C387.519 250.75 434.726 322.683 508.006 337.628C534.767 343.087 579.769 351.935 579.769 351.935L533.656 578.03C533.656 578.03 488.653 569.182 461.892 563.724C388.612 548.778 317.006 596.479 301.956 670.265C166.671 642.673 79.5226 509.876 107.306 373.654Z" fill="#BD67FF"/>
<path d="M1086.65 373.654C1058.86 237.432 926.67 149.371 791.385 176.963C806.434 250.75 759.228 322.683 685.948 337.628C659.186 343.087 614.184 351.935 614.184 351.935L660.297 578.03C660.297 578.03 705.3 569.182 732.061 563.724C805.341 548.778 876.948 596.479 891.997 670.265C1027.28 642.673 1114.43 509.876 1086.65 373.654Z" fill="#BD67FF"/>
<path d="M-42.8328 -36H1236.83C1273.79 167.945 975.067 216.984 975.067 422.5C975.067 628.016 1273.79 677.054 1236.83 881H-42.8328C-79.7933 677.054 218.935 628.016 218.935 422.5C218.935 216.984 -79.7933 167.945 -42.8328 -36Z" fill="#1F1F25"/>
</g>
<defs>
<clipPath id="clip0_40001424_18565">
<rect width="1194" height="839" fill="white"/>
</clipPath>
</defs>
</svg>
