<svg width="1194" height="834" viewBox="0 0 1194 834" fill="none" xmlns="http://www.w3.org/2000/svg">
<g clip-path="url(#clip0_40001178_36411)">
<rect width="1194" height="834" fill="#7040C8"/>
<path fill-rule="evenodd" clip-rule="evenodd" d="M430 -67.6339C272.255 42.3032 80.4543 106.769 -126.405 106.769C-664.405 106.769 -1100.54 -329.271 -1100.54 -867.148C-1100.54 -1196.54 -936.988 -1487.75 -686.629 -1664C-1302.5 -1638.64 -1794 -1131.46 -1794 -509.495C-1794 128.668 -1276.55 646 -638.241 646C-156.476 646 256.449 351.294 430 -67.6339Z" fill="#1F1F25"/>
<path fill-rule="evenodd" clip-rule="evenodd" d="M430 -67.6339C272.255 42.3032 80.4543 106.769 -126.405 106.769C-664.405 106.769 -1100.54 -329.271 -1100.54 -867.148C-1100.54 -1196.54 -936.988 -1487.75 -686.629 -1664C-1302.5 -1638.64 -1794 -1131.46 -1794 -509.495C-1794 128.668 -1276.55 646 -638.241 646C-156.476 646 256.449 351.294 430 -67.6339Z" fill="#1F1F25"/>
<path fill-rule="evenodd" clip-rule="evenodd" d="M764 -67.6339C921.745 42.3032 1113.55 106.769 1320.4 106.769C1858.4 106.769 2294.54 -329.271 2294.54 -867.148C2294.54 -1196.54 2130.99 -1487.75 1880.63 -1664C2496.5 -1638.64 2988 -1131.46 2988 -509.495C2988 128.668 2470.55 646 1832.24 646C1350.48 646 937.551 351.294 764 -67.6339Z" fill="#1F1F25"/>
<path fill-rule="evenodd" clip-rule="evenodd" d="M764 -67.6339C921.745 42.3032 1113.55 106.769 1320.4 106.769C1858.4 106.769 2294.54 -329.271 2294.54 -867.148C2294.54 -1196.54 2130.99 -1487.75 1880.63 -1664C2496.5 -1638.64 2988 -1131.46 2988 -509.495C2988 128.668 2470.55 646 1832.24 646C1350.48 646 937.551 351.294 764 -67.6339Z" fill="#1F1F25"/>
<path d="M593.304 432.611C454.296 430.362 343.419 316.624 345.653 178.571C420.95 179.79 482.97 120.156 484.181 45.3774C484.623 18.0687 485.041 -27.7936 485.041 -27.7936L715.761 -24.0597C715.761 -24.0597 715.342 21.8025 714.9 49.1113C713.69 123.89 773.75 185.499 849.045 186.718C846.811 324.77 732.312 434.861 593.304 432.611Z" fill="#BD67FF"/>
<path d="M593.304 432.611C454.296 430.362 343.419 316.624 345.653 178.571C420.95 179.79 482.97 120.156 484.181 45.3774C484.623 18.0687 485.041 -27.7936 485.041 -27.7936L715.761 -24.0597C715.761 -24.0597 715.342 21.8025 714.9 49.1113C713.69 123.89 773.75 185.499 849.045 186.718C846.811 324.77 732.312 434.861 593.304 432.611Z" fill="#BD67FF"/>
<path d="M593.304 432.611C454.296 430.362 343.419 316.624 345.653 178.571C420.95 179.79 482.97 120.156 484.181 45.3774C484.623 18.0687 485.041 -27.7936 485.041 -27.7936L715.761 -24.0597C715.761 -24.0597 715.342 21.8025 714.9 49.1113C713.69 123.89 773.75 185.499 849.045 186.718C846.811 324.77 732.312 434.861 593.304 432.611Z" fill="#BD67FF"/>
<path d="M827.004 715.729C827.004 576.703 938.933 464 1077 464C1077 539.306 1137.63 600.354 1212.42 600.354C1239.73 600.354 1265.6 600.354 1265.6 600.354L1265.6 831.104C1265.6 831.104 1239.73 831.104 1212.42 831.104C1137.63 831.104 1077 892.152 1077 967.458C938.933 967.458 827.004 854.756 827.004 715.729Z" fill="#6A7EFF"/>
<path d="M827.004 715.729C827.004 576.703 938.933 464 1077 464C1077 539.306 1137.63 600.354 1212.42 600.354C1239.73 600.354 1265.6 600.354 1265.6 600.354L1265.6 831.104C1265.6 831.104 1239.73 831.104 1212.42 831.104C1137.63 831.104 1077 892.152 1077 967.458C938.933 967.458 827.004 854.756 827.004 715.729Z" fill="#6A7EFF"/>
<path d="M367.602 721.729C367.602 860.755 255.672 973.458 117.602 973.458C117.602 898.152 56.9728 837.104 -17.8158 837.104C-45.1281 837.104 -70.9937 837.104 -70.9937 837.104L-70.9937 606.354C-70.9937 606.354 -45.1281 606.354 -17.8158 606.354C56.9728 606.354 117.602 545.306 117.602 470C255.673 470 367.602 582.702 367.602 721.729Z" fill="#FFAF25"/>
<path d="M367.602 721.729C367.602 860.755 255.672 973.458 117.602 973.458C117.602 898.152 56.9728 837.104 -17.8158 837.104C-45.1281 837.104 -70.9937 837.104 -70.9937 837.104L-70.9937 606.354C-70.9937 606.354 -45.1281 606.354 -17.8158 606.354C56.9728 606.354 117.602 545.306 117.602 470C255.673 470 367.602 582.702 367.602 721.729Z" fill="#FFAF25"/>
<path d="M597.004 252C867.071 252 1086 469.429 1086 737.64C939.717 737.64 821.127 855.417 821.127 1000.7C821.127 1053.75 821.127 1104 821.127 1104H372.88C372.88 1104 372.88 1053.75 372.88 1000.7C372.88 855.417 254.29 737.64 108.004 737.64C108.004 469.429 326.935 252 597.004 252Z" fill="#1F1F25"/>
<path d="M597.004 252C867.071 252 1086 469.429 1086 737.64C939.717 737.64 821.127 855.417 821.127 1000.7C821.127 1053.75 821.127 1104 821.127 1104H372.88C372.88 1104 372.88 1053.75 372.88 1000.7C372.88 855.417 254.29 737.64 108.004 737.64C108.004 469.429 326.935 252 597.004 252Z" fill="#1F1F25"/>
</g>
<defs>
<clipPath id="clip0_40001178_36411">
<rect width="1194" height="834" fill="white"/>
</clipPath>
</defs>
</svg>
