<svg width="1194" height="829" viewBox="0 0 1194 829" fill="none" xmlns="http://www.w3.org/2000/svg">
<g clip-path="url(#clip0_40001314_26934)">
<rect width="1194" height="829" fill="#49AEE1"/>
<path d="M20.8086 2.33984C21.2344 2.33984 21.6426 2.41992 22.0332 2.58008C22.4277 2.73633 22.7812 2.98633 23.0938 3.33008C23.4062 3.66992 23.6523 4.11328 23.832 4.66016C24.0117 5.20703 24.1016 5.86914 24.1016 6.64648V6.6582C24.1016 7.61133 23.9688 8.42773 23.7031 9.10742C23.4375 9.7832 23.0547 10.3027 22.5547 10.666C22.0586 11.0254 21.4609 11.2051 20.7617 11.2051C20.2617 11.2051 19.8105 11.1133 19.4082 10.9297C19.0098 10.7461 18.6777 10.4922 18.4121 10.168C18.1465 9.84375 17.9668 9.4707 17.873 9.04883L17.8555 8.97852H19.1621L19.1855 9.03711C19.2637 9.25195 19.377 9.4375 19.5254 9.59375C19.6738 9.75 19.8516 9.87305 20.0586 9.96289C20.2656 10.0488 20.502 10.0918 20.7676 10.0918C21.2402 10.0918 21.625 9.95312 21.9219 9.67578C22.2227 9.39453 22.4473 9.02148 22.5957 8.55664C22.7441 8.0918 22.8281 7.58008 22.8477 7.02148C22.8516 6.96289 22.8535 6.90625 22.8535 6.85156C22.8535 6.79688 22.8535 6.74414 22.8535 6.69336L22.5957 5.28125C22.5957 4.9375 22.5156 4.62695 22.3555 4.34961C22.1992 4.07227 21.9863 3.85156 21.7168 3.6875C21.4512 3.52344 21.1523 3.44141 20.8203 3.44141C20.4922 3.44141 20.1934 3.52148 19.9238 3.68164C19.6582 3.8418 19.4453 4.05859 19.2852 4.33203C19.125 4.60156 19.0449 4.90625 19.0449 5.24609V5.25781C19.0449 5.60156 19.1211 5.9082 19.2734 6.17773C19.4258 6.44727 19.6348 6.66016 19.9004 6.81641C20.166 6.96875 20.4668 7.04492 20.8027 7.04492C21.1426 7.04492 21.4473 6.96875 21.7168 6.81641C21.9863 6.66406 22.1992 6.45703 22.3555 6.19531C22.5156 5.92969 22.5957 5.62695 22.5957 5.28711V5.28125H22.9414V6.82227H22.7363C22.6348 7.04883 22.4824 7.25977 22.2793 7.45508C22.0762 7.65039 21.8262 7.80859 21.5293 7.92969C21.2363 8.04688 20.8984 8.10547 20.5156 8.10547C19.9805 8.10547 19.5039 7.98438 19.0859 7.74219C18.668 7.49609 18.3398 7.16211 18.1016 6.74023C17.8633 6.31445 17.7441 5.83203 17.7441 5.29297V5.28125C17.7441 4.71484 17.875 4.21094 18.1367 3.76953C18.4023 3.32422 18.7656 2.97461 19.2266 2.7207C19.6914 2.4668 20.2188 2.33984 20.8086 2.33984ZM26.709 9.83984C26.4668 9.83984 26.2617 9.75586 26.0938 9.58789C25.9297 9.41992 25.8477 9.21875 25.8477 8.98438C25.8477 8.74219 25.9297 8.53906 26.0938 8.375C26.2617 8.21094 26.4668 8.12891 26.709 8.12891C26.9551 8.12891 27.1602 8.21094 27.3242 8.375C27.4883 8.53906 27.5703 8.74219 27.5703 8.98438C27.5703 9.21875 27.4883 9.41992 27.3242 9.58789C27.1602 9.75586 26.9551 9.83984 26.709 9.83984ZM26.709 5.41016C26.4668 5.41016 26.2617 5.32617 26.0938 5.1582C25.9297 4.99023 25.8477 4.78906 25.8477 4.55469C25.8477 4.3125 25.9297 4.10938 26.0938 3.94531C26.2617 3.78125 26.4668 3.69922 26.709 3.69922C26.9551 3.69922 27.1602 3.78125 27.3242 3.94531C27.4883 4.10938 27.5703 4.3125 27.5703 4.55469C27.5703 4.78906 27.4883 4.99023 27.3242 5.1582C27.1602 5.32617 26.9551 5.41016 26.709 5.41016ZM33.3945 11V9.32422H29.2695V8.20508C29.4922 7.82227 29.7188 7.4375 29.9492 7.05078C30.1836 6.66406 30.418 6.27734 30.6523 5.89062C30.8906 5.50391 31.1289 5.12305 31.3672 4.74805C31.6055 4.36914 31.8438 3.99609 32.082 3.62891C32.3203 3.25781 32.5547 2.89648 32.7852 2.54492H34.666V8.20508H35.832V9.32422H34.666V11H33.3945ZM30.5352 8.22852H33.4121V3.6582H33.3359C33.1523 3.93164 32.9668 4.21484 32.7793 4.50781C32.5918 4.79688 32.4004 5.09375 32.2051 5.39844C32.0137 5.70312 31.8223 6.00977 31.6309 6.31836C31.4395 6.62695 31.252 6.93555 31.0684 7.24414C30.8848 7.54883 30.707 7.84961 30.5352 8.14648V8.22852ZM39.3711 11V3.89844H39.2773L37.1504 5.41602V4.12695L39.377 2.54492H40.6895V11H39.3711Z" fill="white"/>
<path d="M52.0605 11V2.54492H53.5781L56.2676 9.2832H56.3672L59.0566 2.54492H60.5742V11H59.373V4.80078H58.7227L60.0938 2.7793L56.8008 11H55.8281L52.541 2.7793L53.9062 4.80078H53.2617V11H52.0605ZM65.2383 11.123C64.6172 11.123 64.0801 10.9902 63.627 10.7246C63.1777 10.459 62.832 10.0801 62.5898 9.58789C62.3477 9.0918 62.2266 8.50391 62.2266 7.82422V7.8125C62.2266 7.12891 62.3477 6.54102 62.5898 6.04883C62.8359 5.55664 63.1836 5.17773 63.6328 4.91211C64.0859 4.64648 64.6211 4.51367 65.2383 4.51367C65.8594 4.51367 66.3945 4.64648 66.8438 4.91211C67.293 5.17383 67.6387 5.55273 67.8809 6.04883C68.127 6.54102 68.25 7.12891 68.25 7.8125V7.82422C68.25 8.50391 68.127 9.0918 67.8809 9.58789C67.6387 10.0801 67.293 10.459 66.8438 10.7246C66.3984 10.9902 65.8633 11.123 65.2383 11.123ZM65.2383 10.0566C65.6016 10.0566 65.9102 9.96875 66.1641 9.79297C66.418 9.61328 66.6113 9.35742 66.7441 9.02539C66.877 8.69336 66.9434 8.29297 66.9434 7.82422V7.8125C66.9434 7.33984 66.877 6.9375 66.7441 6.60547C66.6113 6.27344 66.418 6.01953 66.1641 5.84375C65.9102 5.66406 65.6016 5.57422 65.2383 5.57422C64.875 5.57422 64.5664 5.66406 64.3125 5.84375C64.0586 6.01953 63.8633 6.27344 63.7266 6.60547C63.5938 6.9375 63.5273 7.33984 63.5273 7.8125V7.82422C63.5273 8.29297 63.5938 8.69336 63.7266 9.02539C63.8633 9.35742 64.0586 9.61328 64.3125 9.79297C64.5664 9.96875 64.875 10.0566 65.2383 10.0566ZM69.7617 11V4.63672H71.0332V5.59766H71.1328C71.2891 5.25781 71.5195 4.99219 71.8242 4.80078C72.1289 4.60938 72.5137 4.51367 72.9785 4.51367C73.6934 4.51367 74.2402 4.71875 74.6191 5.12891C74.998 5.53906 75.1875 6.12305 75.1875 6.88086V11H73.9102V7.17969C73.9102 6.64844 73.7988 6.25391 73.5762 5.99609C73.3574 5.73438 73.0137 5.60352 72.5449 5.60352C72.2363 5.60352 71.9688 5.67188 71.7422 5.80859C71.5156 5.94141 71.3398 6.13281 71.2148 6.38281C71.0938 6.62891 71.0332 6.92383 71.0332 7.26758V11H69.7617ZM82.3477 11.2051C81.957 11.2051 81.6074 11.1484 81.2988 11.0352C80.9902 10.9258 80.7285 10.7676 80.5137 10.5605C80.2988 10.3535 80.1309 10.1094 80.0098 9.82812C79.8887 9.54688 79.8184 9.23828 79.7988 8.90234L79.793 8.83203H81.0938V8.87891C81.1133 9.09375 81.1719 9.28906 81.2695 9.46484C81.3672 9.63672 81.5039 9.77344 81.6797 9.875C81.8594 9.97656 82.0801 10.0273 82.3418 10.0273C82.7754 10.0273 83.1055 9.90234 83.332 9.65234C83.5586 9.39844 83.6719 9.0293 83.6719 8.54492V2.54492H84.9902V8.55664C84.9902 9.11133 84.8848 9.58594 84.6738 9.98047C84.4668 10.375 84.166 10.6777 83.7715 10.8887C83.3809 11.0996 82.9062 11.2051 82.3477 11.2051ZM89.0859 11.123C88.6094 11.123 88.207 11.0312 87.8789 10.8477C87.5547 10.6602 87.3105 10.3906 87.1465 10.0391C86.9863 9.68359 86.9062 9.25586 86.9062 8.75586V4.63672H88.1777V8.45703C88.1777 8.98047 88.2812 9.37305 88.4883 9.63477C88.6953 9.89648 89.0332 10.0273 89.502 10.0273C89.752 10.0273 89.9746 9.99023 90.1699 9.91602C90.3652 9.83789 90.5293 9.72656 90.6621 9.58203C90.7949 9.4375 90.8926 9.26367 90.9551 9.06055C91.0215 8.85742 91.0547 8.62695 91.0547 8.36914V4.63672H92.332V11H91.0547V10.0391H90.9609C90.8594 10.2656 90.7207 10.4609 90.5449 10.625C90.3691 10.7852 90.1582 10.9082 89.9121 10.9941C89.6699 11.0801 89.3945 11.123 89.0859 11.123ZM94.1602 11V4.63672H95.4316V5.59766H95.5312C95.6875 5.25781 95.918 4.99219 96.2227 4.80078C96.5273 4.60938 96.9121 4.51367 97.377 4.51367C98.0918 4.51367 98.6387 4.71875 99.0176 5.12891C99.3965 5.53906 99.5859 6.12305 99.5859 6.88086V11H98.3086V7.17969C98.3086 6.64844 98.1973 6.25391 97.9746 5.99609C97.7559 5.73438 97.4121 5.60352 96.9434 5.60352C96.6348 5.60352 96.3672 5.67188 96.1406 5.80859C95.9141 5.94141 95.7383 6.13281 95.6133 6.38281C95.4922 6.62891 95.4316 6.92383 95.4316 7.26758V11H94.1602ZM107.748 11.2051C107.322 11.2051 106.912 11.127 106.518 10.9707C106.127 10.8105 105.775 10.5605 105.463 10.2207C105.154 9.87695 104.908 9.43164 104.725 8.88477C104.545 8.33789 104.455 7.67578 104.455 6.89844V6.88672C104.455 5.93359 104.588 5.11914 104.854 4.44336C105.119 3.76367 105.502 3.24414 106.002 2.88477C106.502 2.52148 107.1 2.33984 107.795 2.33984C108.295 2.33984 108.746 2.43164 109.148 2.61523C109.551 2.79883 109.885 3.05273 110.15 3.37695C110.416 3.69727 110.594 4.07031 110.684 4.49609L110.701 4.56641H109.395L109.371 4.50781C109.293 4.28906 109.18 4.10352 109.031 3.95117C108.887 3.79492 108.709 3.67383 108.498 3.58789C108.291 3.49805 108.055 3.45312 107.789 3.45312C107.316 3.45312 106.93 3.59375 106.629 3.875C106.332 4.15234 106.111 4.52344 105.967 4.98828C105.822 5.45312 105.738 5.96484 105.715 6.52344C105.711 6.57812 105.709 6.63281 105.709 6.6875C105.709 6.74219 105.709 6.79688 105.709 6.85156L105.961 8.26367C105.961 8.60742 106.039 8.91797 106.195 9.19531C106.355 9.47266 106.57 9.69336 106.84 9.85742C107.109 10.0215 107.408 10.1035 107.736 10.1035C108.068 10.1035 108.367 10.0234 108.633 9.86328C108.902 9.70312 109.115 9.48633 109.271 9.21289C109.432 8.93945 109.512 8.63477 109.512 8.29883V8.28711C109.512 7.93945 109.436 7.63281 109.283 7.36719C109.135 7.09766 108.928 6.88672 108.662 6.73438C108.396 6.57812 108.094 6.5 107.754 6.5C107.418 6.5 107.113 6.57617 106.84 6.72852C106.57 6.88086 106.355 7.08984 106.195 7.35547C106.039 7.61719 105.961 7.91797 105.961 8.25781V8.26367H105.615V6.72266H105.82C105.926 6.49609 106.078 6.28516 106.277 6.08984C106.48 5.89453 106.73 5.73828 107.027 5.62109C107.324 5.5 107.664 5.43945 108.047 5.43945C108.586 5.43945 109.062 5.5625 109.477 5.80859C109.895 6.05078 110.221 6.38281 110.455 6.80469C110.693 7.22656 110.812 7.70898 110.812 8.25195V8.26367C110.812 8.83008 110.68 9.33594 110.414 9.78125C110.152 10.2227 109.791 10.5703 109.33 10.8242C108.869 11.0781 108.342 11.2051 107.748 11.2051Z" fill="white"/>
<path d="M1088.52 2.61732C1088.45 2.80109 1088.45 3.03406 1088.45 3.5V10.5C1088.45 10.9659 1088.45 11.1989 1088.52 11.3827C1088.62 11.6277 1088.82 11.8224 1089.06 11.9239C1089.25 12 1089.48 12 1089.95 12C1090.41 12 1090.65 12 1090.83 11.9239C1091.07 11.8224 1091.27 11.6277 1091.37 11.3827C1091.45 11.1989 1091.45 10.9659 1091.45 10.5V3.5C1091.45 3.03406 1091.45 2.80109 1091.37 2.61732C1091.27 2.37229 1091.07 2.17761 1090.83 2.07612C1090.65 2 1090.41 2 1089.95 2C1089.48 2 1089.25 2 1089.06 2.07612C1088.82 2.17761 1088.62 2.37229 1088.52 2.61732Z" fill="white"/>
<path d="M1083.95 5.5C1083.95 5.03406 1083.95 4.80109 1084.02 4.61732C1084.12 4.37229 1084.32 4.17761 1084.56 4.07612C1084.75 4 1084.98 4 1085.45 4C1085.91 4 1086.15 4 1086.33 4.07612C1086.57 4.17761 1086.77 4.37229 1086.87 4.61732C1086.95 4.80109 1086.95 5.03406 1086.95 5.5V10.5C1086.95 10.9659 1086.95 11.1989 1086.87 11.3827C1086.77 11.6277 1086.57 11.8224 1086.33 11.9239C1086.15 12 1085.91 12 1085.45 12C1084.98 12 1084.75 12 1084.56 11.9239C1084.32 11.8224 1084.12 11.6277 1084.02 11.3827C1083.95 11.1989 1083.95 10.9659 1083.95 10.5V5.5Z" fill="white"/>
<path d="M1079.52 6.61732C1079.45 6.80109 1079.45 7.03406 1079.45 7.5V10.5C1079.45 10.9659 1079.45 11.1989 1079.52 11.3827C1079.62 11.6277 1079.82 11.8224 1080.06 11.9239C1080.25 12 1080.48 12 1080.95 12C1081.41 12 1081.65 12 1081.83 11.9239C1082.07 11.8224 1082.27 11.6277 1082.37 11.3827C1082.45 11.1989 1082.45 10.9659 1082.45 10.5V7.5C1082.45 7.03406 1082.45 6.80109 1082.37 6.61732C1082.27 6.37229 1082.07 6.17761 1081.83 6.07612C1081.65 6 1081.41 6 1080.95 6C1080.48 6 1080.25 6 1080.06 6.07612C1079.82 6.17761 1079.62 6.37229 1079.52 6.61732Z" fill="white"/>
<path d="M1075.02 8.11732C1074.95 8.30109 1074.95 8.53406 1074.95 9V10.5C1074.95 10.9659 1074.95 11.1989 1075.02 11.3827C1075.12 11.6277 1075.32 11.8224 1075.56 11.9239C1075.75 12 1075.98 12 1076.45 12C1076.91 12 1077.15 12 1077.33 11.9239C1077.57 11.8224 1077.77 11.6277 1077.87 11.3827C1077.95 11.1989 1077.95 10.9659 1077.95 10.5V9C1077.95 8.53406 1077.95 8.30109 1077.87 8.11732C1077.77 7.87229 1077.57 7.67761 1077.33 7.57612C1077.15 7.5 1076.91 7.5 1076.45 7.5C1075.98 7.5 1075.75 7.5 1075.56 7.57612C1075.32 7.67761 1075.12 7.87229 1075.02 8.11732Z" fill="white"/>
<path d="M1107.95 6.246C1108.06 6.3525 1108.24 6.353 1108.35 6.243L1109.41 5.179C1109.53 5.064 1109.53 4.8745 1109.41 4.763C1107.6 3.0505 1105.16 2 1102.47 2C1099.79 2 1097.34 3.0505 1095.54 4.763C1095.42 4.8745 1095.42 5.064 1095.53 5.179L1096.6 6.243C1096.71 6.353 1096.88 6.3525 1097 6.246C1098.43 4.9015 1100.36 4.077 1102.47 4.077C1104.59 4.077 1106.52 4.9015 1107.95 6.246Z" fill="white"/>
<path d="M1105.5 8.69645C1105.62 8.79945 1105.79 8.80045 1105.9 8.69095L1106.96 7.62845C1107.08 7.51295 1107.08 7.32045 1106.96 7.20995C1105.78 6.12445 1104.2 5.46145 1102.47 5.46145C1100.74 5.46145 1099.17 6.12445 1097.99 7.20995C1097.87 7.32045 1097.87 7.51295 1097.98 7.62845L1099.04 8.69095C1099.15 8.80045 1099.33 8.79945 1099.44 8.69645C1100.25 7.97695 1101.31 7.53845 1102.47 7.53845C1103.64 7.53845 1104.7 7.97695 1105.5 8.69645Z" fill="white"/>
<path d="M1104.51 9.6611C1104.63 9.7661 1104.63 9.9616 1104.52 10.0776L1102.68 11.9156C1102.57 12.0281 1102.38 12.0281 1102.27 11.9156L1100.43 10.0776C1100.32 9.9616 1100.32 9.7661 1100.44 9.6611C1100.99 9.2006 1101.7 8.9231 1102.47 8.9231C1103.25 8.9231 1103.96 9.2006 1104.51 9.6611Z" fill="white"/>
<path d="M1116.48 11V3.89844H1116.38L1114.26 5.41602V4.12695L1116.48 2.54492H1117.79V11H1116.48ZM1123.17 11.2051C1122.52 11.2051 1121.96 11.0254 1121.5 10.666C1121.03 10.3066 1120.68 9.79688 1120.43 9.13672C1120.18 8.47266 1120.05 7.68555 1120.05 6.77539V6.76367C1120.05 5.85352 1120.18 5.06836 1120.43 4.4082C1120.68 3.74805 1121.03 3.23828 1121.5 2.87891C1121.96 2.51953 1122.52 2.33984 1123.17 2.33984C1123.83 2.33984 1124.38 2.51953 1124.85 2.87891C1125.31 3.23828 1125.67 3.74805 1125.92 4.4082C1126.18 5.06836 1126.3 5.85352 1126.3 6.76367V6.77539C1126.3 7.68555 1126.18 8.47266 1125.92 9.13672C1125.67 9.79688 1125.31 10.3066 1124.85 10.666C1124.38 11.0254 1123.83 11.2051 1123.17 11.2051ZM1123.17 10.1094C1123.55 10.1094 1123.88 9.97461 1124.14 9.70508C1124.41 9.43555 1124.62 9.05273 1124.76 8.55664C1124.9 8.05664 1124.97 7.46289 1124.97 6.77539V6.76367C1124.97 6.07617 1124.9 5.48438 1124.76 4.98828C1124.62 4.49219 1124.41 4.11133 1124.14 3.8457C1123.88 3.57617 1123.55 3.44141 1123.17 3.44141C1122.8 3.44141 1122.48 3.57617 1122.21 3.8457C1121.94 4.11133 1121.74 4.49219 1121.59 4.98828C1121.45 5.48438 1121.38 6.07617 1121.38 6.76367V6.77539C1121.38 7.46289 1121.45 8.05664 1121.59 8.55664C1121.74 9.05273 1121.94 9.43555 1122.21 9.70508C1122.48 9.97461 1122.8 10.1094 1123.17 10.1094ZM1130.98 11.2051C1130.33 11.2051 1129.77 11.0254 1129.3 10.666C1128.84 10.3066 1128.48 9.79688 1128.23 9.13672C1127.98 8.47266 1127.86 7.68555 1127.86 6.77539V6.76367C1127.86 5.85352 1127.98 5.06836 1128.23 4.4082C1128.48 3.74805 1128.84 3.23828 1129.3 2.87891C1129.77 2.51953 1130.33 2.33984 1130.98 2.33984C1131.63 2.33984 1132.19 2.51953 1132.65 2.87891C1133.12 3.23828 1133.48 3.74805 1133.73 4.4082C1133.98 5.06836 1134.11 5.85352 1134.11 6.76367V6.77539C1134.11 7.68555 1133.98 8.47266 1133.73 9.13672C1133.48 9.79688 1133.12 10.3066 1132.65 10.666C1132.19 11.0254 1131.63 11.2051 1130.98 11.2051ZM1130.98 10.1094C1131.36 10.1094 1131.68 9.97461 1131.95 9.70508C1132.21 9.43555 1132.42 9.05273 1132.56 8.55664C1132.71 8.05664 1132.78 7.46289 1132.78 6.77539V6.76367C1132.78 6.07617 1132.71 5.48438 1132.56 4.98828C1132.42 4.49219 1132.21 4.11133 1131.95 3.8457C1131.68 3.57617 1131.36 3.44141 1130.98 3.44141C1130.6 3.44141 1130.28 3.57617 1130.01 3.8457C1129.75 4.11133 1129.54 4.49219 1129.4 4.98828C1129.26 5.48438 1129.19 6.07617 1129.19 6.76367V6.77539C1129.19 7.46289 1129.26 8.05664 1129.4 8.55664C1129.54 9.05273 1129.75 9.43555 1130.01 9.70508C1130.28 9.97461 1130.6 10.1094 1130.98 10.1094ZM1137.49 7.0625C1137.11 7.0625 1136.78 6.96875 1136.51 6.78125C1136.24 6.58984 1136.03 6.32227 1135.88 5.97852C1135.73 5.63086 1135.66 5.2207 1135.66 4.74805V4.74219C1135.66 4.26172 1135.73 3.84961 1135.88 3.50586C1136.03 3.16211 1136.24 2.89648 1136.51 2.70898C1136.78 2.52148 1137.11 2.42773 1137.49 2.42773C1137.87 2.42773 1138.19 2.52148 1138.47 2.70898C1138.74 2.89648 1138.96 3.16211 1139.1 3.50586C1139.25 3.84961 1139.32 4.26172 1139.32 4.74219V4.74805C1139.32 5.2207 1139.25 5.63086 1139.1 5.97852C1138.96 6.32227 1138.74 6.58984 1138.47 6.78125C1138.19 6.96875 1137.87 7.0625 1137.49 7.0625ZM1137.49 6.27734C1137.77 6.27734 1137.98 6.14258 1138.13 5.87305C1138.29 5.60352 1138.37 5.22852 1138.37 4.74805V4.74219C1138.37 4.25781 1138.29 3.88281 1138.13 3.61719C1137.98 3.34766 1137.77 3.21289 1137.49 3.21289C1137.21 3.21289 1137 3.34766 1136.85 3.61719C1136.7 3.88281 1136.62 4.25781 1136.62 4.74219V4.74805C1136.62 5.22852 1136.7 5.60352 1136.85 5.87305C1137 6.14258 1137.21 6.27734 1137.49 6.27734ZM1138.37 11H1137.27L1143 2.54492H1144.1L1138.37 11ZM1143.87 11.1172C1143.49 11.1172 1143.16 11.0234 1142.89 10.8359C1142.62 10.6445 1142.41 10.377 1142.26 10.0332C1142.11 9.68555 1142.04 9.27344 1142.04 8.79688V8.79102C1142.04 8.31445 1142.11 7.9043 1142.26 7.56055C1142.41 7.2168 1142.62 6.95117 1142.89 6.76367C1143.16 6.57617 1143.49 6.48242 1143.87 6.48242C1144.25 6.48242 1144.57 6.57617 1144.85 6.76367C1145.12 6.95117 1145.33 7.2168 1145.47 7.56055C1145.62 7.9043 1145.7 8.31445 1145.7 8.79102V8.79688C1145.7 9.27344 1145.62 9.68555 1145.47 10.0332C1145.33 10.377 1145.12 10.6445 1144.85 10.8359C1144.57 11.0234 1144.25 11.1172 1143.87 11.1172ZM1143.87 10.332C1144.15 10.332 1144.36 10.1973 1144.51 9.92773C1144.67 9.6582 1144.74 9.28125 1144.74 8.79688V8.79102C1144.74 8.31055 1144.67 7.9375 1144.51 7.67188C1144.36 7.40234 1144.15 7.26758 1143.87 7.26758C1143.59 7.26758 1143.38 7.40234 1143.22 7.67188C1143.07 7.9375 1143 8.31055 1143 8.79102V8.79688C1143 9.28125 1143.07 9.6582 1143.22 9.92773C1143.38 10.1973 1143.59 10.332 1143.87 10.332Z" fill="white"/>
<g opacity="0.4">
<mask id="path-6-inside-1_40001314_26934" fill="white">
<path d="M1169.3 1C1171.12 1 1172.03 1.00026 1172.73 1.35449C1173.34 1.66605 1173.83 2.16304 1174.15 2.77441C1174.5 3.46963 1174.5 4.38002 1174.5 6.2002V7.7998C1174.5 9.61998 1174.5 10.5304 1174.15 11.2256L1174.02 11.4492C1173.71 11.9583 1173.26 12.3728 1172.73 12.6455L1172.59 12.708C1171.91 13 1171.01 13 1169.3 13H1155.7L1154.5 12.9941C1153.44 12.9775 1152.8 12.9112 1152.27 12.6455C1151.74 12.3728 1151.29 11.9583 1150.98 11.4492L1150.85 11.2256C1150.5 10.5304 1150.5 9.61998 1150.5 7.7998V6.2002C1150.5 4.49351 1150.5 3.58675 1150.79 2.90723L1150.85 2.77441C1151.13 2.23938 1151.54 1.79172 1152.05 1.47949L1152.27 1.35449C1152.8 1.08878 1153.44 1.02245 1154.5 1.00586L1155.7 1H1169.3ZM1155.7 2C1154.77 2 1154.14 2.00084 1153.65 2.04102C1153.17 2.08024 1152.91 2.15184 1152.73 2.24512C1152.31 2.46083 1151.96 2.80515 1151.75 3.22852C1151.65 3.41161 1151.58 3.66665 1151.54 4.14648C1151.5 4.63826 1151.5 5.27361 1151.5 6.2002V7.7998C1151.5 8.72639 1151.5 9.36174 1151.54 9.85352C1151.58 10.3334 1151.65 10.5884 1151.75 10.7715C1151.96 11.1948 1152.31 11.5392 1152.73 11.7549C1152.91 11.8482 1153.17 11.9198 1153.65 11.959C1154.14 11.9992 1154.77 12 1155.7 12H1169.3C1170.23 12 1170.86 11.9992 1171.35 11.959C1171.83 11.9198 1172.09 11.8482 1172.27 11.7549C1172.69 11.5392 1173.04 11.1948 1173.25 10.7715C1173.35 10.5884 1173.42 10.3334 1173.46 9.85352C1173.5 9.36174 1173.5 8.72639 1173.5 7.7998V6.2002C1173.5 5.27361 1173.5 4.63826 1173.46 4.14648C1173.42 3.66665 1173.35 3.41161 1173.25 3.22852C1173.04 2.80515 1172.69 2.46083 1172.27 2.24512C1172.09 2.15184 1171.83 2.08024 1171.35 2.04102C1170.86 2.00084 1170.23 2 1169.3 2H1155.7ZM1175.5 5.06348C1176.36 5.28554 1177 6.06812 1177 7C1177 7.93188 1176.36 8.71446 1175.5 8.93652V5.06348Z"/>
</mask>
<path d="M1172.73 1.35449L1173.18 0.463517L1173.18 0.463486L1172.73 1.35449ZM1174.15 2.77441L1175.04 2.32042L1175.04 2.32036L1174.15 2.77441ZM1174.15 11.2256L1175.02 11.7135L1175.03 11.6967L1175.04 11.6796L1174.15 11.2256ZM1174.02 11.4492L1174.87 11.972L1174.88 11.9548L1174.89 11.9371L1174.02 11.4492ZM1172.73 12.6455L1173.15 13.5503L1173.17 13.5436L1173.18 13.5365L1172.73 12.6455ZM1172.59 12.708L1172.99 13.6268L1173 13.6201L1173.02 13.6128L1172.59 12.708ZM1155.7 13L1155.7 14H1155.7V13ZM1154.5 12.9941L1154.48 13.9941L1154.49 13.9941L1154.5 12.9941ZM1152.27 12.6455L1151.82 13.5365L1151.82 13.5365L1152.27 12.6455ZM1150.98 11.4492L1150.11 11.9371L1150.12 11.9548L1150.13 11.972L1150.98 11.4492ZM1150.85 11.2256L1149.96 11.6796L1149.97 11.6967L1149.98 11.7135L1150.85 11.2256ZM1150.79 2.90723L1149.89 2.48143L1149.88 2.4968L1149.87 2.5124L1150.79 2.90723ZM1150.85 2.77441L1149.96 2.32036L1149.96 2.33438L1149.95 2.34862L1150.85 2.77441ZM1152.05 1.47949L1151.56 0.606596L1151.55 0.616468L1151.53 0.627045L1152.05 1.47949ZM1152.27 1.35449L1151.82 0.463486L1151.8 0.472215L1151.79 0.481596L1152.27 1.35449ZM1154.5 1.00586L1154.49 0.00581247L1154.48 0.00598264L1154.5 1.00586ZM1155.7 1V-1.18017e-05L1155.7 1.18017e-05L1155.7 1ZM1153.65 2.04102L1153.57 1.04434L1153.57 1.04434L1153.65 2.04102ZM1152.73 2.24512L1152.27 1.35409L1152.27 1.35411L1152.73 2.24512ZM1151.75 3.22852L1150.85 2.77453L1150.85 2.77456L1151.75 3.22852ZM1151.54 4.14648L1150.54 4.065L1150.54 4.06505L1151.54 4.14648ZM1151.54 9.85352L1150.54 9.93495L1150.54 9.935L1151.54 9.85352ZM1151.75 10.7715L1150.85 11.2254L1150.85 11.2255L1151.75 10.7715ZM1152.73 11.7549L1152.27 12.6459L1152.27 12.6459L1152.73 11.7549ZM1153.65 11.959L1153.56 12.9557L1153.57 12.9557L1153.65 11.959ZM1171.35 11.959L1171.43 12.9557L1171.44 12.9557L1171.35 11.959ZM1172.27 11.7549L1172.73 12.6459L1172.73 12.6459L1172.27 11.7549ZM1173.25 10.7715L1174.15 11.2255L1174.15 11.2254L1173.25 10.7715ZM1173.46 9.85352L1174.46 9.935L1174.46 9.93495L1173.46 9.85352ZM1173.46 4.14648L1174.46 4.06505L1174.46 4.065L1173.46 4.14648ZM1173.25 3.22852L1174.15 2.77456L1174.15 2.77452L1173.25 3.22852ZM1172.27 2.24512L1172.73 1.35411L1172.73 1.35409L1172.27 2.24512ZM1171.35 2.04102L1171.43 1.04434L1171.43 1.04434L1171.35 2.04102ZM1175.5 5.06348L1175.75 4.09505L1174.5 3.77342V5.06348H1175.5ZM1175.5 8.93652H1174.5V10.2266L1175.75 9.90495L1175.5 8.93652ZM1169.3 1V2C1170.23 2 1170.86 2.00084 1171.35 2.04108C1171.83 2.08037 1172.09 2.15216 1172.27 2.2455L1172.73 1.35449L1173.18 0.463486C1172.67 0.202601 1172.12 0.0971444 1171.52 0.0477403C1170.92 -0.000711918 1170.19 0 1169.3 0V1ZM1172.73 1.35449L1172.27 2.24547C1172.69 2.46116 1173.04 2.80521 1173.25 3.22847L1174.15 2.77441L1175.04 2.32036C1174.63 1.52088 1173.98 0.870943 1173.18 0.463517L1172.73 1.35449ZM1174.15 2.77441L1173.25 3.2284C1173.35 3.4116 1173.42 3.66681 1173.46 4.14699C1173.5 4.6388 1173.5 5.27369 1173.5 6.2002H1174.5H1175.5C1175.5 5.30653 1175.5 4.57614 1175.45 3.98391C1175.4 3.38004 1175.3 2.83244 1175.04 2.32042L1174.15 2.77441ZM1174.5 6.2002H1173.5V7.7998H1174.5H1175.5V6.2002H1174.5ZM1174.5 7.7998H1173.5C1173.5 8.72631 1173.5 9.3612 1173.46 9.85301C1173.42 10.3332 1173.35 10.5884 1173.25 10.7716L1174.15 11.2256L1175.04 11.6796C1175.3 11.1676 1175.4 10.62 1175.45 10.0161C1175.5 9.42386 1175.5 8.69347 1175.5 7.7998H1174.5ZM1174.15 11.2256L1173.27 10.7377L1173.15 10.9613L1174.02 11.4492L1174.89 11.9371L1175.02 11.7135L1174.15 11.2256ZM1174.02 11.4492L1173.17 10.9264C1172.95 11.2786 1172.64 11.5656 1172.27 11.7545L1172.73 12.6455L1173.18 13.5365C1173.88 13.1801 1174.46 12.638 1174.87 11.972L1174.02 11.4492ZM1172.73 12.6455L1172.3 11.7407L1172.17 11.8032L1172.59 12.708L1173.02 13.6128L1173.15 13.5503L1172.73 12.6455ZM1172.59 12.708L1172.2 11.7893C1172.01 11.8712 1171.74 11.9328 1171.26 11.9659C1170.78 11.9994 1170.17 12 1169.3 12V13V14C1170.14 14 1170.83 14.0006 1171.4 13.9611C1171.97 13.9212 1172.5 13.8368 1172.99 13.6268L1172.59 12.708ZM1169.3 13V12H1155.7V13V14H1169.3V13ZM1155.7 13L1155.71 12L1154.5 11.9942L1154.5 12.9941L1154.49 13.9941L1155.7 14L1155.7 13ZM1154.5 12.9941L1154.51 11.9943C1153.44 11.9775 1153.02 11.9025 1152.73 11.7545L1152.27 12.6455L1151.82 13.5365C1152.57 13.9199 1153.44 13.9776 1154.48 13.994L1154.5 12.9941ZM1152.27 12.6455L1152.73 11.7545C1152.36 11.5656 1152.05 11.2786 1151.83 10.9264L1150.98 11.4492L1150.13 11.972C1150.54 12.638 1151.12 13.1801 1151.82 13.5365L1152.27 12.6455ZM1150.98 11.4492L1151.85 10.9613L1151.73 10.7377L1150.85 11.2256L1149.98 11.7135L1150.11 11.9371L1150.98 11.4492ZM1150.85 11.2256L1151.75 10.7716C1151.65 10.5884 1151.58 10.3332 1151.54 9.85301C1151.5 9.3612 1151.5 8.72631 1151.5 7.7998H1150.5H1149.5C1149.5 8.69347 1149.5 9.42386 1149.55 10.0161C1149.6 10.62 1149.7 11.1676 1149.96 11.6796L1150.85 11.2256ZM1150.5 7.7998H1151.5V6.2002H1150.5H1149.5V7.7998H1150.5ZM1150.5 6.2002H1151.5C1151.5 5.33325 1151.5 4.7202 1151.53 4.23788C1151.57 3.76136 1151.63 3.49278 1151.71 3.30205L1150.79 2.90723L1149.87 2.5124C1149.66 3.0012 1149.58 3.52576 1149.54 4.09917C1149.5 4.66678 1149.5 5.36045 1149.5 6.2002H1150.5ZM1150.79 2.90723L1151.7 3.33302L1151.76 3.20021L1150.85 2.77441L1149.95 2.34862L1149.89 2.48143L1150.79 2.90723ZM1150.85 2.77441L1151.75 3.22847C1151.93 2.8578 1152.22 2.54794 1152.57 2.33194L1152.05 1.47949L1151.53 0.627045C1150.86 1.03551 1150.32 1.62095 1149.96 2.32036L1150.85 2.77441ZM1152.05 1.47949L1152.54 2.35239L1152.76 2.22739L1152.27 1.35449L1151.79 0.481596L1151.56 0.606596L1152.05 1.47949ZM1152.27 1.35449L1152.73 2.2455C1153.02 2.0975 1153.44 2.02253 1154.51 2.00574L1154.5 1.00586L1154.48 0.00598264C1153.44 0.022375 1152.57 0.0800588 1151.82 0.463486L1152.27 1.35449ZM1154.5 1.00586L1154.5 2.00585L1155.71 1.99999L1155.7 1L1155.7 1.18017e-05L1154.49 0.00587118L1154.5 1.00586ZM1155.7 1V2H1169.3V1V0H1155.7V1ZM1155.7 2V1C1154.79 1 1154.11 1.00005 1153.57 1.04434L1153.65 2.04102L1153.73 3.03769C1154.17 3.00162 1154.76 3 1155.7 3V2ZM1153.65 2.04102L1153.57 1.04434C1153.02 1.08856 1152.62 1.17682 1152.27 1.35409L1152.73 2.24512L1153.18 3.13614C1153.2 3.12685 1153.31 3.07193 1153.73 3.03769L1153.65 2.04102ZM1152.73 2.24512L1152.27 1.35411C1151.66 1.6657 1151.17 2.163 1150.85 2.77453L1151.75 3.22852L1152.64 3.68251C1152.76 3.4473 1152.95 3.25597 1153.18 3.13612L1152.73 2.24512ZM1151.75 3.22852L1150.85 2.77456C1150.68 3.12251 1150.59 3.5241 1150.54 4.065L1151.54 4.14648L1152.54 4.22797C1152.57 3.8092 1152.63 3.7007 1152.64 3.68247L1151.75 3.22852ZM1151.54 4.14648L1150.54 4.06505C1150.5 4.60708 1150.5 5.29044 1150.5 6.2002H1151.5H1152.5C1152.5 5.25678 1152.5 4.66945 1152.54 4.22792L1151.54 4.14648ZM1151.5 6.2002H1150.5V7.7998H1151.5H1152.5V6.2002H1151.5ZM1151.5 7.7998H1150.5C1150.5 8.70956 1150.5 9.39292 1150.54 9.93495L1151.54 9.85352L1152.54 9.77208C1152.5 9.33055 1152.5 8.74322 1152.5 7.7998H1151.5ZM1151.54 9.85352L1150.54 9.935C1150.59 10.4759 1150.68 10.8775 1150.85 11.2254L1151.75 10.7715L1152.64 10.3175C1152.63 10.2993 1152.57 10.1908 1152.54 9.77203L1151.54 9.85352ZM1151.75 10.7715L1150.85 11.2255C1151.17 11.837 1151.66 12.3343 1152.27 12.6459L1152.73 11.7549L1153.18 10.8639C1152.95 10.744 1152.76 10.5527 1152.64 10.3175L1151.75 10.7715ZM1152.73 11.7549L1152.27 12.6459C1152.62 12.8232 1153.02 12.9114 1153.56 12.9557L1153.65 11.959L1153.73 10.9623C1153.31 10.9281 1153.2 10.8731 1153.18 10.8639L1152.73 11.7549ZM1153.65 11.959L1153.57 12.9557C1154.11 12.9999 1154.79 13 1155.7 13V12V11C1154.76 11 1154.17 10.9984 1153.73 10.9623L1153.65 11.959ZM1155.7 12V13H1169.3V12V11H1155.7V12ZM1169.3 12V13C1170.21 13 1170.89 12.9999 1171.43 12.9557L1171.35 11.959L1171.27 10.9623C1170.83 10.9984 1170.24 11 1169.3 11V12ZM1171.35 11.959L1171.44 12.9557C1171.98 12.9114 1172.38 12.8232 1172.73 12.6459L1172.27 11.7549L1171.82 10.8639C1171.8 10.8731 1171.69 10.9281 1171.27 10.9623L1171.35 11.959ZM1172.27 11.7549L1172.73 12.6459C1173.34 12.3343 1173.83 11.837 1174.15 11.2255L1173.25 10.7715L1172.36 10.3175C1172.24 10.5527 1172.05 10.744 1171.82 10.8639L1172.27 11.7549ZM1173.25 10.7715L1174.15 11.2254C1174.32 10.8775 1174.41 10.4759 1174.46 9.935L1173.46 9.85352L1172.46 9.77203C1172.43 10.1908 1172.37 10.2993 1172.36 10.3175L1173.25 10.7715ZM1173.46 9.85352L1174.46 9.93495C1174.5 9.39293 1174.5 8.70956 1174.5 7.7998H1173.5H1172.5C1172.5 8.74322 1172.5 9.33055 1172.46 9.77208L1173.46 9.85352ZM1173.5 7.7998H1174.5V6.2002H1173.5H1172.5V7.7998H1173.5ZM1173.5 6.2002H1174.5C1174.5 5.29044 1174.5 4.60708 1174.46 4.06505L1173.46 4.14648L1172.46 4.22792C1172.5 4.66945 1172.5 5.25678 1172.5 6.2002H1173.5ZM1173.46 4.14648L1174.46 4.065C1174.41 3.5241 1174.32 3.12251 1174.15 2.77456L1173.25 3.22852L1172.36 3.68247C1172.37 3.7007 1172.43 3.8092 1172.46 4.22797L1173.46 4.14648ZM1173.25 3.22852L1174.15 2.77452C1173.83 2.163 1173.34 1.6657 1172.73 1.35411L1172.27 2.24512L1171.82 3.13612C1172.05 3.25597 1172.24 3.4473 1172.36 3.68251L1173.25 3.22852ZM1172.27 2.24512L1172.73 1.35409C1172.38 1.17682 1171.98 1.08856 1171.43 1.04434L1171.35 2.04102L1171.27 3.03769C1171.69 3.07193 1171.8 3.12685 1171.82 3.13614L1172.27 2.24512ZM1171.35 2.04102L1171.43 1.04434C1170.89 1.00005 1170.21 1 1169.3 1V2V3C1170.24 3 1170.83 3.00162 1171.27 3.03769L1171.35 2.04102ZM1169.3 2V1H1155.7V2V3H1169.3V2ZM1175.5 5.06348L1175.25 6.0319C1175.68 6.14307 1176 6.53578 1176 7H1177H1178C1178 5.60046 1177.04 4.428 1175.75 4.09505L1175.5 5.06348ZM1177 7H1176C1176 7.46422 1175.68 7.85693 1175.25 7.9681L1175.5 8.93652L1175.75 9.90495C1177.04 9.572 1178 8.39954 1178 7H1177ZM1175.5 8.93652H1176.5V5.06348H1175.5H1174.5V8.93652H1175.5Z" fill="white" mask="url(#path-6-inside-1_40001314_26934)"/>
</g>
<rect x="1152.5" y="3" width="20" height="8" rx="1.5" fill="white"/>
<path d="M1153.44 406.151C1157.18 386.307 1159.13 365.831 1159.13 344.893C1159.13 164.907 1014.76 19 836.659 19C727.692 19 631.345 73.6233 572.977 157.256C516.936 109.71 444.657 81.0748 365.763 81.0748C189.377 81.0748 46.0689 224.193 43.3351 401.791H43.295C-154.587 401.791 -315 563.909 -315 763.896C-315 963.882 -154.587 1126 43.295 1126H1097.71C1295.59 1126 1456 963.882 1456 763.896C1456 583.067 1324.85 433.208 1153.44 406.151Z" fill="#1F1F25"/>
</g>
<defs>
<clipPath id="clip0_40001314_26934">
<rect width="1194" height="829" fill="white"/>
</clipPath>
</defs>
</svg>
