<svg width="1395" height="1395" viewBox="0 0 1395 1395" fill="none" xmlns="http://www.w3.org/2000/svg">
<path d="M348.75 0C156.141 0 0 156.141 0 348.75C0 541.362 156.141 697.5 348.75 697.5C156.141 697.5 0 853.638 0 1046.25C0 1238.86 156.141 1395 348.75 1395C541.362 1395 697.5 1238.86 697.5 1046.25C697.5 1238.86 853.638 1395 1046.25 1395C1238.86 1395 1395 1238.86 1395 1046.25C1395 853.638 1238.86 697.5 1046.25 697.5C1238.86 697.5 1395 541.362 1395 348.75C1395 156.141 1238.86 0 1046.25 0C853.638 0 697.5 156.141 697.5 348.75C697.5 156.141 541.362 0 348.75 0Z" fill="#1F1F25"/>
</svg>
