<svg preserveAspectRatio="none" width="100%" height="100%" overflow="visible" style="display: block;" viewBox="0 0 2579 2579" fill="none" xmlns="http://www.w3.org/2000/svg">
<path id="Summertime Sadness" d="M644.75 0C288.665 0 0 288.665 0 644.75C0 1000.84 288.665 1289.5 644.75 1289.5C288.665 1289.5 0 1578.16 0 1934.25C0 2290.34 288.665 2579 644.75 2579C1000.84 2579 1289.5 2290.34 1289.5 1934.25C1289.5 2290.34 1578.16 2579 1934.25 2579C2290.34 2579 2579 2290.34 2579 1934.25C2579 1578.16 2290.34 1289.5 1934.25 1289.5C2290.34 1289.5 2579 1000.84 2579 644.75C2579 288.665 2290.34 0 1934.25 0C1578.16 0 1289.5 288.665 1289.5 644.75C1289.5 288.665 1000.84 0 644.75 0Z" fill="var(--fill-0, #1F1F25)"/>
</svg>
