<svg width="143" height="113" viewBox="0 0 143 113" fill="none" xmlns="http://www.w3.org/2000/svg">
<path d="M0 25.9212C1.72755 25.9212 3.12808 27.5533 3.12808 29.5663V83.4337C3.12808 99.7625 14.4874 113 28.5 113C42.5125 113 53.8721 99.7625 53.8721 83.4337V29.5663C53.8721 27.5533 55.2722 25.9212 57.0002 25.9212C58.7276 25.9212 60.1284 27.5533 60.1284 29.5663V83.4337C60.1284 99.7625 71.4876 113 85.5 113C99.5124 113 110.872 99.7625 110.872 83.4337V29.5663C110.872 27.5533 112.272 25.9212 114 25.9212C115.728 25.9212 117.128 27.5533 117.128 29.5663V83.4337C117.128 99.7625 128.487 113 142.5 113V87.0788C140.772 87.0788 139.372 85.4467 139.372 83.4337V29.5663C139.372 13.2373 128.013 0 114 0C99.9874 0 88.6281 13.2373 88.6281 29.5663V83.4337C88.6281 85.4467 87.2274 87.0788 85.5 87.0788C83.7726 87.0788 82.3719 85.4467 82.3719 83.4337V29.5663C82.3719 13.2373 71.0126 0 57.0002 0C42.9875 0 31.6281 13.2373 31.6281 29.5663V83.4337C31.6281 85.4467 30.2276 87.0788 28.5 87.0788C26.7724 87.0788 25.372 85.4467 25.372 83.4337V29.5663C25.372 13.2373 14.0126 0 0 0V25.9212Z" fill="#2F2F37"/>
</svg>
