<svg width="300" height="300" viewBox="0 0 300 300" fill="none" xmlns="http://www.w3.org/2000/svg">
<g clip-path="url(#clip0_40001167_30560)">
<path d="M51.8898 84.6291C24.4022 97.9779 12.9405 131.082 26.2894 158.57C39.6385 186.058 72.7428 197.519 100.23 184.17C72.7428 197.519 61.2808 230.623 74.6299 258.111C87.979 285.599 121.083 297.061 148.571 283.712C176.059 270.363 187.52 237.259 174.171 209.771C187.52 237.259 220.624 248.72 248.112 235.371C275.6 222.022 287.062 188.918 273.713 161.43C260.363 133.942 227.26 122.481 199.772 135.83C227.26 122.481 238.721 89.3769 225.372 61.889C212.023 34.4014 178.919 22.9395 151.431 36.2885C123.943 49.6376 112.482 82.7419 125.831 110.229C112.482 82.7419 79.3778 71.28 51.8898 84.6291Z" fill="#FFAF25"/>
</g>
<defs>
<clipPath id="clip0_40001167_30560">
<rect width="300" height="300" fill="white"/>
</clipPath>
</defs>
</svg>
