<svg width="300" height="300" viewBox="0 0 300 300" fill="none" xmlns="http://www.w3.org/2000/svg">
<path d="M150 4L128.308 54.6326L86.8699 18.4585L89.2191 73.5212L36.2435 58.9705L62.1691 107.557L8.14801 117.512L52.515 150L8.14801 182.488L62.1691 192.443L36.2435 241.03L89.2191 226.479L86.8699 281.541L128.308 245.367L150 296L171.692 245.367L213.13 281.541L210.781 226.479L263.756 241.03L237.831 192.443L291.852 182.488L247.485 150L291.852 117.512L237.831 107.557L263.756 58.9705L210.781 73.5212L213.13 18.4585L171.692 54.6326L150 4Z" fill="#E768B0"/>
</svg>
