<svg width="300" height="300" viewBox="0 0 300 300" fill="none" xmlns="http://www.w3.org/2000/svg">
<path d="M150.5 20L131.193 65.0838L94.3121 32.874L96.4029 81.9025L49.2528 68.9463L72.3274 112.209L24.2468 121.072L63.735 150L24.2468 178.928L72.3274 187.791L49.2528 231.054L96.4029 218.098L94.3121 267.126L131.193 234.916L150.5 280L169.807 234.916L206.688 267.126L204.597 218.098L251.747 231.054L228.673 187.791L276.753 178.928L237.265 150L276.753 121.072L228.673 112.209L251.747 68.9463L204.597 81.9025L206.688 32.874L169.807 65.0838L150.5 20Z" fill="#6A7EFF"/>
</svg>
