<svg preserveAspectRatio="none" width="100%" height="100%" overflow="visible" style="display: block;" viewBox="0 0 20.3568 9.66994" fill="none" xmlns="http://www.w3.org/2000/svg">
<path id="Vector 12" d="M0.00120449 6.44331C0.0472038 6.26395 0.247002 6.16221 0.427714 6.13362C0.484678 6.1237 0.586978 6.24764 0.631437 6.24588C0.71951 6.24103 0.696905 6.15055 0.790967 6.15771C0.822509 6.16085 0.990298 6.35022 1.01898 6.34977C1.1761 6.34484 1.19539 6.23188 1.30896 6.19197C1.8604 6.00513 2.27377 5.74696 2.71664 5.5045C2.86202 5.42492 3.15747 5.46983 3.21882 5.28511C3.22595 5.26327 3.07283 5.10335 3.06374 5.08713C2.92496 4.83853 3.2016 5.18933 3.26822 5.21033C3.53293 5.29186 3.67033 5.20262 3.72498 5.04617C3.74827 4.97877 3.42046 4.68016 3.62561 4.83023C3.63954 4.84031 3.77742 5.03099 3.80634 5.03954C3.87224 5.05805 3.89813 4.9823 3.93256 4.9781C3.99896 4.97149 4.00458 4.96384 4.04735 4.93235C4.10786 4.8903 4.24704 4.9277 4.2731 4.83841C4.27832 4.81873 4.11038 4.64494 4.10522 4.59651C4.10009 4.54813 4.16783 4.51998 4.22192 4.54941C4.27598 4.57888 4.38608 4.73306 4.41642 4.76432C4.67205 5.02852 4.41786 4.58307 4.41838 4.56667C4.43312 4.28243 4.74046 4.40878 4.87873 4.30104C4.98641 4.21639 5.03872 4.05656 5.14983 3.98893C5.28406 3.90817 5.46001 3.93943 5.56676 3.83236C5.57813 3.82134 5.39484 3.60493 5.40848 3.59095C5.54999 3.44516 5.73507 3.34821 6.00652 3.38805C6.03407 3.39212 6.1585 3.60872 6.19465 3.62488C6.41313 3.71902 6.85429 4.00697 6.28661 3.08346C6.37846 3.07013 6.48665 3.0473 6.67326 3.18282C6.79333 3.27007 6.91037 3.51854 6.89231 3.39022C6.88819 3.3617 6.73851 3.17711 6.74269 3.14898C6.76053 3.03063 6.87905 3.04209 6.87765 2.89415C6.87706 2.86359 6.7525 2.69149 6.73471 2.65728C6.59206 2.37932 6.93869 2.76233 6.97178 2.78475C7.22016 2.9507 7.22317 2.81639 7.31255 2.76379C7.3333 2.75173 7.14947 2.53171 7.16377 2.51157C7.24074 2.40984 7.35738 2.36074 7.52425 2.40132C7.56184 2.41086 7.6773 2.62603 7.70216 2.64094C7.80996 2.70434 7.56501 2.31595 7.66399 2.36914C7.68452 2.37987 7.7947 2.55646 7.80906 2.57435C8.03421 2.85534 7.77545 2.41707 7.77615 2.40313C7.77895 2.21719 8.12384 2.6252 8.16468 2.50833C8.16929 2.4939 8.00229 2.28866 8.02417 2.26148C8.17083 2.07799 8.40588 2.0115 8.70506 2.06963C8.75141 2.07835 8.83762 2.258 8.85262 2.27735C9.08776 2.57903 8.83137 2.13718 8.83052 2.1149C8.82998 1.95095 9.12699 2.26922 8.85118 1.72426C8.97078 1.71847 9.06758 1.67585 9.15895 1.62312C9.17863 1.60087 9.26604 1.57333 9.28875 1.55417C9.54507 1.45218 9.7799 1.28285 10.1753 1.54907C10.182 1.55323 10.2654 1.7905 10.2783 1.7978C10.4347 1.88851 10.2729 1.53234 10.1756 1.05811C10.1518 0.938795 10.4104 1.45783 10.4296 1.49581C10.5016 1.63522 10.6146 1.99223 10.6309 2.01832C10.7606 2.22288 10.3217 1.0666 10.3894 1.04127C10.3922 1.04244 10.4619 1.25932 10.4753 1.27852C10.517 1.33888 10.5031 1.24767 10.5468 1.31513C10.6478 1.47133 10.8643 2.03202 10.8038 1.68222C10.7959 1.63685 10.5484 0.980285 10.6198 0.990128C10.6484 0.994587 10.7507 0.946129 10.7952 0.978972C10.8397 1.01171 10.8926 1.23254 10.898 1.24106C11.0733 1.49698 11.0835 1.62448 11.2636 2.0307C11.442 2.43579 11.0962 1.44271 11.075 1.32602C11.054 1.20959 11.1897 1.42438 11.2303 1.50129C11.2711 1.57814 11.2988 1.72028 11.3263 1.76233C11.5062 2.03704 11.1998 1.25452 11.1756 1.08682C11.12 0.689376 11.4104 1.41522 11.4912 1.46987C11.5133 1.48454 11.447 1.31922 11.4563 1.29888C11.4944 1.22048 11.5998 1.44253 11.599 1.20948C11.5986 1.17159 11.5165 0.706556 11.6498 1.02583C11.6688 1.07193 11.711 1.26215 11.7476 1.29665C11.8024 1.34845 11.8788 1.37022 11.8994 1.29663C11.9148 1.24215 11.7927 0.944128 11.8568 1.02913C11.8853 1.06715 11.9074 1.25574 11.9562 1.31224C12.0049 1.36876 12.0788 1.33926 12.1061 1.32494C12.1333 1.31048 12.0523 1.08093 12.0502 1.06452C12.0393 0.97022 12.0651 0.84159 12.0703 0.840477C12.3194 0.741489 12.6526 1.07944 12.8667 0.890103C12.8837 0.87556 12.8126 0.62915 12.8146 0.62436C12.8575 0.504208 12.9589 1.17977 13.0557 1.39135C12.9324 0.886378 12.9807 0.971771 13.0148 0.905594C13.0312 0.873292 12.9746 0.679752 12.9721 0.659193C12.9389 0.3533 13.0491 0.733277 13.0725 0.810827C13.159 1.09596 13.1072 0.747877 13.165 0.938533C13.222 1.12784 13.2507 1.42068 13.2935 1.40749C13.2664 1.22297 13.1296 0.755149 13.1471 0.670687C13.2153 0.350438 13.5383 0.674099 13.6484 0.693684C13.7597 0.712705 13.7874 0.67281 13.86 0.727892C13.9909 0.827842 13.887 0.480014 13.9277 0.30517C13.9694 0.130346 14.0863 1.01097 14.1286 1.19729C14.1703 1.38364 14.1473 1.18839 14.1766 1.28975C14.2058 1.39112 14.2028 1.52324 14.2363 1.55746C14.2694 1.59167 14.2875 1.24471 14.2654 1.04619C14.218 0.625647 14.1116 0.193431 14.2122 0.335062C14.218 0.343501 14.2411 0.576186 14.2613 0.596826C14.4203 0.753279 14.5563 0.74414 14.7075 0.883437C14.7282 0.90297 14.7484 1.16232 14.7608 1.17661C14.889 1.32657 14.7911 0.898161 14.7867 0.408045C14.8588 1.05139 14.9434 1.43945 15.0224 1.43319C15.0703 1.42966 15.0267 1.15027 15.0337 0.948642C15.0358 0.887849 15.0938 1.0763 15.0839 0.94359C15.0526 0.5097 14.961 0.0306621 15.071 0.212691C15.0758 0.221389 15.0915 0.459039 15.1062 0.471819C15.2008 0.55576 15.1595 0.102983 15.2465 0.0381418C15.3151 -0.0127795 15.4723 0.249889 15.5575 0.287291C15.624 1.01187 15.6822 0.839162 15.6697 0.336664C15.7244 0.352456 15.7793 0.319388 15.8358 0.384439C15.8553 0.406604 15.8604 0.617537 15.8645 0.640051C15.926 0.993376 15.9105 0.505047 15.9206 0.48508C16.031 0.290193 16.1549 0.652665 16.251 0.284843C16.2543 0.271611 16.2322 -0.233431 16.2852 0.133215C16.2886 0.158508 16.2628 0.390288 16.3191 0.40494C16.3759 0.419598 16.4926 0.684991 16.5585 0.447778C16.5743 0.39065 16.6056 -0.0213259 16.6563 0.297588C16.663 0.3409 16.663 0.485968 16.6732 0.566307C16.7058 0.82231 16.7006 0.311285 16.7429 0.744109C16.7854 1.17692 16.8484 1.50002 16.9144 1.19879C16.9165 1.19003 16.9242 0.784777 16.9485 0.790619C16.9871 0.800285 17.0428 0.883558 17.0823 0.880302C17.1013 0.878594 17.0852 0.627378 17.0885 0.622728C17.2163 0.479937 17.3118 0.70346 17.4484 0.801196C17.4731 0.819596 17.5494 0.477224 17.5955 0.748915C17.645 1.04637 17.5745 2.27971 17.6942 1.98764C17.7368 1.88147 17.823 0.578404 17.8903 0.954792C17.892 0.992417 17.896 1.04688 17.8985 1.12085C18.0862 0.933323 18.1994 1.36066 18.3977 1.09617C18.4061 1.0844 18.4868 0.654065 18.5053 0.662536C18.5322 0.675885 18.519 0.880294 18.5366 0.896377C18.6074 0.968589 18.7099 0.80804 18.7848 0.849388C18.8131 0.864681 18.7638 1.07031 18.7955 1.08843C18.8269 1.10641 18.9064 0.838661 18.9265 0.980474C18.9414 1.08857 18.8465 1.65008 18.8678 1.72362C19.0038 1.17962 19.0309 1.1979 19.1258 1.07024C19.1443 1.0455 19.1837 0.853959 19.1953 0.832587C19.2443 0.741697 19.2214 0.903274 19.2725 0.804086C19.285 0.780315 19.3387 0.596504 19.3523 0.566795C19.4716 0.307684 19.41 0.739773 19.3952 0.813905C19.3458 1.09724 19.4404 0.866327 19.4337 0.982583C19.4251 1.09826 19.3383 1.21661 19.3473 1.29175C19.3641 1.44661 19.4515 1.44692 19.5109 1.48096C19.5347 1.49333 19.6158 1.25023 19.6215 1.2465C19.7024 1.20987 19.6443 1.48144 19.8837 1.03085C19.3774 2.247 19.9695 0.929147 19.9392 1.20626C19.9366 1.22862 19.675 1.79364 19.6151 1.86641C19.556 1.93944 19.6056 1.74785 19.5179 1.86457C19.496 1.89131 19.2227 2.4083 19.2054 2.43935C19.0618 2.67804 19.4218 1.82026 19.4389 1.77194C19.6268 1.25249 19.335 1.81232 19.3095 1.84906C19.1825 2.01272 19.1839 1.87392 19.0926 1.9926C19.0336 2.0694 18.8388 2.64697 18.8279 2.62375C18.7964 2.54871 18.995 1.721 18.7385 2.41549C18.6847 2.56401 18.5337 3.21275 18.6204 2.69458C18.6275 2.66227 18.701 2.18714 18.6126 2.47804C18.6018 2.51478 18.5598 2.70432 18.5532 2.71957C18.5103 2.81815 18.5283 2.66388 18.4898 2.7317C18.4513 2.79957 18.4042 2.90309 18.3883 2.83349C18.3791 2.79192 18.4146 2.4312 18.4189 2.34221C18.4315 2.08588 18.3396 2.49503 18.3677 2.18698C18.393 1.87698 18.4999 1.41592 18.4734 1.2096C18.4019 1.70889 18.3268 2.22112 18.2554 2.7233C18.1671 2.69323 18.0854 2.52003 17.9761 2.53237C17.9625 2.53441 17.9513 2.80566 17.9365 2.81485C17.8749 2.85256 17.8383 2.65565 17.7681 2.72767C17.7647 2.7313 17.7611 2.73585 17.7574 2.74121L17.8386 2.74532C17.7879 2.82605 17.7303 3.08062 17.6805 3.14738C17.6596 2.56969 17.5759 2.7643 17.5194 2.71111C17.4994 2.69271 17.5019 2.53859 17.4877 2.48819C17.4336 2.30188 17.4568 2.81206 17.4417 2.89224C17.3781 3.2346 17.3741 2.08016 17.2951 2.10897C17.2906 2.1101 17.2448 2.72575 17.2389 2.76414C17.1987 3.01438 17.23 2.55002 17.2025 2.50482C17.1522 2.42227 17.115 2.27581 17.06 2.4571C17.0437 2.51079 17.0122 2.89505 16.9727 2.59926C16.9675 2.56053 16.9649 2.35714 16.9611 2.34532C16.8921 2.14845 16.9078 2.78741 16.8796 3.00478C16.8518 3.2221 16.7833 2.78305 16.7669 2.65643C16.7252 2.32881 16.7845 2.51512 16.7849 2.48282C16.7906 2.09826 16.7517 2.16576 16.7187 2.13455C16.6903 1.50853 16.6457 1.54794 16.6846 2.10473C16.6888 2.16554 16.7112 2.10618 16.7187 2.13455C16.7138 2.75 16.6733 2.83041 16.594 2.25889C16.5566 1.99108 16.5659 1.67624 16.4933 1.79479C16.4605 1.84836 16.4961 2.27857 16.472 2.39763C16.4183 2.6692 16.3061 2.27267 16.2377 2.34077C16.2134 2.36546 16.2542 2.59945 16.2383 2.62444C16.1968 2.69148 16.1434 2.51761 16.1034 2.61163C16.0998 2.62044 16.1285 2.86622 16.1144 2.87044C16.0087 2.90724 15.9019 2.7573 15.7873 2.76358C15.7321 2.76667 15.6481 2.91207 15.5889 2.89083C15.4874 2.85518 15.3235 2.5122 15.2486 2.60949C15.2001 2.67184 15.2431 2.91571 15.2412 3.08579C15.2387 3.41527 15.084 2.84567 15.0603 2.7575C15.0595 2.75457 15.0993 2.69044 15.0571 2.56801C15.0071 2.30785 15.0606 2.7563 15.0603 2.7575C15.0456 2.70038 14.9429 2.65786 14.9307 2.70741C14.9241 2.73444 14.9628 2.96559 14.9588 2.97529C14.8634 3.20067 14.7517 3.27803 14.609 3.19047C14.606 3.18616 14.5668 2.92702 14.5603 2.92013C14.4675 2.81734 14.4734 3.1416 14.4473 3.33939C14.4211 3.53714 14.3649 3.48258 14.2479 3.04664C14.2129 3.11063 14.1113 2.9274 14.0503 2.81625C13.9893 2.70512 14.0815 3.2069 14.0803 3.21742C14.0411 3.55402 13.9268 3.27926 13.8113 3.25713C13.7564 3.24568 13.6727 3.33958 13.6313 3.40608C13.5987 3.45942 13.5466 3.34868 13.5244 3.4322C13.5215 3.44337 13.5778 3.66348 13.5781 3.67237C13.5965 3.94705 13.4918 3.40135 13.4603 3.30683C13.3459 2.9632 13.28 2.78131 13.2619 2.96006C13.2572 3.00112 13.4069 3.78745 13.3956 3.83834C13.3799 3.90324 13.3229 3.62216 13.308 3.69732C13.3067 3.70349 13.3496 3.87499 13.3286 3.87218C13.2315 3.86137 13.108 3.78691 13.0196 3.82881C13.0074 3.83386 13.0958 4.10052 13.0797 4.11222C13.0037 4.16694 12.9096 4.18217 12.7913 4.0794C12.7619 4.05327 12.7207 3.86084 12.7003 3.80605C12.5754 3.47485 12.6779 3.97876 12.6747 3.98987C12.5942 4.26988 12.3437 3.86131 12.2556 4.12114C12.2505 4.13636 12.3571 4.67925 12.1831 4.24041C12.1717 4.21114 11.9926 3.76247 12.0706 4.08387C12.0756 4.10394 12.1708 4.33385 12.1326 4.31988C12.094 4.30608 12.0987 4.4793 11.9692 4.2353C11.9287 4.15835 11.74 3.71456 11.8251 4.09084C11.8303 4.11734 12.057 4.95632 11.8372 4.39967C11.8011 4.30804 11.5936 3.71002 11.6542 4.0329C11.6662 4.0954 11.73 4.22254 11.736 4.314C11.7459 4.45473 11.64 4.31277 11.6932 4.59361C11.7024 4.64337 11.8198 5.05793 11.6808 4.76178C11.6589 4.71543 11.5929 4.51453 11.5709 4.49752C11.4652 4.41588 11.4469 4.57407 11.3276 4.46359C11.2854 4.42492 11.1735 4.1019 11.1148 4.02655C11.0563 3.9512 10.972 3.88987 11.0033 4.04545C11.035 4.20097 11.2656 4.69507 11.2439 4.75073C11.1567 4.97828 10.9007 4.78849 10.7171 4.7921L11.0422 4.61939C11.0303 4.62189 11.0188 4.625 11.0078 4.62884C10.9787 4.6389 11.1034 4.79054 11.0682 4.81711C10.9376 4.9164 10.8077 5.21584 10.4643 4.94482C10.1903 4.727 10.1726 4.43809 10.0269 4.37148C9.95679 4.34014 10.263 4.89587 10.2657 4.91791C10.2948 5.14023 10.0861 4.94154 10.0586 5.06227C10.0531 5.08718 10.2085 5.29211 10.2023 5.3109C10.1827 5.37692 10.0738 5.31137 10.0437 5.35628C10.0305 5.37691 10.1418 5.53826 10.1164 5.53689C10.0569 5.5355 9.9757 5.49042 9.83452 5.36369C9.82158 5.35219 9.71187 5.13249 9.67595 5.14543C9.61807 5.16704 9.45542 5.05768 9.50244 5.25129C9.51681 5.30938 9.7653 5.6819 9.55725 5.44905C9.5138 5.40042 9.22377 4.94748 9.44077 5.36139C9.47631 5.43051 9.75761 5.99652 9.49704 5.68509C9.42839 5.60317 9.15831 5.25462 9.17659 5.32575C9.18002 5.33675 9.3259 5.52846 9.32224 5.55927C9.30704 5.66438 9.23116 5.68497 9.21405 5.78791C9.2098 5.81577 9.37386 6.00511 9.36314 6.03999C9.33472 6.13564 9.21645 6.14007 9.10831 6.12015C9.06817 6.11242 8.9671 5.93163 8.95264 5.91435C8.7172 5.63346 8.9814 6.04971 8.98876 6.07956C9.03041 6.26001 8.85566 6.09975 8.83937 6.18586C8.83412 6.2094 8.97911 6.39461 8.98822 6.4138C9.07569 6.60235 8.85605 6.24122 8.81038 6.21644C8.68161 6.14591 8.63345 6.20289 8.59802 6.26471C8.58521 6.28769 8.76421 6.49467 8.75099 6.51266C8.67716 6.62239 8.55388 6.67837 8.3671 6.62787C8.33161 6.61799 8.22076 6.43939 8.18885 6.40333C7.96576 6.15103 8.19395 6.55011 8.21067 6.59176C8.28697 6.78198 8.16113 6.64416 8.14483 6.69883C8.06832 6.96754 7.77898 7.02907 7.56965 7.09199C7.29518 7.17677 7.0082 7.14585 6.83801 7.34514C6.82698 7.35766 7.01227 7.56687 7.00506 7.58042C6.90624 7.74358 6.69839 7.77003 6.61246 7.94359C6.60476 7.95773 6.78809 8.14955 6.78148 8.17902C6.76914 8.24089 6.7132 8.26804 6.62255 8.23322C6.57861 8.21666 6.45887 8.02132 6.41748 8.00832C6.32095 7.97754 6.26298 8.00103 6.24537 8.07084C6.23849 8.10079 6.43979 8.28517 6.41754 8.30776C6.27205 8.46393 6.14564 8.63274 5.75401 8.50983C5.72736 8.50118 5.3554 8.09614 5.40145 8.196C5.50039 8.31217 5.61896 8.4469 5.72582 8.57008C5.55291 8.839 5.20453 8.89894 4.96705 9.08612C4.95704 9.09412 5.17465 9.28896 5.15653 9.30528C5.05275 9.39927 5.01946 9.54541 4.71565 9.44152C4.686 9.43133 4.32479 9.06771 4.35163 9.15117C4.35723 9.16564 4.36208 9.25884 4.43155 9.34716C4.44221 9.36028 4.62219 9.51818 4.61392 9.53687C4.56536 9.63991 4.44716 9.68683 4.27124 9.66448C4.24256 9.66052 4.06415 9.47787 4.04157 9.47415C3.87979 9.45252 3.97138 9.64324 3.74659 9.5531C3.5956 9.49213 3.26438 9.2015 2.90508 8.95699C2.85407 8.92286 2.82415 8.94542 2.62346 8.7928C2.11783 8.41012 1.5832 7.96651 1.04315 7.56002C0.926526 7.47268 1.00414 7.62926 0.752621 7.37906C0.735691 7.36234 0.6791 7.24469 0.594888 7.15882C0.53662 7.09944 0.322797 6.95647 0.253777 6.87339C0.185027 6.79015 0.369861 6.90306 0.293841 6.79961C0.217973 6.69366 -0.0188873 6.52229 0.00120449 6.44331ZM13.7724 2.3213C13.6872 2.08862 13.8618 2.96876 13.8569 2.75069C13.8565 2.7391 13.7766 2.3327 13.7724 2.3213ZM18.1543 1.84742C18.1488 1.44893 18.0593 2.02499 18.061 2.33227C18.0602 2.63902 18.1547 1.96812 18.1543 1.84742ZM18.6566 1.62675C18.6585 1.30984 18.4331 2.56217 18.5239 2.31724C18.529 2.3034 18.6562 1.64511 18.6566 1.62675ZM2.90514 8.76167C2.89555 8.75453 2.86964 8.76746 2.87777 8.77617C3.08803 8.969 3.13935 8.94342 2.90514 8.76167ZM19.1835 1.4337C19.2184 1.26411 19.1126 1.43968 19.0709 1.65069C19.0354 1.81974 19.1377 1.64376 19.1835 1.4337ZM11.6244 1.88713C11.6198 1.87455 11.5947 1.86985 11.6179 1.94178C11.6928 2.17341 11.7015 2.09862 11.6244 1.88713ZM19.9565 1.74895C19.87 1.65047 20.2546 0.668551 20.3417 0.844769C20.3563 0.876239 20.1375 1.11714 20.126 1.21749C20.1019 1.39871 20.4423 0.831793 20.3363 1.17551C20.3155 1.23766 19.9593 1.75604 19.9556 1.75015C19.9559 1.74975 19.9562 1.74935 19.9565 1.74895ZM13.5365 1.26946C13.5333 1.25798 13.5004 1.25323 13.502 1.26491C13.543 1.5473 13.6084 1.55721 13.5365 1.26946ZM10.1845 1.80902C10.1736 1.7861 10.0956 1.7917 10.102 1.81427C10.2398 2.26076 10.3943 2.25223 10.1845 1.80902ZM15.5606 0.306496C15.5691 0.0178702 15.6099 -0.0197005 15.6695 0.336314C15.6329 0.320364 15.5974 0.320763 15.5606 0.306496Z" fill="var(--stroke-0, #1F1F25)"/>
</svg>
