<svg preserveAspectRatio="none" width="100%" height="100%" overflow="visible" style="display: block;" viewBox="0 0 153.537 153.537" fill="none" xmlns="http://www.w3.org/2000/svg">
<path id="Summertime Sadness" d="M38.3841 0C17.1852 0 0 17.1852 0 38.3841C0 59.5834 17.1852 76.7683 38.3841 76.7683C17.1852 76.7683 0 93.9531 0 115.152C0 136.352 17.1852 153.537 38.3841 153.537C59.5834 153.537 76.7683 136.352 76.7683 115.152C76.7683 136.352 93.9531 153.537 115.152 153.537C136.352 153.537 153.537 136.352 153.537 115.152C153.537 93.9531 136.352 76.7683 115.152 76.7683C136.352 76.7683 153.537 59.5834 153.537 38.3841C153.537 17.1852 136.352 0 115.152 0C93.9531 0 76.7683 17.1852 76.7683 38.3841C76.7683 17.1852 59.5834 0 38.3841 0Z" fill="var(--fill-0, #3F50B8)"/>
</svg>
