<svg preserveAspectRatio="none" width="100%" height="100%" overflow="visible" style="display: block;" viewBox="0 0 31.1722 10.3367" fill="none" xmlns="http://www.w3.org/2000/svg">
<path id="Vector 16" d="M1.55488 3.82006C1.33614 3.67001 1.06817 3.61441 0.808337 3.66789C0.548601 3.72123 0.31829 3.87928 0.169641 4.10487C0.020992 4.33047 -0.0333676 4.60445 0.0200899 4.86416C0.0734562 5.12401 0.230264 5.34832 0.454449 5.49011C0.454449 5.49011 0.454449 5.49011 0.454449 5.49011C1.09412 5.86665 1.55325 6.05558 2.09997 6.30751C5.75589 7.90683 9.4912 9.25182 13.444 10.014C18.2749 11.2675 23.3515 8.68355 26.5381 5.46234L26.5781 5.42547C27.602 4.33066 28.634 3.24888 29.696 2.19704L29.7041 2.18907C29.7914 2.0977 29.8775 2.00577 29.9629 1.91297C30.354 1.48814 30.7228 1.0489 31.0858 0.614806C31.1484 0.539892 31.1788 0.442237 31.171 0.344015C31.1631 0.245753 31.1178 0.15497 31.044 0.0909487C30.9703 0.0269277 30.8741 -0.00528508 30.7757 0.000708252C30.6773 0.00674155 30.5849 0.0504884 30.5195 0.123014C30.5195 0.123014 30.5195 0.123014 30.5195 0.123014C30.1406 0.543749 29.7654 0.958349 29.3749 1.35225C29.2896 1.43834 29.2039 1.52334 29.1172 1.60763L29.1253 1.59965C28.0148 2.62144 26.9339 3.67419 25.8664 4.73451L25.9063 4.69764C22.4517 7.8383 18.1897 9.79119 13.7425 8.53897C10.0241 7.68223 6.38295 6.22392 2.92444 4.55418C2.44195 4.31476 1.88389 4.03343 1.55488 3.82006Z" fill="var(--stroke-0, black)"/>
</svg>
