<svg preserveAspectRatio="none" width="100%" height="100%" overflow="visible" style="display: block;" viewBox="0 0 11.8855 30.7767" fill="none" xmlns="http://www.w3.org/2000/svg">
<path id="Vector 11" d="M11.8855 2.29136C11.8779 2.47529 11.7047 2.63011 11.527 2.72764C11.4716 2.75835 11.3416 2.66303 11.2969 2.6812C11.2097 2.71694 11.2496 2.81142 11.1525 2.84099C11.1196 2.85056 10.9071 2.71221 10.8777 2.72491C10.7181 2.79555 10.719 2.93864 10.6106 3.0384C10.0768 3.52846 9.70639 4.09665 9.3168 4.68079C9.18849 4.87348 8.86621 5.03511 8.86219 5.29265C8.86194 5.32277 9.07098 5.39666 9.08555 5.40881C9.30787 5.59634 8.9102 5.39179 8.83423 5.41739C8.53385 5.51943 8.41999 5.731 8.41698 5.95451C8.41633 6.0498 8.85466 6.14186 8.59334 6.12593C8.57561 6.12502 8.36852 6.01217 8.33601 6.02447C8.26271 6.05259 8.26065 6.16445 8.22698 6.19613C8.16087 6.257 8.15775 6.27041 8.12512 6.34065C8.07866 6.43583 7.92225 6.50658 7.92753 6.63174C7.92931 6.6587 8.16367 6.72215 8.1866 6.77345C8.20938 6.82492 8.15119 6.91138 8.08557 6.92141C8.01992 6.93142 7.85089 6.84522 7.8085 6.8342C7.45116 6.74028 7.87391 7.04418 7.87977 7.06283C7.97141 7.40007 7.61389 7.51141 7.51664 7.7535C7.44293 7.93869 7.45318 8.16883 7.37075 8.34016C7.27193 8.54335 7.0812 8.67084 7.02163 8.88374C7.01513 8.90598 7.28841 8.98429 7.28104 9.01162C7.20302 9.30042 7.0664 9.56693 6.78141 9.77573C6.75251 9.79681 6.5345 9.67146 6.49175 9.68723C6.23503 9.78574 5.67353 9.88156 6.64582 10.3687C6.5621 10.4702 6.46886 10.5935 6.22544 10.6211C6.06868 10.6392 5.83999 10.4783 5.91691 10.6019C5.93398 10.6297 6.16499 10.6888 6.17383 10.724C6.21075 10.8725 6.09136 10.9717 6.16264 11.1312C6.17763 11.1639 6.37909 11.2316 6.41243 11.2516C6.68164 11.4163 6.16694 11.3314 6.12447 11.3389C5.80686 11.3972 5.86725 11.5488 5.80717 11.6924C5.79318 11.7255 6.07559 11.7842 6.07176 11.8196C6.04885 12.0003 5.96165 12.1672 5.78287 12.2881C5.74249 12.3147 5.52635 12.198 5.49536 12.2065C5.3614 12.2451 5.7872 12.4174 5.66669 12.4587C5.64185 12.4675 5.44952 12.3876 5.42699 12.3827C5.07341 12.3056 5.53703 12.518 5.54342 12.5333C5.63445 12.7321 5.10381 12.6395 5.12256 12.8092C5.12542 12.8294 5.38686 12.8803 5.37977 12.9315C5.33536 13.2696 5.14865 13.5777 4.83877 13.8216C4.7912 13.8589 4.61697 13.7585 4.59292 13.7534C4.21636 13.6756 4.68642 13.8771 4.69879 13.8998C4.78399 14.0737 4.33931 14.0476 4.88317 14.3332C4.56212 14.7162 4.60287 15.2249 4.22426 15.5841L4.23137 15.5629C4.16254 15.6188 4.07527 15.6795 3.96335 15.7411C3.95559 15.7456 3.7161 15.6684 3.7016 15.6778C3.5239 15.7965 3.90885 15.8707 4.34871 16.0818C4.45934 16.1341 3.87957 16.0792 3.83673 16.077C3.679 16.0674 3.32099 15.9559 3.28957 15.9578C3.04147 15.9792 4.24923 16.2447 4.22918 16.3371C4.22652 16.3396 4.00693 16.2783 3.98309 16.2813C3.90825 16.2908 3.99123 16.3349 3.90928 16.3433C3.71984 16.3622 3.12678 16.2619 3.45107 16.4212C3.49325 16.4417 4.18395 16.5647 4.13388 16.6456C4.11303 16.6788 4.09564 16.8314 4.04245 16.869C3.98974 16.9037 3.77309 16.8325 3.76289 16.8338C3.4473 16.8958 3.33369 16.8293 2.88717 16.8108C2.44204 16.7946 3.48 16.9641 3.59108 17.0096C3.70176 17.0553 3.44386 17.0975 3.35552 17.1053C3.26723 17.1124 3.13044 17.0605 3.07923 17.0717C2.74416 17.1486 3.5838 17.2173 3.74103 17.2879C4.11432 17.45 3.33255 17.3978 3.24186 17.4799C3.21757 17.5009 3.39611 17.5094 3.40904 17.5336C3.45797 17.629 3.20923 17.6442 3.41414 17.7792C3.44758 17.8009 3.89914 17.9495 3.55116 17.9501C3.50098 17.9501 3.31196 17.9002 3.2633 17.9312C3.19021 17.978 3.13342 18.0724 3.18917 18.1411C3.23038 18.1922 3.5546 18.1871 3.44817 18.2285C3.40066 18.247 3.2218 18.1744 3.14799 18.2116C3.0741 18.2492 3.06563 18.369 3.06592 18.4145C3.06628 18.4604 3.3103 18.4688 3.32601 18.4747C3.41585 18.5093 3.52016 18.6115 3.51885 18.6192C3.49686 19.0043 3.0467 19.3093 3.13782 19.7027C3.14467 19.7332 3.40138 19.7429 3.40505 19.7478C3.50021 19.8604 2.83265 19.7037 2.59809 19.7491C3.11572 19.7974 3.01745 19.8285 3.06605 19.9069C3.08989 19.9448 3.29203 19.9481 3.31215 19.9536C3.61024 20.0388 3.21408 20.0292 3.13276 20.0298C2.83373 20.0308 3.17873 20.1056 2.97881 20.107C2.78034 20.1088 2.49559 20.0241 2.49184 20.0935C2.67475 20.1327 3.16366 20.134 3.23641 20.1944C3.51138 20.4227 3.09488 20.7467 3.04021 20.9006C2.98535 21.0552 3.01479 21.109 2.93924 21.1939C2.80268 21.3484 3.16756 21.3212 3.32249 21.4395C3.47746 21.5583 2.59812 21.4272 2.40671 21.425C2.21545 21.4224 2.40955 21.4559 2.30349 21.4646C2.19746 21.4733 2.07177 21.4225 2.02873 21.4616C1.98571 21.5008 2.31331 21.6482 2.51075 21.6808C2.92902 21.7499 3.37555 21.7357 3.21042 21.8354C3.20064 21.8411 2.96995 21.7997 2.94428 21.8227C2.74841 22.0021 2.71989 22.2108 2.54597 22.3927C2.52166 22.418 2.26477 22.3731 2.24769 22.3877C2.06904 22.5399 2.51015 22.5155 2.98796 22.6437C2.34431 22.573 1.94547 22.5939 1.93219 22.7181C1.92398 22.7931 2.20683 22.8015 2.40185 22.865C2.46065 22.884 2.26313 22.9231 2.39498 22.9426C2.826 23.0066 3.3148 22.9919 3.11217 23.1069C3.10258 23.1119 2.86666 23.0766 2.85086 23.0952C2.74772 23.2141 3.20005 23.2609 3.24543 23.4004C3.281 23.5104 2.99165 23.6801 2.93872 23.7985C2.21281 23.748 2.37148 23.8749 2.86915 23.954C2.84349 24.0331 2.86657 24.1177 2.79261 24.1899C2.76739 24.2147 2.55819 24.1844 2.53526 24.1863C2.1757 24.2152 2.66078 24.2797 2.67884 24.2979C2.85315 24.4959 2.47523 24.6218 2.82617 24.82C2.83882 24.8271 3.3429 24.8654 2.97178 24.8922C2.94621 24.8939 2.71986 24.8224 2.69746 24.905C2.67504 24.9871 2.39606 25.1278 2.62391 25.2561C2.67832 25.2869 3.07851 25.3775 2.76925 25.4187L2.76965 25.3673C2.76724 25.3679 2.76479 25.3684 2.76229 25.3689C2.71905 25.3779 2.57388 25.3749 2.49366 25.3886C2.23809 25.4335 2.7493 25.4322 2.31736 25.491C1.88544 25.5493 1.56476 25.6571 1.87066 25.76C1.87959 25.7635 2.28538 25.7672 2.28126 25.8038C2.27434 25.8632 2.19589 25.9515 2.20322 26.0124C2.20689 26.0418 2.45613 26.0035 2.46111 26.0083C2.61675 26.1892 2.40629 26.345 2.33387 26.5655C2.32028 26.6077 2.67358 26.6716 2.41488 26.7807C2.13222 26.9026 0.896546 26.9844 1.21746 27.147C1.34695 27.217 2.90733 27.0604 2.13065 27.3297C2.37451 27.5575 2.019 27.8888 2.36174 28.0901C2.377 28.0993 2.81074 28.0338 2.81144 28.0617C2.81176 28.1038 2.619 28.1751 2.61323 28.2074C2.58417 28.344 2.78254 28.4098 2.78828 28.5316C2.79097 28.5779 2.58332 28.6199 2.58701 28.6761C2.59109 28.7326 2.86811 28.6895 2.76017 28.7981C2.67771 28.8802 2.14992 29.0993 2.1096 29.1934C2.64636 29.0309 2.65044 29.0838 2.81904 29.1256C2.85168 29.1335 3.03204 29.0566 3.05706 29.0572C3.16291 29.0581 3.01825 29.1367 3.13214 29.133C3.15952 29.1322 3.3418 29.0734 3.37444 29.0693C3.65858 29.0314 3.27635 29.2475 3.21017 29.286C2.95826 29.431 3.20313 29.3776 3.11112 29.4555C3.01929 29.5339 2.86501 29.5157 2.81748 29.5873C2.71943 29.736 2.79525 29.8593 2.82414 29.9665C2.8368 30.0089 3.06743 29.8946 3.07484 29.8987C3.16631 29.9621 2.94204 30.1414 3.43776 30.0145C2.22243 30.5248 3.57626 30.0218 3.37338 30.2336C3.35688 30.2505 2.77734 30.4785 2.6778 30.4727C2.57831 30.4668 2.74034 30.3435 2.58763 30.3406C2.5518 30.34 1.97757 30.468 1.94072 30.4699C1.65309 30.4867 2.5248 30.161 2.57152 30.1399C3.07447 29.9088 2.45214 30.0346 2.40283 30.0253C2.17799 29.9862 2.27034 29.853 2.10562 29.8099C1.99888 29.7811 1.41934 29.9697 1.42105 29.9162C1.4261 29.7362 2.21865 29.4241 1.46888 29.4982C1.30888 29.5132 0.682781 29.7438 1.14643 29.4701C1.17545 29.4523 1.60762 29.2269 1.30244 29.2639C1.26393 29.2685 1.07794 29.3242 1.05979 29.3203C0.941691 29.2932 1.07892 29.2116 0.989842 29.1699C0.900722 29.128 0.772858 29.0812 0.81651 28.9911C0.842394 28.9365 1.17692 28.7873 1.25724 28.7446C1.48885 28.6228 1.0679 28.6652 1.35821 28.5532C1.65039 28.4422 2.12415 28.393 2.29659 28.256C1.80637 28.3747 1.30203 28.4917 0.80824 28.6079C0.772219 28.3886 0.883867 28.1419 0.818735 27.9308C0.810174 27.9047 0.549798 27.9855 0.533695 27.9584C0.466757 27.8423 0.636792 27.6997 0.538777 27.5849C0.462065 27.4971 0.160634 27.4319 0.0729678 27.3354C0.633659 27.184 0.418193 27.061 0.456206 26.941C0.46931 26.8996 0.622602 26.883 0.669101 26.8493C0.84112 26.7233 0.34067 26.8325 0.257466 26.8127C-0.0973721 26.7259 1.04858 26.5868 1.00631 26.4524C1.00449 26.4461 0.383092 26.4122 0.343709 26.4016C0.0873101 26.3406 0.555699 26.3681 0.596485 26.3133C0.671253 26.2139 0.812527 26.1378 0.625122 26.0439C0.569671 26.0171 0.181644 25.9638 0.47403 25.8834C0.512319 25.873 0.715612 25.8652 0.727117 25.8581C0.918592 25.7313 0.280507 25.7631 0.0607972 25.7038C-0.15881 25.645 0.277618 25.5191 0.40396 25.4937C0.730582 25.4259 0.54603 25.5308 0.57846 25.5325C0.93936 25.5504 0.901435 25.4887 0.920283 25.4329C0.923583 25.4114 0.915978 25.3458 0.921118 25.3246C0.922695 25.3212 0.924526 25.3179 0.926747 25.3146C1.55296 25.3387 1.5192 25.2628 0.960665 25.2609C0.899649 25.2609 0.955882 25.3053 0.926747 25.3146C0.315115 25.2365 0.240752 25.1494 0.819245 25.0898C1.09038 25.062 1.40176 25.1182 1.29389 24.9852C1.24523 24.925 0.813186 24.9238 0.698506 24.8665C0.436909 24.7348 0.847461 24.6033 0.791128 24.4801C0.770686 24.4352 0.532426 24.4639 0.510335 24.4327C0.450964 24.3502 0.632078 24.2899 0.54633 24.2041C0.538263 24.1963 0.2904 24.1992 0.288774 24.1739C0.271655 23.9825 0.43996 23.8299 0.457376 23.6319C0.465632 23.5366 0.340954 23.3591 0.375292 23.2606C0.433146 23.0916 0.806762 22.9094 0.730647 22.7561C0.682007 22.6568 0.433869 22.6592 0.26894 22.6057C-0.050827 22.5028 0.543384 22.4068 0.635173 22.3952C0.638201 22.3948 0.689903 22.4819 0.819882 22.4477C1.08557 22.4427 0.636242 22.3962 0.635173 22.3952C0.694465 22.3871 0.763372 22.228 0.718872 22.1921C0.694533 22.1725 0.460209 22.1635 0.451935 22.1536C0.260669 21.9169 0.219697 21.6933 0.348644 21.4773C0.353705 21.4737 0.614246 21.5026 0.622885 21.4941C0.750366 21.3748 0.438189 21.2671 0.258584 21.1411C0.0789933 21.0161 0.150434 20.9369 0.60424 20.9169C0.555263 20.833 0.764617 20.7342 0.891176 20.6803C1.01776 20.6261 0.511015 20.5669 0.501556 20.56C0.19814 20.3489 0.50002 20.2666 0.564736 20.0853C0.596475 19.998 0.542352 19.8095 0.497554 19.7074C0.461298 19.6264 0.585555 19.591 0.517622 19.5115C0.508572 19.5007 0.281772 19.4849 0.273417 19.4809C0.0124657 19.3704 0.55982 19.4716 0.660215 19.4665C1.02535 19.4478 1.21997 19.4364 1.06346 19.3141C1.0276 19.2862 0.241715 19.1236 0.20046 19.0748C0.148242 19.0119 0.430254 19.067 0.368331 19.0007C0.363294 18.9951 0.187644 18.9748 0.199727 18.94C0.254082 18.7733 0.378642 18.6072 0.384324 18.427C0.385729 18.4028 0.103643 18.3972 0.101115 18.3615C0.0891159 18.1972 0.124389 18.0147 0.27659 17.8756C0.31507 17.8405 0.505965 17.8929 0.564906 17.8925C0.921575 17.8895 0.424753 17.7436 0.416886 17.7298C0.215694 17.4013 0.708362 17.2478 0.539788 16.912C0.529716 16.8931 0.00855613 16.678 0.483358 16.6976C0.514987 16.6987 0.999739 16.7243 0.683582 16.6187C0.663817 16.612 0.413177 16.6043 0.448797 16.5476C0.484 16.493 0.339345 16.3603 0.623136 16.3254C0.712696 16.3135 1.19645 16.3422 0.835507 16.1886C0.810011 16.1791 -0.0165005 15.8875 0.57937 15.958C0.677462 15.9697 1.29649 16.101 0.998008 15.94C0.940149 15.9089 0.7949 15.9145 0.718593 15.8477C0.600588 15.7468 0.788494 15.677 0.533751 15.5229C0.488214 15.4975 0.0857768 15.328 0.417403 15.3408C0.469285 15.343 0.671256 15.4075 0.701341 15.3822C0.844662 15.2655 0.746681 15.071 0.930812 14.9495C0.995182 14.9083 1.31735 15.0251 1.42166 14.9914C1.52593 14.9574 1.64363 14.8684 1.51526 14.7565C1.40096 14.6577 0.960724 14.5741 0.857717 14.4748C0.864179 14.463 0.872454 14.4226 0.879213 14.411C0.865663 14.4007 0.857265 14.391 0.855306 14.3818C0.782275 14.0183 1.1885 13.8243 1.34062 13.5323C1.36326 13.4889 1.16617 13.4621 1.18574 13.3953C1.25762 13.1469 1.23737 12.6557 1.70211 12.5842C2.0757 12.523 2.23651 12.8243 2.41043 12.7378C2.49392 12.6951 1.92161 12.4155 1.90819 12.3939C1.76975 12.1793 2.07199 12.1667 2.03868 12.0047C2.03167 11.9713 1.78057 11.9116 1.77728 11.8841C1.76395 11.7895 1.90211 11.7436 1.91033 11.6589C1.91348 11.6207 1.72682 11.5607 1.75265 11.5336C1.81252 11.4675 1.9133 11.4309 2.11286 11.419C2.13103 11.418 2.34384 11.5462 2.37262 11.4933C2.41832 11.4081 2.63084 11.3534 2.49223 11.1872C2.45051 11.1372 2.03014 10.9829 2.34493 11.0223C2.41072 11.0304 2.90935 11.2325 2.50118 10.9957C2.4333 10.9565 1.89281 10.6097 2.29596 10.6835C2.40191 10.7034 2.83065 10.8122 2.77929 10.7514C2.77078 10.7426 2.53758 10.6799 2.52683 10.6411C2.49289 10.5057 2.55916 10.4 2.53039 10.2606C2.52207 10.2237 2.27226 10.1816 2.26726 10.1295C2.25315 9.98627 2.3695 9.85491 2.48767 9.76098C2.53167 9.72652 2.71335 9.82942 2.73558 9.83401C3.09705 9.90918 2.64652 9.70757 2.62607 9.68023C2.5046 9.51393 2.75178 9.51377 2.73158 9.39345C2.72661 9.36042 2.49949 9.29712 2.48193 9.28431C2.31165 9.15576 2.69062 9.34636 2.74758 9.32699C2.90866 9.27277 2.93191 9.15778 2.94208 9.04625C2.94544 9.0053 2.67503 8.9503 2.68102 8.9146C2.71224 8.69989 2.81364 8.50736 3.02778 8.36871C3.06854 8.34283 3.25553 8.44087 3.30313 8.45052C3.63589 8.51884 3.2385 8.27889 3.20453 8.24598C3.04949 8.09552 3.23439 8.13159 3.22919 8.04918C3.20168 7.64284 3.48166 7.266 3.68031 6.97248C3.93869 6.5878 4.25463 6.33867 4.37036 5.92014C4.378 5.89358 4.10941 5.81321 4.1127 5.78891C4.16669 5.48059 4.38343 5.24332 4.42808 4.92977C4.43224 4.90415 4.17438 4.83499 4.1729 4.79034C4.16816 4.69801 4.22261 4.60623 4.33332 4.56164C4.38685 4.53972 4.57417 4.67919 4.62374 4.65542C4.73953 4.60056 4.79714 4.51361 4.79703 4.40631C4.79648 4.36038 4.5229 4.31199 4.5416 4.26051C4.66394 3.90759 4.7685 3.55154 5.24174 3.34918C5.27424 3.33529 5.78566 3.5382 5.71156 3.44549C5.5739 3.37959 5.4099 3.30668 5.2617 3.23861C5.403 2.70624 5.80077 2.29521 6.06089 1.81339C6.07182 1.79302 5.79136 1.70474 5.81124 1.66455C5.92561 1.43272 5.9632 1.16772 6.33963 1.05619C6.37663 1.04491 6.83117 1.28187 6.79544 1.17849C6.78871 1.16001 6.77867 1.02529 6.69226 0.949036C6.67903 0.937925 6.45499 0.851451 6.46545 0.814464C6.52987 0.601573 6.68186 0.419622 6.9116 0.289882C6.94903 0.269249 7.15914 0.418079 7.18773 0.40447C7.38829 0.308147 7.3051 0.0465886 7.58896 0.00233656C7.77953 -0.0262987 8.15034 0.214878 8.56171 0.363551C8.61973 0.384535 8.66026 0.328246 8.88501 0.442663C9.45019 0.730257 10.0496 1.0822 10.6538 1.38524C10.7839 1.45056 10.6859 1.3004 10.973 1.5101C10.9921 1.52427 11.0661 1.63432 11.1647 1.70343C11.2327 1.75127 11.4687 1.85342 11.5522 1.92176C11.6355 1.98997 11.434 1.91143 11.5272 2.00096C11.6219 2.09111 11.8879 2.21196 11.8855 2.29136ZM1.4575 20.4378C1.70745 20.4016 0.815781 20.301 1.02255 20.3894C1.0336 20.3938 1.44523 20.4397 1.4575 20.4378ZM1.54725 27.9995C1.91661 27.8352 1.33547 27.898 1.04874 28.0202C0.76295 28.1447 1.43566 28.0508 1.54725 27.9995ZM2.03649 28.7682C2.31175 28.5936 1.08028 28.9141 1.35718 28.9498C1.3729 28.952 2.02058 28.7785 2.03649 28.7682ZM8.54458 0.663618C8.55555 0.66833 8.58863 0.6297 8.5787 0.623221C8.33792 0.468474 8.27165 0.546332 8.54458 0.663618ZM2.58221 29.4727C2.73639 29.391 2.52153 29.3734 2.32946 29.4745C2.17511 29.5566 2.39062 29.5751 2.58221 29.4727ZM2.80908 17.4125C2.82235 17.4142 2.84 17.3806 2.76527 17.3692C2.52456 17.3328 2.58451 17.3925 2.80908 17.4125ZM3.06472 30.7755C3.0377 30.5668 3.98063 30.0867 3.94607 30.3336C3.93995 30.3785 3.60198 30.3702 3.53097 30.4509C3.40205 30.5992 4.04145 30.4248 3.74397 30.6386C3.68947 30.6775 3.06405 30.7882 3.06322 30.7757C3.06372 30.7757 3.06422 30.7756 3.06472 30.7755ZM2.53326 20.5122C2.54519 20.5122 2.56133 20.4651 2.54975 20.4628C2.26907 20.4074 2.23635 20.5026 2.53326 20.5122ZM3.7598 15.5589C3.78403 15.5652 3.83771 15.4695 3.81618 15.4612C3.38906 15.2646 3.27522 15.4702 3.7598 15.5589ZM2.91923 23.7992C3.20174 23.8703 3.23136 23.9349 2.86953 23.9538C2.89197 23.9026 2.89819 23.8503 2.91923 23.7992Z" fill="var(--stroke-0, #1F1F25)"/>
</svg>
