<svg preserveAspectRatio="none" width="100%" height="100%" overflow="visible" style="display: block;" viewBox="0 0 165.738 170" fill="none" xmlns="http://www.w3.org/2000/svg">
<path id="Star 1" d="M82.8689 0L95.5414 29.4779L119.749 8.41765L118.377 40.4747L149.325 32.0034L134.179 60.2903L165.738 66.0857L139.819 85L165.738 103.914L134.179 109.71L149.325 137.997L118.377 129.525L119.749 161.582L95.5414 140.522L82.8689 170L70.1963 140.522L45.9888 161.582L47.3611 129.525L16.4132 137.997L31.5587 109.71L0 103.914L25.9189 85L0 66.0857L31.5587 60.2903L16.4132 32.0034L47.3611 40.4747L45.9888 8.41765L70.1963 29.4779L82.8689 0Z" fill="var(--fill-0, #E768B0)"/>
</svg>
