<svg preserveAspectRatio="none" width="100%" height="100%" overflow="visible" style="display: block;" viewBox="0 0 89.4742 12.4558" fill="none" xmlns="http://www.w3.org/2000/svg">
<path id="Vector 10" d="M6.06309 4.68598C6.61627 4.11868 7.96678 3.59237 8.71694 3.30433C8.73066 3.29892 8.74438 3.29352 8.75809 3.28812C8.93545 3.21993 9.10092 3.14576 9.29255 3.05995C9.72446 2.86776 10.2923 2.60894 11.5099 2.2176C11.5979 2.1889 11.6884 2.16006 11.7816 2.13117C12.1847 1.94707 12.5914 1.77246 13.0106 1.60614C15.6022 0.5548 18.7376 -0.130246 21.6778 0.0208347C23.2495 0.0778618 24.0427 0.695738 24.6259 1.09453C25.205 1.52701 25.6083 1.93111 25.9801 2.31713C26.7126 3.09018 27.2955 3.8118 27.8793 4.51923C27.9188 4.5596 27.9574 4.59913 27.9971 4.63971C28.3207 4.97068 28.6723 5.32923 29.0092 5.67958C29.2943 5.97475 29.5894 6.20699 29.8257 6.41353C30.3447 6.86496 30.8652 7.1496 31.311 7.37618C33.1667 8.01965 35.5796 8.26484 37.9546 8.56101C38.9685 8.68625 40.0369 8.75022 41.1096 8.78252C42.1757 8.81392 43.2522 8.8117 44.3342 8.78596C45.3304 8.76235 46.3307 8.72051 47.3402 8.67348C47.5906 8.64079 47.8383 8.60646 48.0779 8.57244C48.3618 8.52758 48.6267 8.47349 48.8707 8.41394C49.4689 8.26856 49.9348 8.08959 50.3237 7.95259C51.2334 7.64404 52.4752 7.12182 53.4877 6.69786C53.6265 6.6396 53.7566 6.58524 53.8832 6.53162C53.9078 6.52111 53.932 6.51076 53.9559 6.50058C54.7521 6.0621 55.5738 5.64118 56.4301 5.25796C56.4965 5.25587 56.5613 5.25567 56.6307 5.25457C57.4938 5.25187 58.3917 4.89071 59.9812 4.56239C60.6712 4.42657 61.5087 4.31098 62.4885 4.32817C63.1176 4.34177 63.4213 4.48737 63.662 4.60013C63.733 4.63385 63.7973 4.6656 63.8643 4.69268C64.0896 4.7851 64.3374 4.72857 64.6175 4.66116C64.9261 4.58638 65.2699 4.49989 65.6437 4.56733C65.8072 4.58423 65.9684 4.61905 66.1107 4.66601C66.828 4.93006 67.0346 5.10164 67.3475 5.21549C67.633 5.32986 67.8847 5.39232 68.1105 5.42359C68.5632 5.48569 68.9058 5.42477 69.1974 5.37012C69.3676 5.33759 69.5233 5.30714 69.6786 5.3015C69.9347 5.29181 70.239 5.34176 70.5481 5.41981C70.8411 5.49395 71.1455 5.59594 71.4013 5.6993C71.8232 5.86905 72.7124 5.86866 73.3986 5.80628C73.6551 5.78259 73.9987 5.82085 74.4012 5.86446C74.8187 5.90974 75.3022 5.96112 75.8255 5.956C77.1487 5.94258 77.8516 5.93587 78.4162 5.93137C78.5765 5.92991 78.7275 5.92893 78.8768 5.92702C79.3504 5.92118 79.9357 5.9334 80.5276 5.94356C81.2339 5.95569 81.955 5.96478 82.5001 5.93976C82.76 5.97366 83.0233 6.00782 83.2791 6.04115C84.4095 6.18655 85.5409 6.33191 86.6043 6.42369C87.1833 6.47242 87.6385 6.65386 88.0739 6.92714C88.1562 6.97499 88.2319 7.02691 88.2985 7.08275C88.5289 7.27491 88.6104 7.47385 88.5586 7.799C88.5401 7.96175 88.5678 8.14671 88.6724 8.24743C88.7729 8.35257 88.9117 8.39893 89.0436 8.45533C89.3002 8.54457 89.5997 8.78798 89.4191 9.23189C89.2453 9.63962 88.9497 9.92687 88.681 10.1773C88.598 10.2516 88.5139 10.321 88.4282 10.3861C87.9174 10.7649 87.1872 10.9768 86.5275 11.0028C85.2815 11.0508 84.101 11.044 82.9122 11.021C82.5943 11.0148 82.2671 11.0061 81.9499 10.9964C80.1246 10.9394 78.3137 10.8338 76.5048 10.6519C75.2396 10.5241 73.9774 10.375 72.7094 10.2006C72.5786 10.1826 72.4498 10.1644 72.3179 10.1457C71.4552 10.156 70.5785 10.1481 69.8658 10.106C69.6764 10.094 69.5068 10.0809 69.3436 10.0643C68.6835 9.99758 68.2123 9.82997 67.8043 9.67764C67.5255 9.57296 67.2787 9.47561 67.0163 9.41676C66.8751 9.38505 66.6804 9.34411 66.447 9.28983C66.2084 9.23484 65.9175 9.16029 65.6499 9.08823C65.3841 9.00944 65.1671 8.98918 65.4068 9.02145C64.6376 8.98524 63.952 8.87779 63.3981 8.7705C62.8962 8.67106 62.3748 8.53978 61.848 8.46594C61.1001 8.355 60.3297 8.37274 59.9735 8.51568C59.354 8.76077 58.583 8.94971 57.8948 9.15951C57.2391 9.35766 56.6533 9.57146 56.3833 9.80559C56.1727 9.98441 55.9786 10.0891 55.7209 10.1958C55.5601 10.2627 55.3852 10.3249 55.1828 10.3972C54.8099 10.5296 54.3548 10.6966 53.717 10.9696C52.9782 11.2846 52.3753 11.4337 51.8614 11.5305C51.1322 11.6643 50.5819 11.7234 49.7942 11.9695C49.2524 12.1361 48.689 12.2444 48.173 12.2871C47.8923 12.3126 47.6228 12.3233 47.3743 12.313C47.0777 12.3008 46.7422 12.3166 46.3892 12.333C45.9221 12.3547 45.4282 12.3769 44.9758 12.3358C44.6035 12.302 44.2923 12.1975 44.018 12.1044C43.9316 12.0753 43.8505 12.0475 43.7708 12.0231C43.4736 12.0305 43.1773 12.0376 42.8794 12.0448C42.8315 12.0634 42.7812 12.084 42.7285 12.1052C42.464 12.2115 42.1381 12.3413 41.7312 12.4052C41.0868 12.506 40.5188 12.4384 39.9175 12.358C39.4494 12.295 38.9624 12.2248 38.3948 12.2121C38.1678 12.2069 37.9187 12.2095 37.6635 12.2127C37.4918 12.2156 37.32 12.221 37.1468 12.2263C36.5256 12.2455 35.9073 12.2646 35.4798 12.1874C35.3204 12.1585 35.1856 12.0768 35.0554 11.9955C35.0548 11.995 35.0543 11.9945 35.0537 11.9941C35.0448 11.9886 35.0359 11.9831 35.0271 11.9776C33.9703 11.9397 32.8935 11.8945 31.768 11.7643C31.6673 11.7652 31.5659 11.765 31.4655 11.764C30.9728 11.7597 30.4779 11.7288 30.1312 11.7571C29.7584 11.7883 28.8487 11.6163 27.8632 11.2162C27.2189 10.9587 26.5589 10.5972 26.0322 10.2634C25.7237 10.0697 25.5118 9.78095 25.3214 9.48356C25.2801 9.41928 25.2394 9.35414 25.1983 9.28869C25.104 9.11563 25.0003 8.94832 24.8488 8.80656C24.751 8.7151 24.6288 8.62828 24.5008 8.53796C24.3866 8.45679 24.2688 8.37405 24.1529 8.27624C24.0472 8.18754 23.8649 7.9329 23.6378 7.61587C23.4986 7.42128 23.338 7.19858 23.1686 6.97911C22.6359 6.48518 22.0951 6.00532 21.675 5.7271C21.5561 5.71439 21.4468 5.7379 21.3505 5.80057C21.2818 5.84572 21.2143 5.91053 21.1552 5.98315C21.0751 6.08195 21.0036 6.19332 20.9915 6.30291C20.9813 6.38838 21.0415 6.44847 21.1206 6.43722C21.1566 6.43186 21.1911 6.41057 21.2232 6.39105C21.2607 6.36881 21.2942 6.34846 21.3308 6.3564C21.357 6.3621 21.3829 6.38882 21.4198 6.42059C21.4751 6.46813 21.5586 6.53084 21.7125 6.5374C21.7084 6.53777 21.7042 6.53803 21.7 6.53815C21.3849 6.54702 21.0421 6.53914 20.7134 6.54288C20.3476 6.54654 19.9963 6.56546 19.7196 6.61959C19.4115 6.67909 18.9559 6.67323 18.4843 6.69681C18.1559 6.71246 17.8211 6.74125 17.5383 6.79749C17.2615 6.85225 16.9874 6.9833 16.7282 7.11494C16.4149 7.2735 16.1159 7.43473 15.8191 7.47109C15.7591 7.47836 15.6613 7.42185 15.5352 7.35321C15.4459 7.30454 15.342 7.24982 15.2321 7.20538C14.8794 7.34533 14.5281 7.48908 14.1738 7.63785C14.1662 7.65417 14.1584 7.67086 14.1506 7.68781C14.1505 7.68816 14.1504 7.68851 14.1503 7.68886C14.1204 7.75385 14.0885 7.82308 14.0529 7.89356C13.8726 8.24079 13.6055 8.61524 13.0434 8.6679C12.8728 8.6833 12.7324 8.63099 12.6083 8.58293C12.4862 8.53579 12.3765 8.49389 12.2596 8.52909C12.1294 8.56794 12.0061 8.68998 11.8757 8.82118C11.6902 9.00659 11.4834 9.21399 11.1942 9.24974C11.1744 9.25221 11.153 9.25475 11.1308 9.25765C10.9212 9.28496 10.6108 9.32579 10.2583 9.27854C9.44058 9.61238 8.61603 9.94244 7.78647 10.2677C6.55413 10.7498 5.31675 11.2251 4.03105 11.6856C3.87329 11.7417 3.71937 11.7958 3.56653 11.8494C2.87702 12.0913 2.13412 12.1305 1.48787 11.9475C0.82377 11.7739 0.427654 11.3339 0.113878 10.8739C-0.0869979 10.3252 -0.0131592 9.71233 0.264865 9.12622C0.553893 8.538 1.06158 8.02256 1.68835 7.67247C1.82714 7.59486 1.9672 7.51651 2.11121 7.43625C2.95338 6.95998 3.8238 6.44894 4.6939 5.94399C4.74357 5.90716 4.79391 5.87042 4.84457 5.83429C5.22039 5.56606 5.53267 5.2391 5.84602 4.91139C5.91774 4.83624 5.9905 4.76049 6.06309 4.68598Z" fill="var(--stroke-0, #1F1F25)"/>
</svg>
