<svg width="140" height="140" viewBox="0 0 140 140" fill="none" xmlns="http://www.w3.org/2000/svg">
<g clip-path="url(#clip0_54_80929)">
<rect x="10" y="10" width="120" height="120" rx="60" fill="#58B880"/>
<path d="M49 3C31.2192 3 16.8052 17.4141 16.8052 35.1948C16.8052 36.6365 15.6365 37.8052 14.1948 37.8052C-3.5859 37.8052 -18 52.2192 -18 70C-18 87.7808 -3.5859 102.195 14.1948 102.195C15.6365 102.195 16.8052 103.364 16.8052 104.805C16.8052 122.586 31.2192 137 49 137C66.7808 137 81.195 122.586 81.195 104.805C81.195 103.364 82.3635 102.195 83.805 102.195C101.586 102.195 116 87.7808 116 70C116 52.2192 101.586 37.8052 83.805 37.8052C82.3635 37.8052 81.195 36.6365 81.195 35.1948C81.195 17.4141 66.7808 3 49 3Z" fill="#1A5E36"/>
<circle cx="49" cy="70" r="14" fill="#F2F3E5"/>
<circle cx="53.4983" cy="72.7548" r="8.90909" fill="#36363F"/>
<circle cx="82.2305" cy="70" r="14" fill="#F2F3E5"/>
<circle cx="86.7292" cy="72.7548" r="8.90909" fill="#36363F"/>
</g>
<rect x="5" y="5" width="130" height="130" rx="65" stroke="#36363f" stroke-width="10"/>
<defs>
<clipPath id="clip0_54_80929">
<rect x="10" y="10" width="120" height="120" rx="60" fill="white"/>
</clipPath>
</defs>
</svg>
